# vtk DataFile Version 3.0
Heat2D data at time 0.19
ASCII
DATASET STRUCTURED_POINTS
DIMENSIONS 101 101 1
ORIGIN 0 0 0
SPACING 0.01 0.01 1
POINT_DATA 10201
SCALARS temperature double
LOOKUP_TABLE default
0
0
0
0
0
0
0
0
0
0
0
0
0
0
0
0
0
0
0
0
0
0
0
0
0
0
0
0
0
0
0
0
0
0
0
0
0
0
0
0
0
0
0
0
0
0
0
0
0
0
0
0
0
0
0
0
0
0
0
0
0
0
0
0
0
0
0
0
0
0
0
0
0
0
0
0
0
0
0
0
0
0
0
0
0
0
0
0
0
0
0
0
0
0
0
0
0
0
0
0
0
0
2.42305e-05
4.8635e-05
7.33861e-05
9.86541e-05
0.000124605
0.0001514
0.000179195
0.000208134
0.000238358
0.000269992
0.000303151
0.000337939
0.000374443
0.000412734
0.000452868
0.00049488
0.000538788
0.000584588
0.000632256
0.000681744
0.000732983
0.00078588
0.00084032
0.000896162
0.000953245
0.00101138
0.00107037
0.00112998
0.00118996
0.00125006
0.00130998
0.00136945
0.00142814
0.00148575
0.00154197
0.00159645
0.0016489
0.00169897
0.00174638
0.0017908
0.00183197
0.00186959
0.00190342
0.00193324
0.00195883
0.00198002
0.00199665
0.00200862
0.00201584
0.00201825
0.00201584
0.00200862
0.00199665
0.00198002
0.00195883
0.00193324
0.00190342
0.00186959
0.00183197
0.0017908
0.00174638
0.00169897
0.0016489
0.00159645
0.00154197
0.00148575
0.00142814
0.00136945
0.00130998
0.00125006
0.00118996
0.00112998
0.00107037
0.00101138
0.000953245
0.000896162
0.00084032
0.00078588
0.000732983
0.000681744
0.000632256
0.000584588
0.000538788
0.00049488
0.000452868
0.000412734
0.000374443
0.000337939
0.000303151
0.000269992
0.000238358
0.000208134
0.000179195
0.0001514
0.000124605
9.86541e-05
7.33861e-05
4.8635e-05
2.42305e-05
0
0
4.8635e-05
9.76191e-05
0.000147299
0.000198016
0.000250105
0.000303888
0.000359676
0.000417763
0.000478427
0.000541922
0.000608479
0.000678305
0.000751575
0.000828432
0.000908987
0.000993313
0.00108144
0.00117337
0.00126905
0.00136838
0.00147123
0.0015774
0.00168667
0.00179876
0.00191334
0.00203003
0.00214843
0.00226807
0.00238847
0.00250909
0.00262938
0.00274873
0.00286654
0.00298218
0.003095
0.00320437
0.00330963
0.00341015
0.0035053
0.00359447
0.00367709
0.0037526
0.00382052
0.00388036
0.00393173
0.00397425
0.00400765
0.00403167
0.00404615
0.00405099
0.00404615
0.00403167
0.00400765
0.00397425
0.00393173
0.00388036
0.00382052
0.0037526
0.00367709
0.00359447
0.0035053
0.00341015
0.00330963
0.00320437
0.003095
0.00298218
0.00286654
0.00274873
0.00262938
0.00250909
0.00238847
0.00226807
0.00214843
0.00203003
0.00191334
0.00179876
0.00168667
0.0015774
0.00147123
0.00136838
0.00126905
0.00117337
0.00108144
0.000993313
0.000908987
0.000828432
0.000751575
0.000678305
0.000608479
0.000541922
0.000478427
0.000417763
0.000359676
0.000303888
0.000250105
0.000198016
0.000147299
9.76191e-05
4.8635e-05
0
0
7.33861e-05
0.000147299
0.000222262
0.00029879
0.000377388
0.000458542
0.000542721
0.00063037
0.000721906
0.000817715
0.000918145
0.00102351
0.00113406
0.00125004
0.00137159
0.00149883
0.00163181
0.00177052
0.00191489
0.00206478
0.00221996
0.00238017
0.00254505
0.00271418
0.00288706
0.00306315
0.0032418
0.00342234
0.00360401
0.00378601
0.00396751
0.0041476
0.00432537
0.00449986
0.0046701
0.00483513
0.00499396
0.00514563
0.0052892
0.00542375
0.00554842
0.00566237
0.00576484
0.00585514
0.00593265
0.00599682
0.0060472
0.00608345
0.00610531
0.00611261
0.00610531
0.00608345
0.0060472
0.00599682
0.00593265
0.00585514
0.00576484
0.00566237
0.00554842
0.00542375
0.0052892
0.00514563
0.00499396
0.00483513
0.0046701
0.00449986
0.00432537
0.0041476
0.00396751
0.00378601
0.00360401
0.00342234
0.0032418
0.00306315
0.00288706
0.00271418
0.00254505
0.00238017
0.00221996
0.00206478
0.00191489
0.00177052
0.00163181
0.00149883
0.00137159
0.00125004
0.00113406
0.00102351
0.000918145
0.000817715
0.000721906
0.00063037
0.000542721
0.000458542
0.000377388
0.00029879
0.000222262
0.000147299
7.33861e-05
0
0
9.86541e-05
0.000198016
0.00029879
0.000401669
0.000507328
0.000616424
0.000729588
0.000847416
0.00097047
0.00109927
0.00123428
0.00137591
0.00152454
0.00168044
0.00184384
0.0020149
0.00219367
0.00238014
0.00257422
0.00277571
0.00298433
0.0031997
0.00342135
0.00364871
0.00388112
0.00411783
0.004358
0.0046007
0.00484492
0.0050896
0.00533358
0.00557568
0.00581466
0.00604922
0.00627809
0.00649994
0.00671345
0.00691735
0.00711035
0.00729124
0.00745882
0.00761201
0.00774977
0.00787116
0.00797535
0.00806161
0.00812935
0.00817808
0.00820746
0.00821727
0.00820746
0.00817808
0.00812935
0.00806161
0.00797535
0.00787116
0.00774977
0.00761201
0.00745882
0.00729124
0.00711035
0.00691735
0.00671345
0.00649994
0.00627809
0.00604922
0.00581466
0.00557568
0.00533358
0.0050896
0.00484492
0.0046007
0.004358
0.00411783
0.00388112
0.00364871
0.00342135
0.0031997
0.00298433
0.00277571
0.00257422
0.00238014
0.00219367
0.0020149
0.00184384
0.00168044
0.00152454
0.00137591
0.00123428
0.00109927
0.00097047
0.000847416
0.000729588
0.000616424
0.000507328
0.000401669
0.00029879
0.000198016
9.86541e-05
0
0
0.000124605
0.000250105
0.000377388
0.000507328
0.000640781
0.000778576
0.000921507
0.00107033
0.00122575
0.00138843
0.00155895
0.00173785
0.00192557
0.00212248
0.00232887
0.00254492
0.00277071
0.00300624
0.00325137
0.00350586
0.00376936
0.00404139
0.00432134
0.00460851
0.00490206
0.00520103
0.00550438
0.00581092
0.00611938
0.00642842
0.00673659
0.00704237
0.00734421
0.00764048
0.00792955
0.00820975
0.00847944
0.00873697
0.00898074
0.0092092
0.00942087
0.00961436
0.00978835
0.00994167
0.0100733
0.0101822
0.0102678
0.0103293
0.0103664
0.0103788
0.0103664
0.0103293
0.0102678
0.0101822
0.0100733
0.00994167
0.00978835
0.00961436
0.00942087
0.0092092
0.00898074
0.00873697
0.00847944
0.00820975
0.00792955
0.00764048
0.00734421
0.00704237
0.00673659
0.00642842
0.00611938
0.00581092
0.00550438
0.00520103
0.00490206
0.00460851
0.00432134
0.00404139
0.00376936
0.00350586
0.00325137
0.00300624
0.00277071
0.00254492
0.00232887
0.00212248
0.00192557
0.00173785
0.00155895
0.00138843
0.00122575
0.00107033
0.000921507
0.000778576
0.000640781
0.000507328
0.000377388
0.000250105
0.000124605
0
0
0.0001514
0.000303888
0.000458542
0.000616424
0.000778576
0.000946002
0.00111967
0.0013005
0.00148934
0.001687
0.00189419
0.00211156
0.00233965
0.00257891
0.00282967
0.00309218
0.00336653
0.00365271
0.00395055
0.00425977
0.00457993
0.00491045
0.00525061
0.00559953
0.0059562
0.00631947
0.00668805
0.00706051
0.00743531
0.0078108
0.00818523
0.00855678
0.00892352
0.0092835
0.00963473
0.00997519
0.0103029
0.0106158
0.010912
0.0111896
0.0114468
0.0116818
0.0118933
0.0120795
0.0122394
0.0123718
0.0124758
0.0125506
0.0125956
0.0126107
0.0125956
0.0125506
0.0124758
0.0123718
0.0122394
0.0120795
0.0118933
0.0116818
0.0114468
0.0111896
0.010912
0.0106158
0.0103029
0.00997519
0.00963473
0.0092835
0.00892352
0.00855678
0.00818523
0.0078108
0.00743531
0.00706051
0.00668805
0.00631947
0.0059562
0.00559953
0.00525061
0.00491045
0.00457993
0.00425977
0.00395055
0.00365271
0.00336653
0.00309218
0.00282967
0.00257891
0.00233965
0.00211156
0.00189419
0.001687
0.00148934
0.0013005
0.00111967
0.000946002
0.000778576
0.000616424
0.000458542
0.000303888
0.0001514
0
0
0.000179195
0.000359676
0.000542721
0.000729588
0.000921507
0.00111967
0.00132522
0.00153924
0.00176275
0.0019967
0.00224193
0.0024992
0.00276916
0.00305234
0.00334915
0.00365984
0.00398456
0.00432327
0.00467579
0.00504178
0.00542072
0.00581191
0.00621452
0.00662749
0.00704965
0.0074796
0.00791584
0.00835668
0.00880028
0.00924471
0.00968788
0.0101276
0.0105617
0.0109878
0.0114035
0.0118064
0.0121943
0.0125646
0.0129152
0.0132437
0.0135482
0.0138264
0.0140766
0.0142971
0.0144864
0.0146431
0.0147661
0.0148546
0.014908
0.0149258
0.014908
0.0148546
0.0147661
0.0146431
0.0144864
0.0142971
0.0140766
0.0138264
0.0135482
0.0132437
0.0129152
0.0125646
0.0121943
0.0118064
0.0114035
0.0109878
0.0105617
0.0101276
0.00968788
0.00924471
0.00880028
0.00835668
0.00791584
0.0074796
0.00704965
0.00662749
0.00621452
0.00581191
0.00542072
0.00504178
0.00467579
0.00432327
0.00398456
0.00365984
0.00334915
0.00305234
0.00276916
0.0024992
0.00224193
0.0019967
0.00176275
0.00153924
0.00132522
0.00111967
0.000921507
0.000729588
0.000542721
0.000359676
0.000179195
0
0
0.000208134
0.000417763
0.00063037
0.000847416
0.00107033
0.0013005
0.00153924
0.00178783
0.00204744
0.00231917
0.002604
0.00290282
0.00321638
0.00354529
0.00389003
0.00425091
0.00462807
0.00502148
0.00543093
0.00585603
0.00629616
0.00675054
0.00721816
0.00769783
0.00818816
0.00868756
0.00919425
0.00970628
0.0102215
0.0107377
0.0112525
0.0117632
0.0122674
0.0127623
0.0132451
0.0137132
0.0141636
0.0145938
0.015001
0.0153826
0.0157362
0.0160594
0.01635
0.0166061
0.0168259
0.0170079
0.0171508
0.0172536
0.0173156
0.0173363
0.0173156
0.0172536
0.0171508
0.0170079
0.0168259
0.0166061
0.01635
0.0160594
0.0157362
0.0153826
0.015001
0.0145938
0.0141636
0.0137132
0.0132451
0.0127623
0.0122674
0.0117632
0.0112525
0.0107377
0.0102215
0.00970628
0.00919425
0.00868756
0.00818816
0.00769783
0.00721816
0.00675054
0.00629616
0.00585603
0.00543093
0.00502148
0.00462807
0.00425091
0.00389003
0.00354529
0.00321638
0.00290282
0.002604
0.00231917
0.00204744
0.00178783
0.00153924
0.0013005
0.00107033
0.000847416
0.00063037
0.000417763
0.000208134
0
0
0.000238358
0.000478427
0.000721906
0.00097047
0.00122575
0.00148934
0.00176275
0.00204744
0.00234475
0.00265593
0.00298213
0.00332434
0.00368343
0.00406011
0.0044549
0.00486818
0.00530011
0.00575065
0.00621956
0.00670638
0.00721043
0.00773078
0.00826631
0.00881564
0.00937717
0.00994908
0.0105293
0.0111157
0.0117058
0.012297
0.0128864
0.0134714
0.0140488
0.0146155
0.0151685
0.0157045
0.0162203
0.016713
0.0171793
0.0176163
0.0180212
0.0183913
0.0187242
0.0190175
0.0192692
0.0194776
0.0196413
0.019759
0.01983
0.0198537
0.01983
0.019759
0.0196413
0.0194776
0.0192692
0.0190175
0.0187242
0.0183913
0.0180212
0.0176163
0.0171793
0.016713
0.0162203
0.0157045
0.0151685
0.0146155
0.0140488
0.0134714
0.0128864
0.012297
0.0117058
0.0111157
0.0105293
0.00994908
0.00937717
0.00881564
0.00826631
0.00773078
0.00721043
0.00670638
0.00621956
0.00575065
0.00530011
0.00486818
0.0044549
0.00406011
0.00368343
0.00332434
0.00298213
0.00265593
0.00234475
0.00204744
0.00176275
0.00148934
0.00122575
0.00097047
0.000721906
0.000478427
0.000238358
0
0
0.000269992
0.000541922
0.000817715
0.00109927
0.00138843
0.001687
0.0019967
0.00231917
0.00265593
0.00300842
0.00337791
0.00376553
0.00417228
0.00459895
0.00504614
0.00551427
0.00600352
0.00651385
0.007045
0.00759643
0.00816736
0.00875678
0.00936338
0.00998561
0.0106217
0.0112695
0.0119268
0.012591
0.0132593
0.013929
0.0145967
0.0152593
0.0159133
0.0165552
0.0171816
0.0177887
0.018373
0.0189311
0.0194593
0.0199543
0.0204129
0.0208322
0.0212092
0.0215414
0.0218265
0.0220626
0.022248
0.0223814
0.0224618
0.0224886
0.0224618
0.0223814
0.022248
0.0220626
0.0218265
0.0215414
0.0212092
0.0208322
0.0204129
0.0199543
0.0194593
0.0189311
0.018373
0.0177887
0.0171816
0.0165552
0.0159133
0.0152593
0.0145967
0.013929
0.0132593
0.012591
0.0119268
0.0112695
0.0106217
0.00998561
0.00936338
0.00875678
0.00816736
0.00759643
0.007045
0.00651385
0.00600352
0.00551427
0.00504614
0.00459895
0.00417228
0.00376553
0.00337791
0.00300842
0.00265593
0.00231917
0.0019967
0.001687
0.00138843
0.00109927
0.000817715
0.000541922
0.000269992
0
0
0.000303151
0.000608479
0.000918145
0.00123428
0.00155895
0.00189419
0.00224193
0.002604
0.00298213
0.00337791
0.00379277
0.00422801
0.00468471
0.00516378
0.0056659
0.00619152
0.00674086
0.00731387
0.00791025
0.0085294
0.00917046
0.00983227
0.0105134
0.011212
0.0119262
0.0126536
0.0133916
0.0141374
0.0148878
0.0156397
0.0163894
0.0171334
0.0178677
0.0185885
0.0192918
0.0199735
0.0206296
0.0212561
0.0218492
0.022405
0.02292
0.0233907
0.023814
0.0241871
0.0245072
0.0247723
0.0249805
0.0251302
0.0252205
0.0252506
0.0252205
0.0251302
0.0249805
0.0247723
0.0245072
0.0241871
0.023814
0.0233907
0.02292
0.022405
0.0218492
0.0212561
0.0206296
0.0199735
0.0192918
0.0185885
0.0178677
0.0171334
0.0163894
0.0156397
0.0148878
0.0141374
0.0133916
0.0126536
0.0119262
0.011212
0.0105134
0.00983227
0.00917046
0.0085294
0.00791025
0.00731387
0.00674086
0.00619152
0.0056659
0.00516378
0.00468471
0.00422801
0.00379277
0.00337791
0.00298213
0.002604
0.00224193
0.00189419
0.00155895
0.00123428
0.000918145
0.000608479
0.000303151
0
0
0.000337939
0.000678305
0.00102351
0.00137591
0.00173785
0.00211156
0.0024992
0.00290282
0.00332434
0.00376553
0.00422801
0.00471319
0.00522231
0.00575635
0.00631609
0.00690202
0.0075144
0.00815317
0.00881798
0.00950819
0.0102228
0.0109606
0.0117198
0.0124987
0.0132948
0.0141056
0.0149283
0.0157597
0.0165963
0.0174344
0.0182702
0.0190995
0.0199181
0.0207216
0.0215056
0.0222655
0.0229969
0.0236954
0.0243565
0.0249761
0.0255502
0.0260749
0.0265468
0.0269626
0.0273195
0.027615
0.0278471
0.028014
0.0281146
0.0281482
0.0281146
0.028014
0.0278471
0.027615
0.0273195
0.0269626
0.0265468
0.0260749
0.0255502
0.0249761
0.0243565
0.0236954
0.0229969
0.0222655
0.0215056
0.0207216
0.0199181
0.0190995
0.0182702
0.0174344
0.0165963
0.0157597
0.0149283
0.0141056
0.0132948
0.0124987
0.0117198
0.0109606
0.0102228
0.00950819
0.00881798
0.00815317
0.0075144
0.00690202
0.00631609
0.00575635
0.00522231
0.00471319
0.00422801
0.00376553
0.00332434
0.00290282
0.0024992
0.00211156
0.00173785
0.00137591
0.00102351
0.000678305
0.000337939
0
0
0.000374443
0.000751575
0.00113406
0.00152454
0.00192557
0.00233965
0.00276916
0.00321638
0.00368343
0.00417228
0.00468471
0.00522231
0.00578641
0.00637814
0.00699834
0.00764757
0.0083261
0.00903386
0.00977049
0.0105353
0.0113271
0.0121445
0.0129858
0.0138487
0.0147309
0.0156293
0.0165409
0.017462
0.018389
0.0193176
0.0202437
0.0211626
0.0220696
0.0229599
0.0238286
0.0246706
0.025481
0.0262549
0.0269875
0.027674
0.0283101
0.0288915
0.0294144
0.0298751
0.0302706
0.030598
0.0308551
0.03104
0.0311515
0.0311888
0.0311515
0.03104
0.0308551
0.030598
0.0302706
0.0298751
0.0294144
0.0288915
0.0283101
0.027674
0.0269875
0.0262549
0.025481
0.0246706
0.0238286
0.0229599
0.0220696
0.0211626
0.0202437
0.0193176
0.018389
0.017462
0.0165409
0.0156293
0.0147309
0.0138487
0.0129858
0.0121445
0.0113271
0.0105353
0.00977049
0.00903386
0.0083261
0.00764757
0.00699834
0.00637814
0.00578641
0.00522231
0.00468471
0.00417228
0.00368343
0.00321638
0.00276916
0.00233965
0.00192557
0.00152454
0.00113406
0.000751575
0.000374443
0
0
0.000412734
0.000828432
0.00125004
0.00168044
0.00212248
0.00257891
0.00305234
0.00354529
0.00406011
0.00459895
0.00516378
0.00575635
0.00637814
0.00703038
0.007714
0.00842963
0.00917754
0.00995769
0.0107696
0.0116126
0.0124854
0.0133864
0.0143137
0.0152649
0.0162373
0.0172276
0.0182324
0.0192477
0.0202695
0.0212931
0.0223139
0.0233267
0.0243265
0.0253079
0.0262653
0.0271935
0.0280868
0.0289398
0.0297472
0.030504
0.0312051
0.031846
0.0324223
0.0329302
0.0333661
0.033727
0.0340104
0.0342142
0.0343371
0.0343782
0.0343371
0.0342142
0.0340104
0.033727
0.0333661
0.0329302
0.0324223
0.031846
0.0312051
0.030504
0.0297472
0.0289398
0.0280868
0.0271935
0.0262653
0.0253079
0.0243265
0.0233267
0.0223139
0.0212931
0.0202695
0.0192477
0.0182324
0.0172276
0.0162373
0.0152649
0.0143137
0.0133864
0.0124854
0.0116126
0.0107696
0.00995769
0.00917754
0.00842963
0.007714
0.00703038
0.00637814
0.00575635
0.00516378
0.00459895
0.00406011
0.00354529
0.00305234
0.00257891
0.00212248
0.00168044
0.00125004
0.000828432
0.000412734
0
0
0.000452868
0.000908987
0.00137159
0.00184384
0.00232887
0.00282967
0.00334915
0.00389003
0.0044549
0.00504614
0.0056659
0.00631609
0.00699834
0.007714
0.0084641
0.00924931
0.0100699
0.010926
0.0118169
0.0127418
0.0136995
0.0146881
0.0157056
0.0167493
0.0178162
0.0189028
0.0200052
0.0211193
0.0222404
0.0233636
0.0244836
0.025595
0.026692
0.0277687
0.0288193
0.0298377
0.0308179
0.0317538
0.0326398
0.0334701
0.0342394
0.0349426
0.035575
0.0361323
0.0366105
0.0370065
0.0373175
0.0375412
0.037676
0.0377211
0.037676
0.0375412
0.0373175
0.0370065
0.0366105
0.0361323
0.035575
0.0349426
0.0342394
0.0334701
0.0326398
0.0317538
0.0308179
0.0298377
0.0288193
0.0277687
0.026692
0.025595
0.0244836
0.0233636
0.0222404
0.0211193
0.0200052
0.0189028
0.0178162
0.0167493
0.0157056
0.0146881
0.0136995
0.0127418
0.0118169
0.010926
0.0100699
0.00924931
0.0084641
0.007714
0.00699834
0.00631609
0.0056659
0.00504614
0.0044549
0.00389003
0.00334915
0.00282967
0.00232887
0.00184384
0.00137159
0.000908987
0.000452868
0
0
0.00049488
0.000993313
0.00149883
0.0020149
0.00254492
0.00309218
0.00365984
0.00425091
0.00486818
0.00551427
0.00619152
0.00690202
0.00764757
0.00842963
0.00924931
0.0101074
0.0110041
0.0119395
0.0129131
0.0139238
0.0149703
0.0160507
0.0171626
0.0183031
0.0194689
0.0206564
0.0218611
0.0230786
0.0243037
0.025531
0.0267549
0.0279694
0.0291682
0.0303448
0.0314929
0.0326057
0.0336768
0.0346996
0.0356678
0.0365751
0.0374158
0.0381842
0.0388753
0.0394842
0.0400069
0.0404396
0.0407794
0.0410238
0.0411712
0.0412204
0.0411712
0.0410238
0.0407794
0.0404396
0.0400069
0.0394842
0.0388753
0.0381842
0.0374158
0.0365751
0.0356678
0.0346996
0.0336768
0.0326057
0.0314929
0.0303448
0.0291682
0.0279694
0.0267549
0.025531
0.0243037
0.0230786
0.0218611
0.0206564
0.0194689
0.0183031
0.0171626
0.0160507
0.0149703
0.0139238
0.0129131
0.0119395
0.0110041
0.0101074
0.00924931
0.00842963
0.00764757
0.00690202
0.00619152
0.00551427
0.00486818
0.00425091
0.00365984
0.00309218
0.00254492
0.0020149
0.00149883
0.000993313
0.00049488
0
0
0.000538788
0.00108144
0.00163181
0.00219367
0.00277071
0.00336653
0.00398456
0.00462807
0.00530011
0.00600352
0.00674086
0.0075144
0.0083261
0.00917754
0.0100699
0.0110041
0.0119805
0.0129989
0.0140588
0.0151592
0.0162986
0.0174748
0.0186853
0.019927
0.0211963
0.0224891
0.0238007
0.0251262
0.02646
0.0277963
0.0291288
0.030451
0.0317561
0.0330372
0.0342871
0.0354987
0.0366648
0.0377783
0.0388324
0.0398203
0.0407355
0.0415721
0.0423245
0.0429874
0.0435565
0.0440276
0.0443975
0.0446636
0.0448241
0.0448777
0.0448241
0.0446636
0.0443975
0.0440276
0.0435565
0.0429874
0.0423245
0.0415721
0.0407355
0.0398203
0.0388324
0.0377783
0.0366648
0.0354987
0.0342871
0.0330372
0.0317561
0.030451
0.0291288
0.0277963
0.02646
0.0251262
0.0238007
0.0224891
0.0211963
0.019927
0.0186853
0.0174748
0.0162986
0.0151592
0.0140588
0.0129989
0.0119805
0.0110041
0.0100699
0.00917754
0.0083261
0.0075144
0.00674086
0.00600352
0.00530011
0.00462807
0.00398456
0.00336653
0.00277071
0.00219367
0.00163181
0.00108144
0.000538788
0
0
0.000584588
0.00117337
0.00177052
0.00238014
0.00300624
0.00365271
0.00432327
0.00502148
0.00575065
0.00651385
0.00731387
0.00815317
0.00903386
0.00995769
0.010926
0.0119395
0.0129989
0.0141039
0.0152539
0.0164479
0.0176841
0.0189603
0.0202737
0.0216209
0.0229981
0.0244008
0.0258239
0.0272621
0.0287092
0.0301591
0.0316049
0.0330395
0.0344555
0.0358455
0.0372017
0.0385163
0.0397815
0.0409897
0.0421334
0.0432052
0.0441983
0.045106
0.0459223
0.0466416
0.047259
0.0477702
0.0481716
0.0484603
0.0486344
0.0486926
0.0486344
0.0484603
0.0481716
0.0477702
0.047259
0.0466416
0.0459223
0.045106
0.0441983
0.0432052
0.0421334
0.0409897
0.0397815
0.0385163
0.0372017
0.0358455
0.0344555
0.0330395
0.0316049
0.0301591
0.0287092
0.0272621
0.0258239
0.0244008
0.0229981
0.0216209
0.0202737
0.0189603
0.0176841
0.0164479
0.0152539
0.0141039
0.0129989
0.0119395
0.010926
0.00995769
0.00903386
0.00815317
0.00731387
0.00651385
0.00575065
0.00502148
0.00432327
0.00365271
0.00300624
0.00238014
0.00177052
0.00117337
0.000584588
0
0
0.000632256
0.00126905
0.00191489
0.00257422
0.00325137
0.00395055
0.00467579
0.00543093
0.00621956
0.007045
0.00791025
0.00881798
0.00977049
0.0107696
0.0118169
0.0129131
0.0140588
0.0152539
0.0164977
0.017789
0.019126
0.0205063
0.0219268
0.0233839
0.0248734
0.0263904
0.0279296
0.029485
0.0310502
0.0326183
0.034182
0.0357335
0.0372651
0.0387684
0.0402351
0.0416569
0.0430253
0.044332
0.0455689
0.0467282
0.0478022
0.048784
0.0496668
0.0504448
0.0511125
0.0516654
0.0520995
0.0524118
0.0526001
0.052663
0.0526001
0.0524118
0.0520995
0.0516654
0.0511125
0.0504448
0.0496668
0.048784
0.0478022
0.0467282
0.0455689
0.044332
0.0430253
0.0416569
0.0402351
0.0387684
0.0372651
0.0357335
0.034182
0.0326183
0.0310502
0.029485
0.0279296
0.0263904
0.0248734
0.0233839
0.0219268
0.0205063
0.019126
0.017789
0.0164977
0.0152539
0.0140588
0.0129131
0.0118169
0.0107696
0.00977049
0.00881798
0.00791025
0.007045
0.00621956
0.00543093
0.00467579
0.00395055
0.00325137
0.00257422
0.00191489
0.00126905
0.000632256
0
0
0.000681744
0.00136838
0.00206478
0.00277571
0.00350586
0.00425977
0.00504178
0.00585603
0.00670638
0.00759643
0.0085294
0.00950819
0.0105353
0.0116126
0.0127418
0.0139238
0.0151592
0.0164479
0.017789
0.0191814
0.0206231
0.0221114
0.0236431
0.0252142
0.0268203
0.0284561
0.0301157
0.0317929
0.0334806
0.0351714
0.0368575
0.0385305
0.0401819
0.0418029
0.0433844
0.0449175
0.046393
0.047802
0.0491357
0.0503857
0.0515438
0.0526024
0.0535544
0.0543932
0.0551132
0.0557094
0.0561775
0.0565142
0.0567172
0.056785
0.0567172
0.0565142
0.0561775
0.0557094
0.0551132
0.0543932
0.0535544
0.0526024
0.0515438
0.0503857
0.0491357
0.047802
0.046393
0.0449175
0.0433844
0.0418029
0.0401819
0.0385305
0.0368575
0.0351714
0.0334806
0.0317929
0.0301157
0.0284561
0.0268203
0.0252142
0.0236431
0.0221114
0.0206231
0.0191814
0.017789
0.0164479
0.0151592
0.0139238
0.0127418
0.0116126
0.0105353
0.00950819
0.0085294
0.00759643
0.00670638
0.00585603
0.00504178
0.00425977
0.00350586
0.00277571
0.00206478
0.00136838
0.000681744
0
0
0.000732983
0.00147123
0.00221996
0.00298433
0.00376936
0.00457993
0.00542072
0.00629616
0.00721043
0.00816736
0.00917046
0.0102228
0.0113271
0.0124854
0.0136995
0.0149703
0.0162986
0.0176841
0.019126
0.0206231
0.0221731
0.0237732
0.0254201
0.0271093
0.0288361
0.0305948
0.0323792
0.0341824
0.035997
0.0378149
0.0396276
0.0414264
0.0432019
0.0449447
0.0466451
0.0482934
0.0498798
0.0513947
0.0528287
0.0541726
0.0554178
0.0565559
0.0575795
0.0584814
0.0592555
0.0598964
0.0603997
0.0607617
0.06098
0.0610529
0.06098
0.0607617
0.0603997
0.0598964
0.0592555
0.0584814
0.0575795
0.0565559
0.0554178
0.0541726
0.0528287
0.0513947
0.0498798
0.0482934
0.0466451
0.0449447
0.0432019
0.0414264
0.0396276
0.0378149
0.035997
0.0341824
0.0323792
0.0305948
0.0288361
0.0271093
0.0254201
0.0237732
0.0221731
0.0206231
0.019126
0.0176841
0.0162986
0.0149703
0.0136995
0.0124854
0.0113271
0.0102228
0.00917046
0.00816736
0.00721043
0.00629616
0.00542072
0.00457993
0.00376936
0.00298433
0.00221996
0.00147123
0.000732983
0
0
0.00078588
0.0015774
0.00238017
0.0031997
0.00404139
0.00491045
0.00581191
0.00675054
0.00773078
0.00875678
0.00983227
0.0109606
0.0121445
0.0133864
0.0146881
0.0160507
0.0174748
0.0189603
0.0205063
0.0221114
0.0237732
0.0254889
0.0272546
0.0290657
0.0309171
0.0328028
0.0347159
0.0366493
0.0385948
0.0405438
0.0424874
0.044416
0.0463197
0.0481883
0.0500114
0.0517786
0.0534795
0.0551038
0.0566412
0.0580821
0.0594171
0.0606374
0.0617348
0.0627018
0.0635318
0.064219
0.0647586
0.0651468
0.0653808
0.065459
0.0653808
0.0651468
0.0647586
0.064219
0.0635318
0.0627018
0.0617348
0.0606374
0.0594171
0.0580821
0.0566412
0.0551038
0.0534795
0.0517786
0.0500114
0.0481883
0.0463197
0.044416
0.0424874
0.0405438
0.0385948
0.0366493
0.0347159
0.0328028
0.0309171
0.0290657
0.0272546
0.0254889
0.0237732
0.0221114
0.0205063
0.0189603
0.0174748
0.0160507
0.0146881
0.0133864
0.0121445
0.0109606
0.00983227
0.00875678
0.00773078
0.00675054
0.00581191
0.00491045
0.00404139
0.0031997
0.00238017
0.0015774
0.00078588
0
0
0.00084032
0.00168667
0.00254505
0.00342135
0.00432134
0.00525061
0.00621452
0.00721816
0.00826631
0.00936338
0.0105134
0.0117198
0.0129858
0.0143137
0.0157056
0.0171626
0.0186853
0.0202737
0.0219268
0.0236431
0.0254201
0.0272546
0.0291425
0.0310792
0.0330588
0.0350751
0.0371208
0.039188
0.0412683
0.0433524
0.0454306
0.0474928
0.0495283
0.0515264
0.0534758
0.0553654
0.0571842
0.0589209
0.0605649
0.0621056
0.0635331
0.0648379
0.0660113
0.0670453
0.0679328
0.0686676
0.0692445
0.0696596
0.0699098
0.0699934
0.0699098
0.0696596
0.0692445
0.0686676
0.0679328
0.0670453
0.0660113
0.0648379
0.0635331
0.0621056
0.0605649
0.0589209
0.0571842
0.0553654
0.0534758
0.0515264
0.0495283
0.0474928
0.0454306
0.0433524
0.0412683
0.039188
0.0371208
0.0350751
0.0330588
0.0310792
0.0291425
0.0272546
0.0254201
0.0236431
0.0219268
0.0202737
0.0186853
0.0171626
0.0157056
0.0143137
0.0129858
0.0117198
0.0105134
0.00936338
0.00826631
0.00721816
0.00621452
0.00525061
0.00432134
0.00342135
0.00254505
0.00168667
0.00084032
0
0
0.000896162
0.00179876
0.00271418
0.00364871
0.00460851
0.00559953
0.00662749
0.00769783
0.00881564
0.00998561
0.011212
0.0124987
0.0138487
0.0152649
0.0167493
0.0183031
0.019927
0.0216209
0.0233839
0.0252142
0.0271093
0.0290657
0.0310792
0.0331445
0.0352557
0.0374059
0.0395876
0.0417922
0.0440107
0.0462333
0.0484497
0.0506489
0.0528197
0.0549505
0.0570295
0.0590447
0.0609843
0.0628364
0.0645897
0.0662328
0.0677551
0.0691466
0.070398
0.0715007
0.0724472
0.0732308
0.0738461
0.0742888
0.0745556
0.0746448
0.0745556
0.0742888
0.0738461
0.0732308
0.0724472
0.0715007
0.070398
0.0691466
0.0677551
0.0662328
0.0645897
0.0628364
0.0609843
0.0590447
0.0570295
0.0549505
0.0528197
0.0506489
0.0484497
0.0462333
0.0440107
0.0417922
0.0395876
0.0374059
0.0352557
0.0331445
0.0310792
0.0290657
0.0271093
0.0252142
0.0233839
0.0216209
0.019927
0.0183031
0.0167493
0.0152649
0.0138487
0.0124987
0.011212
0.00998561
0.00881564
0.00769783
0.00662749
0.00559953
0.00460851
0.00364871
0.00271418
0.00179876
0.000896162
0
0
0.000953245
0.00191334
0.00288706
0.00388112
0.00490206
0.0059562
0.00704965
0.00818816
0.00937717
0.0106217
0.0119262
0.0132948
0.0147309
0.0162373
0.0178162
0.0194689
0.0211963
0.0229981
0.0248734
0.0268203
0.0288361
0.0309171
0.0330588
0.0352557
0.0375014
0.0397886
0.0421092
0.0444543
0.0468141
0.0491783
0.0515358
0.0538751
0.0561841
0.0584507
0.0606621
0.0628057
0.0648688
0.0668389
0.0687038
0.0704516
0.0720709
0.0735511
0.0748822
0.0760551
0.0770618
0.0778954
0.0785499
0.0790207
0.0793046
0.0793994
0.0793046
0.0790207
0.0785499
0.0778954
0.0770618
0.0760551
0.0748822
0.0735511
0.0720709
0.0704516
0.0687038
0.0668389
0.0648688
0.0628057
0.0606621
0.0584507
0.0561841
0.0538751
0.0515358
0.0491783
0.0468141
0.0444543
0.0421092
0.0397886
0.0375014
0.0352557
0.0330588
0.0309171
0.0288361
0.0268203
0.0248734
0.0229981
0.0211963
0.0194689
0.0178162
0.0162373
0.0147309
0.0132948
0.0119262
0.0106217
0.00937717
0.00818816
0.00704965
0.0059562
0.00490206
0.00388112
0.00288706
0.00191334
0.000953245
0
0
0.00101138
0.00203003
0.00306315
0.00411783
0.00520103
0.00631947
0.0074796
0.00868756
0.00994908
0.0112695
0.0126536
0.0141056
0.0156293
0.0172276
0.0189028
0.0206564
0.0224891
0.0244008
0.0263904
0.0284561
0.0305948
0.0328028
0.0350751
0.0374059
0.0397886
0.0422153
0.0446774
0.0471655
0.0496693
0.0521776
0.0546789
0.0571609
0.0596108
0.0620156
0.0643618
0.0666362
0.0688251
0.0709154
0.0728941
0.0747484
0.0764665
0.078037
0.0794492
0.0806937
0.0817618
0.0826462
0.0833406
0.0838402
0.0841414
0.084242
0.0841414
0.0838402
0.0833406
0.0826462
0.0817618
0.0806937
0.0794492
0.078037
0.0764665
0.0747484
0.0728941
0.0709154
0.0688251
0.0666362
0.0643618
0.0620156
0.0596108
0.0571609
0.0546789
0.0521776
0.0496693
0.0471655
0.0446774
0.0422153
0.0397886
0.0374059
0.0350751
0.0328028
0.0305948
0.0284561
0.0263904
0.0244008
0.0224891
0.0206564
0.0189028
0.0172276
0.0156293
0.0141056
0.0126536
0.0112695
0.00994908
0.00868756
0.0074796
0.00631947
0.00520103
0.00411783
0.00306315
0.00203003
0.00101138
0
0
0.00107037
0.00214843
0.0032418
0.004358
0.00550438
0.00668805
0.00791584
0.00919425
0.0105293
0.0119268
0.0133916
0.0149283
0.0165409
0.0182324
0.0200052
0.0218611
0.0238007
0.0258239
0.0279296
0.0301157
0.0323792
0.0347159
0.0371208
0.0395876
0.0421092
0.0446774
0.0472832
0.0499164
0.0525662
0.0552208
0.057868
0.0604947
0.0630875
0.0656325
0.0681156
0.0705226
0.0728393
0.0750515
0.0771455
0.079108
0.0809263
0.0825883
0.084083
0.0854
0.0865305
0.0874664
0.0882014
0.0887301
0.0890488
0.0891553
0.0890488
0.0887301
0.0882014
0.0874664
0.0865305
0.0854
0.084083
0.0825883
0.0809263
0.079108
0.0771455
0.0750515
0.0728393
0.0705226
0.0681156
0.0656325
0.0630875
0.0604947
0.057868
0.0552208
0.0525662
0.0499164
0.0472832
0.0446774
0.0421092
0.0395876
0.0371208
0.0347159
0.0323792
0.0301157
0.0279296
0.0258239
0.0238007
0.0218611
0.0200052
0.0182324
0.0165409
0.0149283
0.0133916
0.0119268
0.0105293
0.00919425
0.00791584
0.00668805
0.00550438
0.004358
0.0032418
0.00214843
0.00107037
0
0
0.00112998
0.00226807
0.00342234
0.0046007
0.00581092
0.00706051
0.00835668
0.00970628
0.0111157
0.012591
0.0141374
0.0157597
0.017462
0.0192477
0.0211193
0.0230786
0.0251262
0.0272621
0.029485
0.0317929
0.0341824
0.0366493
0.039188
0.0417922
0.0444543
0.0471655
0.0499164
0.0526962
0.0554936
0.0582961
0.0610907
0.0638637
0.0666009
0.0692876
0.071909
0.07445
0.0768957
0.0792311
0.0814417
0.0835136
0.0854331
0.0871877
0.0887656
0.090156
0.0913494
0.0923374
0.0931133
0.0936714
0.0940079
0.0941203
0.0940079
0.0936714
0.0931133
0.0923374
0.0913494
0.090156
0.0887656
0.0871877
0.0854331
0.0835136
0.0814417
0.0792311
0.0768957
0.07445
0.071909
0.0692876
0.0666009
0.0638637
0.0610907
0.0582961
0.0554936
0.0526962
0.0499164
0.0471655
0.0444543
0.0417922
0.039188
0.0366493
0.0341824
0.0317929
0.029485
0.0272621
0.0251262
0.0230786
0.0211193
0.0192477
0.017462
0.0157597
0.0141374
0.012591
0.0111157
0.00970628
0.00835668
0.00706051
0.00581092
0.0046007
0.00342234
0.00226807
0.00112998
0
0
0.00118996
0.00238847
0.00360401
0.00484492
0.00611938
0.00743531
0.00880028
0.0102215
0.0117058
0.0132593
0.0148878
0.0165963
0.018389
0.0202695
0.0222404
0.0243037
0.02646
0.0287092
0.0310502
0.0334806
0.035997
0.0385948
0.0412683
0.0440107
0.0468141
0.0496693
0.0525662
0.0554936
0.0584394
0.0613907
0.0643336
0.0672538
0.0701363
0.0729657
0.0757262
0.0784022
0.0809776
0.083437
0.085765
0.0879468
0.0899683
0.091816
0.0934776
0.0949418
0.0961986
0.0972391
0.0980561
0.0986439
0.0989983
0.0991166
0.0989983
0.0986439
0.0980561
0.0972391
0.0961986
0.0949418
0.0934776
0.091816
0.0899683
0.0879468
0.085765
0.083437
0.0809776
0.0784022
0.0757262
0.0729657
0.0701363
0.0672538
0.0643336
0.0613907
0.0584394
0.0554936
0.0525662
0.0496693
0.0468141
0.0440107
0.0412683
0.0385948
0.035997
0.0334806
0.0310502
0.0287092
0.02646
0.0243037
0.0222404
0.0202695
0.018389
0.0165963
0.0148878
0.0132593
0.0117058
0.0102215
0.00880028
0.00743531
0.00611938
0.00484492
0.00360401
0.00238847
0.00118996
0
0
0.00125006
0.00250909
0.00378601
0.0050896
0.00642842
0.0078108
0.00924471
0.0107377
0.012297
0.013929
0.0156397
0.0174344
0.0193176
0.0212931
0.0233636
0.025531
0.0277963
0.0301591
0.0326183
0.0351714
0.0378149
0.0405438
0.0433524
0.0462333
0.0491783
0.0521776
0.0552208
0.0582961
0.0613907
0.064491
0.0675826
0.0706503
0.0736783
0.0766506
0.0795505
0.0823616
0.0850671
0.0876507
0.0900963
0.0923882
0.0945118
0.0964528
0.0981984
0.0997365
0.101057
0.10215
0.103008
0.103626
0.103998
0.104122
0.103998
0.103626
0.103008
0.10215
0.101057
0.0997365
0.0981984
0.0964528
0.0945118
0.0923882
0.0900963
0.0876507
0.0850671
0.0823616
0.0795505
0.0766506
0.0736783
0.0706503
0.0675826
0.064491
0.0613907
0.0582961
0.0552208
0.0521776
0.0491783
0.0462333
0.0433524
0.0405438
0.0378149
0.0351714
0.0326183
0.0301591
0.0277963
0.025531
0.0233636
0.0212931
0.0193176
0.0174344
0.0156397
0.013929
0.012297
0.0107377
0.00924471
0.0078108
0.00642842
0.0050896
0.00378601
0.00250909
0.00125006
0
0
0.00130998
0.00262938
0.00396751
0.00533358
0.00673659
0.00818523
0.00968788
0.0112525
0.0128864
0.0145967
0.0163894
0.0182702
0.0202437
0.0223139
0.0244836
0.0267549
0.0291288
0.0316049
0.034182
0.0368575
0.0396276
0.0424874
0.0454306
0.0484497
0.0515358
0.0546789
0.057868
0.0610907
0.0643336
0.0675826
0.0708224
0.0740371
0.0772103
0.080325
0.083364
0.0863098
0.0891451
0.0918525
0.0944153
0.0968172
0.0990425
0.101077
0.102906
0.104518
0.105901
0.107047
0.107946
0.108593
0.108983
0.109114
0.108983
0.108593
0.107946
0.107047
0.105901
0.104518
0.102906
0.101077
0.0990425
0.0968172
0.0944153
0.0918525
0.0891451
0.0863098
0.083364
0.080325
0.0772103
0.0740371
0.0708224
0.0675826
0.0643336
0.0610907
0.057868
0.0546789
0.0515358
0.0484497
0.0454306
0.0424874
0.0396276
0.0368575
0.034182
0.0316049
0.0291288
0.0267549
0.0244836
0.0223139
0.0202437
0.0182702
0.0163894
0.0145967
0.0128864
0.0112525
0.00968788
0.00818523
0.00673659
0.00533358
0.00396751
0.00262938
0.00130998
0
0
0.00136945
0.00274873
0.0041476
0.00557568
0.00704237
0.00855678
0.0101276
0.0117632
0.0134714
0.0152593
0.0171334
0.0190995
0.0211626
0.0233267
0.025595
0.0279694
0.030451
0.0330395
0.0357335
0.0385305
0.0414264
0.044416
0.0474928
0.0506489
0.0538751
0.0571609
0.0604947
0.0638637
0.0672538
0.0706503
0.0740371
0.0773978
0.080715
0.0839711
0.0871481
0.0902276
0.0931915
0.0960218
0.098701
0.101212
0.103538
0.105665
0.107577
0.109262
0.110708
0.111906
0.112846
0.113522
0.11393
0.114066
0.11393
0.113522
0.112846
0.111906
0.110708
0.109262
0.107577
0.105665
0.103538
0.101212
0.098701
0.0960218
0.0931915
0.0902276
0.0871481
0.0839711
0.080715
0.0773978
0.0740371
0.0706503
0.0672538
0.0638637
0.0604947
0.0571609
0.0538751
0.0506489
0.0474928
0.044416
0.0414264
0.0385305
0.0357335
0.0330395
0.030451
0.0279694
0.025595
0.0233267
0.0211626
0.0190995
0.0171334
0.0152593
0.0134714
0.0117632
0.0101276
0.00855678
0.00704237
0.00557568
0.0041476
0.00274873
0.00136945
0
0
0.00142814
0.00286654
0.00432537
0.00581466
0.00734421
0.00892352
0.0105617
0.0122674
0.0140488
0.0159133
0.0178677
0.0199181
0.0220696
0.0243265
0.026692
0.0291682
0.0317561
0.0344555
0.0372651
0.0401819
0.0432019
0.0463197
0.0495283
0.0528197
0.0561841
0.0596108
0.0630875
0.0666009
0.0701363
0.0736783
0.0772103
0.080715
0.0841744
0.0875701
0.0908832
0.0940947
0.0971857
0.100137
0.102931
0.10555
0.107976
0.110193
0.112188
0.113945
0.115453
0.116702
0.117683
0.118388
0.118813
0.118955
0.118813
0.118388
0.117683
0.116702
0.115453
0.113945
0.112188
0.110193
0.107976
0.10555
0.102931
0.100137
0.0971857
0.0940947
0.0908832
0.0875701
0.0841744
0.080715
0.0772103
0.0736783
0.0701363
0.0666009
0.0630875
0.0596108
0.0561841
0.0528197
0.0495283
0.0463197
0.0432019
0.0401819
0.0372651
0.0344555
0.0317561
0.0291682
0.026692
0.0243265
0.0220696
0.0199181
0.0178677
0.0159133
0.0140488
0.0122674
0.0105617
0.00892352
0.00734421
0.00581466
0.00432537
0.00286654
0.00142814
0
0
0.00148575
0.00298218
0.00449986
0.00604922
0.00764048
0.0092835
0.0109878
0.0127623
0.0146155
0.0165552
0.0185885
0.0207216
0.0229599
0.0253079
0.0277687
0.0303448
0.0330372
0.0358455
0.0387684
0.0418029
0.0449447
0.0481883
0.0515264
0.0549505
0.0584507
0.0620156
0.0656325
0.0692876
0.0729657
0.0766506
0.080325
0.0839711
0.0875701
0.0911028
0.0945495
0.0978906
0.101106
0.104177
0.107084
0.109808
0.112332
0.114639
0.116713
0.118542
0.120111
0.12141
0.12243
0.123164
0.123606
0.123754
0.123606
0.123164
0.12243
0.12141
0.120111
0.118542
0.116713
0.114639
0.112332
0.109808
0.107084
0.104177
0.101106
0.0978906
0.0945495
0.0911028
0.0875701
0.0839711
0.080325
0.0766506
0.0729657
0.0692876
0.0656325
0.0620156
0.0584507
0.0549505
0.0515264
0.0481883
0.0449447
0.0418029
0.0387684
0.0358455
0.0330372
0.0303448
0.0277687
0.0253079
0.0229599
0.0207216
0.0185885
0.0165552
0.0146155
0.0127623
0.0109878
0.0092835
0.00764048
0.00604922
0.00449986
0.00298218
0.00148575
0
0
0.00154197
0.003095
0.0046701
0.00627809
0.00792955
0.00963473
0.0114035
0.0132451
0.0151685
0.0171816
0.0192918
0.0215056
0.0238286
0.0262653
0.0288193
0.0314929
0.0342871
0.0372017
0.0402351
0.0433844
0.0466451
0.0500114
0.0534758
0.0570295
0.0606621
0.0643618
0.0681156
0.071909
0.0757262
0.0795505
0.083364
0.0871481
0.0908832
0.0945495
0.0981267
0.101594
0.104931
0.108118
0.111135
0.113962
0.116582
0.118976
0.121129
0.123026
0.124655
0.126003
0.127062
0.127824
0.128283
0.128436
0.128283
0.127824
0.127062
0.126003
0.124655
0.123026
0.121129
0.118976
0.116582
0.113962
0.111135
0.108118
0.104931
0.101594
0.0981267
0.0945495
0.0908832
0.0871481
0.083364
0.0795505
0.0757262
0.071909
0.0681156
0.0643618
0.0606621
0.0570295
0.0534758
0.0500114
0.0466451
0.0433844
0.0402351
0.0372017
0.0342871
0.0314929
0.0288193
0.0262653
0.0238286
0.0215056
0.0192918
0.0171816
0.0151685
0.0132451
0.0114035
0.00963473
0.00792955
0.00627809
0.0046701
0.003095
0.00154197
0
0
0.00159645
0.00320437
0.00483513
0.00649994
0.00820975
0.00997519
0.0118064
0.0137132
0.0157045
0.0177887
0.0199735
0.0222655
0.0246706
0.0271935
0.0298377
0.0326057
0.0354987
0.0385163
0.0416569
0.0449175
0.0482934
0.0517786
0.0553654
0.0590447
0.0628057
0.0666362
0.0705226
0.07445
0.0784022
0.0823616
0.0863098
0.0902276
0.0940947
0.0978906
0.101594
0.105184
0.108639
0.111939
0.115062
0.117989
0.120701
0.12318
0.125409
0.127374
0.12906
0.130456
0.131552
0.13234
0.132816
0.132975
0.132816
0.13234
0.131552
0.130456
0.12906
0.127374
0.125409
0.12318
0.120701
0.117989
0.115062
0.111939
0.108639
0.105184
0.101594
0.0978906
0.0940947
0.0902276
0.0863098
0.0823616
0.0784022
0.07445
0.0705226
0.0666362
0.0628057
0.0590447
0.0553654
0.0517786
0.0482934
0.0449175
0.0416569
0.0385163
0.0354987
0.0326057
0.0298377
0.0271935
0.0246706
0.0222655
0.0199735
0.0177887
0.0157045
0.0137132
0.0118064
0.00997519
0.00820975
0.00649994
0.00483513
0.00320437
0.00159645
0
0
0.0016489
0.00330963
0.00499396
0.00671345
0.00847944
0.0103029
0.0121943
0.0141636
0.0162203
0.018373
0.0206296
0.0229969
0.025481
0.0280868
0.0308179
0.0336768
0.0366648
0.0397815
0.0430253
0.046393
0.0498798
0.0534795
0.0571842
0.0609843
0.0648688
0.0688251
0.0728393
0.0768957
0.0809776
0.0850671
0.0891451
0.0931915
0.0971857
0.101106
0.104931
0.108639
0.112208
0.115616
0.118842
0.121865
0.124666
0.127226
0.129529
0.131558
0.133299
0.134741
0.135873
0.136688
0.137179
0.137343
0.137179
0.136688
0.135873
0.134741
0.133299
0.131558
0.129529
0.127226
0.124666
0.121865
0.118842
0.115616
0.112208
0.108639
0.104931
0.101106
0.0971857
0.0931915
0.0891451
0.0850671
0.0809776
0.0768957
0.0728393
0.0688251
0.0648688
0.0609843
0.0571842
0.0534795
0.0498798
0.046393
0.0430253
0.0397815
0.0366648
0.0336768
0.0308179
0.0280868
0.025481
0.0229969
0.0206296
0.018373
0.0162203
0.0141636
0.0121943
0.0103029
0.00847944
0.00671345
0.00499396
0.00330963
0.0016489
0
0
0.00169897
0.00341015
0.00514563
0.00691735
0.00873697
0.0106158
0.0125646
0.0145938
0.016713
0.0189311
0.0212561
0.0236954
0.0262549
0.0289398
0.0317538
0.0346996
0.0377783
0.0409897
0.044332
0.047802
0.0513947
0.0551038
0.0589209
0.0628364
0.0668389
0.0709154
0.0750515
0.0792311
0.083437
0.0876507
0.0918525
0.0960218
0.100137
0.104177
0.108118
0.111939
0.115616
0.119127
0.122451
0.125566
0.128452
0.131091
0.133463
0.135553
0.137348
0.138833
0.14
0.140839
0.141345
0.141514
0.141345
0.140839
0.14
0.138833
0.137348
0.135553
0.133463
0.131091
0.128452
0.125566
0.122451
0.119127
0.115616
0.111939
0.108118
0.104177
0.100137
0.0960218
0.0918525
0.0876507
0.083437
0.0792311
0.0750515
0.0709154
0.0668389
0.0628364
0.0589209
0.0551038
0.0513947
0.047802
0.044332
0.0409897
0.0377783
0.0346996
0.0317538
0.0289398
0.0262549
0.0236954
0.0212561
0.0189311
0.016713
0.0145938
0.0125646
0.0106158
0.00873697
0.00691735
0.00514563
0.00341015
0.00169897
0
0
0.00174638
0.0035053
0.0052892
0.00711035
0.00898074
0.010912
0.0129152
0.015001
0.0171793
0.0194593
0.0218492
0.0243565
0.0269875
0.0297472
0.0326398
0.0356678
0.0388324
0.0421334
0.0455689
0.0491357
0.0528287
0.0566412
0.0605649
0.0645897
0.0687038
0.0728941
0.0771455
0.0814417
0.085765
0.0900963
0.0944153
0.098701
0.102931
0.107084
0.111135
0.115062
0.118842
0.122451
0.125868
0.12907
0.132036
0.134748
0.137187
0.139336
0.14118
0.142707
0.143906
0.144769
0.145289
0.145462
0.145289
0.144769
0.143906
0.142707
0.14118
0.139336
0.137187
0.134748
0.132036
0.12907
0.125868
0.122451
0.118842
0.115062
0.111135
0.107084
0.102931
0.098701
0.0944153
0.0900963
0.085765
0.0814417
0.0771455
0.0728941
0.0687038
0.0645897
0.0605649
0.0566412
0.0528287
0.0491357
0.0455689
0.0421334
0.0388324
0.0356678
0.0326398
0.0297472
0.0269875
0.0243565
0.0218492
0.0194593
0.0171793
0.015001
0.0129152
0.010912
0.00898074
0.00711035
0.0052892
0.0035053
0.00174638
0
0
0.0017908
0.00359447
0.00542375
0.00729124
0.0092092
0.0111896
0.0132437
0.0153826
0.0176163
0.0199543
0.022405
0.0249761
0.027674
0.030504
0.0334701
0.0365751
0.0398203
0.0432052
0.0467282
0.0503857
0.0541726
0.0580821
0.0621056
0.0662328
0.0704516
0.0747484
0.079108
0.0835136
0.0879468
0.0923882
0.0968172
0.101212
0.10555
0.109808
0.113962
0.117989
0.121865
0.125566
0.12907
0.132353
0.135395
0.138176
0.140677
0.14288
0.144771
0.146337
0.147567
0.148451
0.148985
0.149163
0.148985
0.148451
0.147567
0.146337
0.144771
0.14288
0.140677
0.138176
0.135395
0.132353
0.12907
0.125566
0.121865
0.117989
0.113962
0.109808
0.10555
0.101212
0.0968172
0.0923882
0.0879468
0.0835136
0.079108
0.0747484
0.0704516
0.0662328
0.0621056
0.0580821
0.0541726
0.0503857
0.0467282
0.0432052
0.0398203
0.0365751
0.0334701
0.030504
0.027674
0.0249761
0.022405
0.0199543
0.0176163
0.0153826
0.0132437
0.0111896
0.0092092
0.00729124
0.00542375
0.00359447
0.0017908
0
0
0.00183197
0.00367709
0.00554842
0.00745882
0.00942087
0.0114468
0.0135482
0.0157362
0.0180212
0.0204129
0.02292
0.0255502
0.0283101
0.0312051
0.0342394
0.0374158
0.0407355
0.0441983
0.0478022
0.0515438
0.0554178
0.0594171
0.0635331
0.0677551
0.0720709
0.0764665
0.0809263
0.0854331
0.0899683
0.0945118
0.0990425
0.103538
0.107976
0.112332
0.116582
0.120701
0.124666
0.128452
0.132036
0.135395
0.138507
0.141352
0.14391
0.146164
0.148099
0.149701
0.150959
0.151864
0.152409
0.152591
0.152409
0.151864
0.150959
0.149701
0.148099
0.146164
0.14391
0.141352
0.138507
0.135395
0.132036
0.128452
0.124666
0.120701
0.116582
0.112332
0.107976
0.103538
0.0990425
0.0945118
0.0899683
0.0854331
0.0809263
0.0764665
0.0720709
0.0677551
0.0635331
0.0594171
0.0554178
0.0515438
0.0478022
0.0441983
0.0407355
0.0374158
0.0342394
0.0312051
0.0283101
0.0255502
0.02292
0.0204129
0.0180212
0.0157362
0.0135482
0.0114468
0.00942087
0.00745882
0.00554842
0.00367709
0.00183197
0
0
0.00186959
0.0037526
0.00566237
0.00761201
0.00961436
0.0116818
0.0138264
0.0160594
0.0183913
0.0208322
0.0233907
0.0260749
0.0288915
0.031846
0.0349426
0.0381842
0.0415721
0.045106
0.048784
0.0526024
0.0565559
0.0606374
0.0648379
0.0691466
0.0735511
0.078037
0.0825883
0.0871877
0.091816
0.0964528
0.101077
0.105665
0.110193
0.114639
0.118976
0.12318
0.127226
0.131091
0.134748
0.138176
0.141352
0.144255
0.146866
0.149166
0.151141
0.152775
0.154059
0.154983
0.155539
0.155725
0.155539
0.154983
0.154059
0.152775
0.151141
0.149166
0.146866
0.144255
0.141352
0.138176
0.134748
0.131091
0.127226
0.12318
0.118976
0.114639
0.110193
0.105665
0.101077
0.0964528
0.091816
0.0871877
0.0825883
0.078037
0.0735511
0.0691466
0.0648379
0.0606374
0.0565559
0.0526024
0.048784
0.045106
0.0415721
0.0381842
0.0349426
0.031846
0.0288915
0.0260749
0.0233907
0.0208322
0.0183913
0.0160594
0.0138264
0.0116818
0.00961436
0.00761201
0.00566237
0.0037526
0.00186959
0
0
0.00190342
0.00382052
0.00576484
0.00774977
0.00978835
0.0118933
0.0140766
0.01635
0.0187242
0.0212092
0.023814
0.0265468
0.0294144
0.0324223
0.035575
0.0388753
0.0423245
0.0459223
0.0496668
0.0535544
0.0575795
0.0617348
0.0660113
0.070398
0.0748822
0.0794492
0.084083
0.0887656
0.0934776
0.0981984
0.102906
0.107577
0.112188
0.116713
0.121129
0.125409
0.129529
0.133463
0.137187
0.140677
0.14391
0.146866
0.149523
0.151866
0.153876
0.15554
0.156847
0.157787
0.158354
0.158543
0.158354
0.157787
0.156847
0.15554
0.153876
0.151866
0.149523
0.146866
0.14391
0.140677
0.137187
0.133463
0.129529
0.125409
0.121129
0.116713
0.112188
0.107577
0.102906
0.0981984
0.0934776
0.0887656
0.084083
0.0794492
0.0748822
0.070398
0.0660113
0.0617348
0.0575795
0.0535544
0.0496668
0.0459223
0.0423245
0.0388753
0.035575
0.0324223
0.0294144
0.0265468
0.023814
0.0212092
0.0187242
0.01635
0.0140766
0.0118933
0.00978835
0.00774977
0.00576484
0.00382052
0.00190342
0
0
0.00193324
0.00388036
0.00585514
0.00787116
0.00994167
0.0120795
0.0142971
0.0166061
0.0190175
0.0215414
0.0241871
0.0269626
0.0298751
0.0329302
0.0361323
0.0394842
0.0429874
0.0466416
0.0504448
0.0543932
0.0584814
0.0627018
0.0670453
0.0715007
0.0760551
0.0806937
0.0854
0.090156
0.0949418
0.0997365
0.104518
0.109262
0.113945
0.118542
0.123026
0.127374
0.131558
0.135553
0.139336
0.14288
0.146164
0.149166
0.151866
0.154244
0.156286
0.157977
0.159304
0.160259
0.160835
0.161027
0.160835
0.160259
0.159304
0.157977
0.156286
0.154244
0.151866
0.149166
0.146164
0.14288
0.139336
0.135553
0.131558
0.127374
0.123026
0.118542
0.113945
0.109262
0.104518
0.0997365
0.0949418
0.090156
0.0854
0.0806937
0.0760551
0.0715007
0.0670453
0.0627018
0.0584814
0.0543932
0.0504448
0.0466416
0.0429874
0.0394842
0.0361323
0.0329302
0.0298751
0.0269626
0.0241871
0.0215414
0.0190175
0.0166061
0.0142971
0.0120795
0.00994167
0.00787116
0.00585514
0.00388036
0.00193324
0
0
0.00195883
0.00393173
0.00593265
0.00797535
0.0100733
0.0122394
0.0144864
0.0168259
0.0192692
0.0218265
0.0245072
0.0273195
0.0302706
0.0333661
0.0366105
0.0400069
0.0435565
0.047259
0.0511125
0.0551132
0.0592555
0.0635318
0.0679328
0.0724472
0.0770618
0.0817618
0.0865305
0.0913494
0.0961986
0.101057
0.105901
0.110708
0.115453
0.120111
0.124655
0.12906
0.133299
0.137348
0.14118
0.144771
0.148099
0.151141
0.153876
0.156286
0.158355
0.160068
0.161413
0.16238
0.162964
0.163158
0.162964
0.16238
0.161413
0.160068
0.158355
0.156286
0.153876
0.151141
0.148099
0.144771
0.14118
0.137348
0.133299
0.12906
0.124655
0.120111
0.115453
0.110708
0.105901
0.101057
0.0961986
0.0913494
0.0865305
0.0817618
0.0770618
0.0724472
0.0679328
0.0635318
0.0592555
0.0551132
0.0511125
0.047259
0.0435565
0.0400069
0.0366105
0.0333661
0.0302706
0.0273195
0.0245072
0.0218265
0.0192692
0.0168259
0.0144864
0.0122394
0.0100733
0.00797535
0.00593265
0.00393173
0.00195883
0
0
0.00198002
0.00397425
0.00599682
0.00806161
0.0101822
0.0123718
0.0146431
0.0170079
0.0194776
0.0220626
0.0247723
0.027615
0.030598
0.033727
0.0370065
0.0404396
0.0440276
0.0477702
0.0516654
0.0557094
0.0598964
0.064219
0.0686676
0.0732308
0.0778954
0.0826462
0.0874664
0.0923374
0.0972391
0.10215
0.107047
0.111906
0.116702
0.12141
0.126003
0.130456
0.134741
0.138833
0.142707
0.146337
0.149701
0.152775
0.15554
0.157977
0.160068
0.161799
0.163159
0.164137
0.164726
0.164923
0.164726
0.164137
0.163159
0.161799
0.160068
0.157977
0.15554
0.152775
0.149701
0.146337
0.142707
0.138833
0.134741
0.130456
0.126003
0.12141
0.116702
0.111906
0.107047
0.10215
0.0972391
0.0923374
0.0874664
0.0826462
0.0778954
0.0732308
0.0686676
0.064219
0.0598964
0.0557094
0.0516654
0.0477702
0.0440276
0.0404396
0.0370065
0.033727
0.030598
0.027615
0.0247723
0.0220626
0.0194776
0.0170079
0.0146431
0.0123718
0.0101822
0.00806161
0.00599682
0.00397425
0.00198002
0
0
0.00199665
0.00400765
0.0060472
0.00812935
0.0102678
0.0124758
0.0147661
0.0171508
0.0196413
0.022248
0.0249805
0.0278471
0.0308551
0.0340104
0.0373175
0.0407794
0.0443975
0.0481716
0.0520995
0.0561775
0.0603997
0.0647586
0.0692445
0.0738461
0.0785499
0.0833406
0.0882014
0.0931133
0.0980561
0.103008
0.107946
0.112846
0.117683
0.12243
0.127062
0.131552
0.135873
0.14
0.143906
0.147567
0.150959
0.154059
0.156847
0.159304
0.161413
0.163159
0.16453
0.165516
0.16611
0.166309
0.16611
0.165516
0.16453
0.163159
0.161413
0.159304
0.156847
0.154059
0.150959
0.147567
0.143906
0.14
0.135873
0.131552
0.127062
0.12243
0.117683
0.112846
0.107946
0.103008
0.0980561
0.0931133
0.0882014
0.0833406
0.0785499
0.0738461
0.0692445
0.0647586
0.0603997
0.0561775
0.0520995
0.0481716
0.0443975
0.0407794
0.0373175
0.0340104
0.0308551
0.0278471
0.0249805
0.022248
0.0196413
0.0171508
0.0147661
0.0124758
0.0102678
0.00812935
0.0060472
0.00400765
0.00199665
0
0
0.00200862
0.00403167
0.00608345
0.00817808
0.0103293
0.0125506
0.0148546
0.0172536
0.019759
0.0223814
0.0251302
0.028014
0.03104
0.0342142
0.0375412
0.0410238
0.0446636
0.0484603
0.0524118
0.0565142
0.0607617
0.0651468
0.0696596
0.0742888
0.0790207
0.0838402
0.0887301
0.0936714
0.0986439
0.103626
0.108593
0.113522
0.118388
0.123164
0.127824
0.13234
0.136688
0.140839
0.144769
0.148451
0.151864
0.154983
0.157787
0.160259
0.16238
0.164137
0.165516
0.166508
0.167106
0.167306
0.167106
0.166508
0.165516
0.164137
0.16238
0.160259
0.157787
0.154983
0.151864
0.148451
0.144769
0.140839
0.136688
0.13234
0.127824
0.123164
0.118388
0.113522
0.108593
0.103626
0.0986439
0.0936714
0.0887301
0.0838402
0.0790207
0.0742888
0.0696596
0.0651468
0.0607617
0.0565142
0.0524118
0.0484603
0.0446636
0.0410238
0.0375412
0.0342142
0.03104
0.028014
0.0251302
0.0223814
0.019759
0.0172536
0.0148546
0.0125506
0.0103293
0.00817808
0.00608345
0.00403167
0.00200862
0
0
0.00201584
0.00404615
0.00610531
0.00820746
0.0103664
0.0125956
0.014908
0.0173156
0.01983
0.0224618
0.0252205
0.0281146
0.0311515
0.0343371
0.037676
0.0411712
0.0448241
0.0486344
0.0526001
0.0567172
0.06098
0.0653808
0.0699098
0.0745556
0.0793046
0.0841414
0.0890488
0.0940079
0.0989983
0.103998
0.108983
0.11393
0.118813
0.123606
0.128283
0.132816
0.137179
0.141345
0.145289
0.148985
0.152409
0.155539
0.158354
0.160835
0.162964
0.164726
0.16611
0.167106
0.167706
0.167907
0.167706
0.167106
0.16611
0.164726
0.162964
0.160835
0.158354
0.155539
0.152409
0.148985
0.145289
0.141345
0.137179
0.132816
0.128283
0.123606
0.118813
0.11393
0.108983
0.103998
0.0989983
0.0940079
0.0890488
0.0841414
0.0793046
0.0745556
0.0699098
0.0653808
0.06098
0.0567172
0.0526001
0.0486344
0.0448241
0.0411712
0.037676
0.0343371
0.0311515
0.0281146
0.0252205
0.0224618
0.01983
0.0173156
0.014908
0.0125956
0.0103664
0.00820746
0.00610531
0.00404615
0.00201584
0
0
0.00201825
0.00405099
0.00611261
0.00821727
0.0103788
0.0126107
0.0149258
0.0173363
0.0198537
0.0224886
0.0252506
0.0281482
0.0311888
0.0343782
0.0377211
0.0412204
0.0448777
0.0486926
0.052663
0.056785
0.0610529
0.065459
0.0699934
0.0746448
0.0793994
0.084242
0.0891553
0.0941203
0.0991166
0.104122
0.109114
0.114066
0.118955
0.123754
0.128436
0.132975
0.137343
0.141514
0.145462
0.149163
0.152591
0.155725
0.158543
0.161027
0.163158
0.164923
0.166309
0.167306
0.167907
0.168108
0.167907
0.167306
0.166309
0.164923
0.163158
0.161027
0.158543
0.155725
0.152591
0.149163
0.145462
0.141514
0.137343
0.132975
0.128436
0.123754
0.118955
0.114066
0.109114
0.104122
0.0991166
0.0941203
0.0891553
0.084242
0.0793994
0.0746448
0.0699934
0.065459
0.0610529
0.056785
0.052663
0.0486926
0.0448777
0.0412204
0.0377211
0.0343782
0.0311888
0.0281482
0.0252506
0.0224886
0.0198537
0.0173363
0.0149258
0.0126107
0.0103788
0.00821727
0.00611261
0.00405099
0.00201825
0
0
0.00201584
0.00404615
0.00610531
0.00820746
0.0103664
0.0125956
0.014908
0.0173156
0.01983
0.0224618
0.0252205
0.0281146
0.0311515
0.0343371
0.037676
0.0411712
0.0448241
0.0486344
0.0526001
0.0567172
0.06098
0.0653808
0.0699098
0.0745556
0.0793046
0.0841414
0.0890488
0.0940079
0.0989983
0.103998
0.108983
0.11393
0.118813
0.123606
0.128283
0.132816
0.137179
0.141345
0.145289
0.148985
0.152409
0.155539
0.158354
0.160835
0.162964
0.164726
0.16611
0.167106
0.167706
0.167907
0.167706
0.167106
0.16611
0.164726
0.162964
0.160835
0.158354
0.155539
0.152409
0.148985
0.145289
0.141345
0.137179
0.132816
0.128283
0.123606
0.118813
0.11393
0.108983
0.103998
0.0989983
0.0940079
0.0890488
0.0841414
0.0793046
0.0745556
0.0699098
0.0653808
0.06098
0.0567172
0.0526001
0.0486344
0.0448241
0.0411712
0.037676
0.0343371
0.0311515
0.0281146
0.0252205
0.0224618
0.01983
0.0173156
0.014908
0.0125956
0.0103664
0.00820746
0.00610531
0.00404615
0.00201584
0
0
0.00200862
0.00403167
0.00608345
0.00817808
0.0103293
0.0125506
0.0148546
0.0172536
0.019759
0.0223814
0.0251302
0.028014
0.03104
0.0342142
0.0375412
0.0410238
0.0446636
0.0484603
0.0524118
0.0565142
0.0607617
0.0651468
0.0696596
0.0742888
0.0790207
0.0838402
0.0887301
0.0936714
0.0986439
0.103626
0.108593
0.113522
0.118388
0.123164
0.127824
0.13234
0.136688
0.140839
0.144769
0.148451
0.151864
0.154983
0.157787
0.160259
0.16238
0.164137
0.165516
0.166508
0.167106
0.167306
0.167106
0.166508
0.165516
0.164137
0.16238
0.160259
0.157787
0.154983
0.151864
0.148451
0.144769
0.140839
0.136688
0.13234
0.127824
0.123164
0.118388
0.113522
0.108593
0.103626
0.0986439
0.0936714
0.0887301
0.0838402
0.0790207
0.0742888
0.0696596
0.0651468
0.0607617
0.0565142
0.0524118
0.0484603
0.0446636
0.0410238
0.0375412
0.0342142
0.03104
0.028014
0.0251302
0.0223814
0.019759
0.0172536
0.0148546
0.0125506
0.0103293
0.00817808
0.00608345
0.00403167
0.00200862
0
0
0.00199665
0.00400765
0.0060472
0.00812935
0.0102678
0.0124758
0.0147661
0.0171508
0.0196413
0.022248
0.0249805
0.0278471
0.0308551
0.0340104
0.0373175
0.0407794
0.0443975
0.0481716
0.0520995
0.0561775
0.0603997
0.0647586
0.0692445
0.0738461
0.0785499
0.0833406
0.0882014
0.0931133
0.0980561
0.103008
0.107946
0.112846
0.117683
0.12243
0.127062
0.131552
0.135873
0.14
0.143906
0.147567
0.150959
0.154059
0.156847
0.159304
0.161413
0.163159
0.16453
0.165516
0.16611
0.166309
0.16611
0.165516
0.16453
0.163159
0.161413
0.159304
0.156847
0.154059
0.150959
0.147567
0.143906
0.14
0.135873
0.131552
0.127062
0.12243
0.117683
0.112846
0.107946
0.103008
0.0980561
0.0931133
0.0882014
0.0833406
0.0785499
0.0738461
0.0692445
0.0647586
0.0603997
0.0561775
0.0520995
0.0481716
0.0443975
0.0407794
0.0373175
0.0340104
0.0308551
0.0278471
0.0249805
0.022248
0.0196413
0.0171508
0.0147661
0.0124758
0.0102678
0.00812935
0.0060472
0.00400765
0.00199665
0
0
0.00198002
0.00397425
0.00599682
0.00806161
0.0101822
0.0123718
0.0146431
0.0170079
0.0194776
0.0220626
0.0247723
0.027615
0.030598
0.033727
0.0370065
0.0404396
0.0440276
0.0477702
0.0516654
0.0557094
0.0598964
0.064219
0.0686676
0.0732308
0.0778954
0.0826462
0.0874664
0.0923374
0.0972391
0.10215
0.107047
0.111906
0.116702
0.12141
0.126003
0.130456
0.134741
0.138833
0.142707
0.146337
0.149701
0.152775
0.15554
0.157977
0.160068
0.161799
0.163159
0.164137
0.164726
0.164923
0.164726
0.164137
0.163159
0.161799
0.160068
0.157977
0.15554
0.152775
0.149701
0.146337
0.142707
0.138833
0.134741
0.130456
0.126003
0.12141
0.116702
0.111906
0.107047
0.10215
0.0972391
0.0923374
0.0874664
0.0826462
0.0778954
0.0732308
0.0686676
0.064219
0.0598964
0.0557094
0.0516654
0.0477702
0.0440276
0.0404396
0.0370065
0.033727
0.030598
0.027615
0.0247723
0.0220626
0.0194776
0.0170079
0.0146431
0.0123718
0.0101822
0.00806161
0.00599682
0.00397425
0.00198002
0
0
0.00195883
0.00393173
0.00593265
0.00797535
0.0100733
0.0122394
0.0144864
0.0168259
0.0192692
0.0218265
0.0245072
0.0273195
0.0302706
0.0333661
0.0366105
0.0400069
0.0435565
0.047259
0.0511125
0.0551132
0.0592555
0.0635318
0.0679328
0.0724472
0.0770618
0.0817618
0.0865305
0.0913494
0.0961986
0.101057
0.105901
0.110708
0.115453
0.120111
0.124655
0.12906
0.133299
0.137348
0.14118
0.144771
0.148099
0.151141
0.153876
0.156286
0.158355
0.160068
0.161413
0.16238
0.162964
0.163158
0.162964
0.16238
0.161413
0.160068
0.158355
0.156286
0.153876
0.151141
0.148099
0.144771
0.14118
0.137348
0.133299
0.12906
0.124655
0.120111
0.115453
0.110708
0.105901
0.101057
0.0961986
0.0913494
0.0865305
0.0817618
0.0770618
0.0724472
0.0679328
0.0635318
0.0592555
0.0551132
0.0511125
0.047259
0.0435565
0.0400069
0.0366105
0.0333661
0.0302706
0.0273195
0.0245072
0.0218265
0.0192692
0.0168259
0.0144864
0.0122394
0.0100733
0.00797535
0.00593265
0.00393173
0.00195883
0
0
0.00193324
0.00388036
0.00585514
0.00787116
0.00994167
0.0120795
0.0142971
0.0166061
0.0190175
0.0215414
0.0241871
0.0269626
0.0298751
0.0329302
0.0361323
0.0394842
0.0429874
0.0466416
0.0504448
0.0543932
0.0584814
0.0627018
0.0670453
0.0715007
0.0760551
0.0806937
0.0854
0.090156
0.0949418
0.0997365
0.104518
0.109262
0.113945
0.118542
0.123026
0.127374
0.131558
0.135553
0.139336
0.14288
0.146164
0.149166
0.151866
0.154244
0.156286
0.157977
0.159304
0.160259
0.160835
0.161027
0.160835
0.160259
0.159304
0.157977
0.156286
0.154244
0.151866
0.149166
0.146164
0.14288
0.139336
0.135553
0.131558
0.127374
0.123026
0.118542
0.113945
0.109262
0.104518
0.0997365
0.0949418
0.090156
0.0854
0.0806937
0.0760551
0.0715007
0.0670453
0.0627018
0.0584814
0.0543932
0.0504448
0.0466416
0.0429874
0.0394842
0.0361323
0.0329302
0.0298751
0.0269626
0.0241871
0.0215414
0.0190175
0.0166061
0.0142971
0.0120795
0.00994167
0.00787116
0.00585514
0.00388036
0.00193324
0
0
0.00190342
0.00382052
0.00576484
0.00774977
0.00978835
0.0118933
0.0140766
0.01635
0.0187242
0.0212092
0.023814
0.0265468
0.0294144
0.0324223
0.035575
0.0388753
0.0423245
0.0459223
0.0496668
0.0535544
0.0575795
0.0617348
0.0660113
0.070398
0.0748822
0.0794492
0.084083
0.0887656
0.0934776
0.0981984
0.102906
0.107577
0.112188
0.116713
0.121129
0.125409
0.129529
0.133463
0.137187
0.140677
0.14391
0.146866
0.149523
0.151866
0.153876
0.15554
0.156847
0.157787
0.158354
0.158543
0.158354
0.157787
0.156847
0.15554
0.153876
0.151866
0.149523
0.146866
0.14391
0.140677
0.137187
0.133463
0.129529
0.125409
0.121129
0.116713
0.112188
0.107577
0.102906
0.0981984
0.0934776
0.0887656
0.084083
0.0794492
0.0748822
0.070398
0.0660113
0.0617348
0.0575795
0.0535544
0.0496668
0.0459223
0.0423245
0.0388753
0.035575
0.0324223
0.0294144
0.0265468
0.023814
0.0212092
0.0187242
0.01635
0.0140766
0.0118933
0.00978835
0.00774977
0.00576484
0.00382052
0.00190342
0
0
0.00186959
0.0037526
0.00566237
0.00761201
0.00961436
0.0116818
0.0138264
0.0160594
0.0183913
0.0208322
0.0233907
0.0260749
0.0288915
0.031846
0.0349426
0.0381842
0.0415721
0.045106
0.048784
0.0526024
0.0565559
0.0606374
0.0648379
0.0691466
0.0735511
0.078037
0.0825883
0.0871877
0.091816
0.0964528
0.101077
0.105665
0.110193
0.114639
0.118976
0.12318
0.127226
0.131091
0.134748
0.138176
0.141352
0.144255
0.146866
0.149166
0.151141
0.152775
0.154059
0.154983
0.155539
0.155725
0.155539
0.154983
0.154059
0.152775
0.151141
0.149166
0.146866
0.144255
0.141352
0.138176
0.134748
0.131091
0.127226
0.12318
0.118976
0.114639
0.110193
0.105665
0.101077
0.0964528
0.091816
0.0871877
0.0825883
0.078037
0.0735511
0.0691466
0.0648379
0.0606374
0.0565559
0.0526024
0.048784
0.045106
0.0415721
0.0381842
0.0349426
0.031846
0.0288915
0.0260749
0.0233907
0.0208322
0.0183913
0.0160594
0.0138264
0.0116818
0.00961436
0.00761201
0.00566237
0.0037526
0.00186959
0
0
0.00183197
0.00367709
0.00554842
0.00745882
0.00942087
0.0114468
0.0135482
0.0157362
0.0180212
0.0204129
0.02292
0.0255502
0.0283101
0.0312051
0.0342394
0.0374158
0.0407355
0.0441983
0.0478022
0.0515438
0.0554178
0.0594171
0.0635331
0.0677551
0.0720709
0.0764665
0.0809263
0.0854331
0.0899683
0.0945118
0.0990425
0.103538
0.107976
0.112332
0.116582
0.120701
0.124666
0.128452
0.132036
0.135395
0.138507
0.141352
0.14391
0.146164
0.148099
0.149701
0.150959
0.151864
0.152409
0.152591
0.152409
0.151864
0.150959
0.149701
0.148099
0.146164
0.14391
0.141352
0.138507
0.135395
0.132036
0.128452
0.124666
0.120701
0.116582
0.112332
0.107976
0.103538
0.0990425
0.0945118
0.0899683
0.0854331
0.0809263
0.0764665
0.0720709
0.0677551
0.0635331
0.0594171
0.0554178
0.0515438
0.0478022
0.0441983
0.0407355
0.0374158
0.0342394
0.0312051
0.0283101
0.0255502
0.02292
0.0204129
0.0180212
0.0157362
0.0135482
0.0114468
0.00942087
0.00745882
0.00554842
0.00367709
0.00183197
0
0
0.0017908
0.00359447
0.00542375
0.00729124
0.0092092
0.0111896
0.0132437
0.0153826
0.0176163
0.0199543
0.022405
0.0249761
0.027674
0.030504
0.0334701
0.0365751
0.0398203
0.0432052
0.0467282
0.0503857
0.0541726
0.0580821
0.0621056
0.0662328
0.0704516
0.0747484
0.079108
0.0835136
0.0879468
0.0923882
0.0968172
0.101212
0.10555
0.109808
0.113962
0.117989
0.121865
0.125566
0.12907
0.132353
0.135395
0.138176
0.140677
0.14288
0.144771
0.146337
0.147567
0.148451
0.148985
0.149163
0.148985
0.148451
0.147567
0.146337
0.144771
0.14288
0.140677
0.138176
0.135395
0.132353
0.12907
0.125566
0.121865
0.117989
0.113962
0.109808
0.10555
0.101212
0.0968172
0.0923882
0.0879468
0.0835136
0.079108
0.0747484
0.0704516
0.0662328
0.0621056
0.0580821
0.0541726
0.0503857
0.0467282
0.0432052
0.0398203
0.0365751
0.0334701
0.030504
0.027674
0.0249761
0.022405
0.0199543
0.0176163
0.0153826
0.0132437
0.0111896
0.0092092
0.00729124
0.00542375
0.00359447
0.0017908
0
0
0.00174638
0.0035053
0.0052892
0.00711035
0.00898074
0.010912
0.0129152
0.015001
0.0171793
0.0194593
0.0218492
0.0243565
0.0269875
0.0297472
0.0326398
0.0356678
0.0388324
0.0421334
0.0455689
0.0491357
0.0528287
0.0566412
0.0605649
0.0645897
0.0687038
0.0728941
0.0771455
0.0814417
0.085765
0.0900963
0.0944153
0.098701
0.102931
0.107084
0.111135
0.115062
0.118842
0.122451
0.125868
0.12907
0.132036
0.134748
0.137187
0.139336
0.14118
0.142707
0.143906
0.144769
0.145289
0.145462
0.145289
0.144769
0.143906
0.142707
0.14118
0.139336
0.137187
0.134748
0.132036
0.12907
0.125868
0.122451
0.118842
0.115062
0.111135
0.107084
0.102931
0.098701
0.0944153
0.0900963
0.085765
0.0814417
0.0771455
0.0728941
0.0687038
0.0645897
0.0605649
0.0566412
0.0528287
0.0491357
0.0455689
0.0421334
0.0388324
0.0356678
0.0326398
0.0297472
0.0269875
0.0243565
0.0218492
0.0194593
0.0171793
0.015001
0.0129152
0.010912
0.00898074
0.00711035
0.0052892
0.0035053
0.00174638
0
0
0.00169897
0.00341015
0.00514563
0.00691735
0.00873697
0.0106158
0.0125646
0.0145938
0.016713
0.0189311
0.0212561
0.0236954
0.0262549
0.0289398
0.0317538
0.0346996
0.0377783
0.0409897
0.044332
0.047802
0.0513947
0.0551038
0.0589209
0.0628364
0.0668389
0.0709154
0.0750515
0.0792311
0.083437
0.0876507
0.0918525
0.0960218
0.100137
0.104177
0.108118
0.111939
0.115616
0.119127
0.122451
0.125566
0.128452
0.131091
0.133463
0.135553
0.137348
0.138833
0.14
0.140839
0.141345
0.141514
0.141345
0.140839
0.14
0.138833
0.137348
0.135553
0.133463
0.131091
0.128452
0.125566
0.122451
0.119127
0.115616
0.111939
0.108118
0.104177
0.100137
0.0960218
0.0918525
0.0876507
0.083437
0.0792311
0.0750515
0.0709154
0.0668389
0.0628364
0.0589209
0.0551038
0.0513947
0.047802
0.044332
0.0409897
0.0377783
0.0346996
0.0317538
0.0289398
0.0262549
0.0236954
0.0212561
0.0189311
0.016713
0.0145938
0.0125646
0.0106158
0.00873697
0.00691735
0.00514563
0.00341015
0.00169897
0
0
0.0016489
0.00330963
0.00499396
0.00671345
0.00847944
0.0103029
0.0121943
0.0141636
0.0162203
0.018373
0.0206296
0.0229969
0.025481
0.0280868
0.0308179
0.0336768
0.0366648
0.0397815
0.0430253
0.046393
0.0498798
0.0534795
0.0571842
0.0609843
0.0648688
0.0688251
0.0728393
0.0768957
0.0809776
0.0850671
0.0891451
0.0931915
0.0971857
0.101106
0.104931
0.108639
0.112208
0.115616
0.118842
0.121865
0.124666
0.127226
0.129529
0.131558
0.133299
0.134741
0.135873
0.136688
0.137179
0.137343
0.137179
0.136688
0.135873
0.134741
0.133299
0.131558
0.129529
0.127226
0.124666
0.121865
0.118842
0.115616
0.112208
0.108639
0.104931
0.101106
0.0971857
0.0931915
0.0891451
0.0850671
0.0809776
0.0768957
0.0728393
0.0688251
0.0648688
0.0609843
0.0571842
0.0534795
0.0498798
0.046393
0.0430253
0.0397815
0.0366648
0.0336768
0.0308179
0.0280868
0.025481
0.0229969
0.0206296
0.018373
0.0162203
0.0141636
0.0121943
0.0103029
0.00847944
0.00671345
0.00499396
0.00330963
0.0016489
0
0
0.00159645
0.00320437
0.00483513
0.00649994
0.00820975
0.00997519
0.0118064
0.0137132
0.0157045
0.0177887
0.0199735
0.0222655
0.0246706
0.0271935
0.0298377
0.0326057
0.0354987
0.0385163
0.0416569
0.0449175
0.0482934
0.0517786
0.0553654
0.0590447
0.0628057
0.0666362
0.0705226
0.07445
0.0784022
0.0823616
0.0863098
0.0902276
0.0940947
0.0978906
0.101594
0.105184
0.108639
0.111939
0.115062
0.117989
0.120701
0.12318
0.125409
0.127374
0.12906
0.130456
0.131552
0.13234
0.132816
0.132975
0.132816
0.13234
0.131552
0.130456
0.12906
0.127374
0.125409
0.12318
0.120701
0.117989
0.115062
0.111939
0.108639
0.105184
0.101594
0.0978906
0.0940947
0.0902276
0.0863098
0.0823616
0.0784022
0.07445
0.0705226
0.0666362
0.0628057
0.0590447
0.0553654
0.0517786
0.0482934
0.0449175
0.0416569
0.0385163
0.0354987
0.0326057
0.0298377
0.0271935
0.0246706
0.0222655
0.0199735
0.0177887
0.0157045
0.0137132
0.0118064
0.00997519
0.00820975
0.00649994
0.00483513
0.00320437
0.00159645
0
0
0.00154197
0.003095
0.0046701
0.00627809
0.00792955
0.00963473
0.0114035
0.0132451
0.0151685
0.0171816
0.0192918
0.0215056
0.0238286
0.0262653
0.0288193
0.0314929
0.0342871
0.0372017
0.0402351
0.0433844
0.0466451
0.0500114
0.0534758
0.0570295
0.0606621
0.0643618
0.0681156
0.071909
0.0757262
0.0795505
0.083364
0.0871481
0.0908832
0.0945495
0.0981267
0.101594
0.104931
0.108118
0.111135
0.113962
0.116582
0.118976
0.121129
0.123026
0.124655
0.126003
0.127062
0.127824
0.128283
0.128436
0.128283
0.127824
0.127062
0.126003
0.124655
0.123026
0.121129
0.118976
0.116582
0.113962
0.111135
0.108118
0.104931
0.101594
0.0981267
0.0945495
0.0908832
0.0871481
0.083364
0.0795505
0.0757262
0.071909
0.0681156
0.0643618
0.0606621
0.0570295
0.0534758
0.0500114
0.0466451
0.0433844
0.0402351
0.0372017
0.0342871
0.0314929
0.0288193
0.0262653
0.0238286
0.0215056
0.0192918
0.0171816
0.0151685
0.0132451
0.0114035
0.00963473
0.00792955
0.00627809
0.0046701
0.003095
0.00154197
0
0
0.00148575
0.00298218
0.00449986
0.00604922
0.00764048
0.0092835
0.0109878
0.0127623
0.0146155
0.0165552
0.0185885
0.0207216
0.0229599
0.0253079
0.0277687
0.0303448
0.0330372
0.0358455
0.0387684
0.0418029
0.0449447
0.0481883
0.0515264
0.0549505
0.0584507
0.0620156
0.0656325
0.0692876
0.0729657
0.0766506
0.080325
0.0839711
0.0875701
0.0911028
0.0945495
0.0978906
0.101106
0.104177
0.107084
0.109808
0.112332
0.114639
0.116713
0.118542
0.120111
0.12141
0.12243
0.123164
0.123606
0.123754
0.123606
0.123164
0.12243
0.12141
0.120111
0.118542
0.116713
0.114639
0.112332
0.109808
0.107084
0.104177
0.101106
0.0978906
0.0945495
0.0911028
0.0875701
0.0839711
0.080325
0.0766506
0.0729657
0.0692876
0.0656325
0.0620156
0.0584507
0.0549505
0.0515264
0.0481883
0.0449447
0.0418029
0.0387684
0.0358455
0.0330372
0.0303448
0.0277687
0.0253079
0.0229599
0.0207216
0.0185885
0.0165552
0.0146155
0.0127623
0.0109878
0.0092835
0.00764048
0.00604922
0.00449986
0.00298218
0.00148575
0
0
0.00142814
0.00286654
0.00432537
0.00581466
0.00734421
0.00892352
0.0105617
0.0122674
0.0140488
0.0159133
0.0178677
0.0199181
0.0220696
0.0243265
0.026692
0.0291682
0.0317561
0.0344555
0.0372651
0.0401819
0.0432019
0.0463197
0.0495283
0.0528197
0.0561841
0.0596108
0.0630875
0.0666009
0.0701363
0.0736783
0.0772103
0.080715
0.0841744
0.0875701
0.0908832
0.0940947
0.0971857
0.100137
0.102931
0.10555
0.107976
0.110193
0.112188
0.113945
0.115453
0.116702
0.117683
0.118388
0.118813
0.118955
0.118813
0.118388
0.117683
0.116702
0.115453
0.113945
0.112188
0.110193
0.107976
0.10555
0.102931
0.100137
0.0971857
0.0940947
0.0908832
0.0875701
0.0841744
0.080715
0.0772103
0.0736783
0.0701363
0.0666009
0.0630875
0.0596108
0.0561841
0.0528197
0.0495283
0.0463197
0.0432019
0.0401819
0.0372651
0.0344555
0.0317561
0.0291682
0.026692
0.0243265
0.0220696
0.0199181
0.0178677
0.0159133
0.0140488
0.0122674
0.0105617
0.00892352
0.00734421
0.00581466
0.00432537
0.00286654
0.00142814
0
0
0.00136945
0.00274873
0.0041476
0.00557568
0.00704237
0.00855678
0.0101276
0.0117632
0.0134714
0.0152593
0.0171334
0.0190995
0.0211626
0.0233267
0.025595
0.0279694
0.030451
0.0330395
0.0357335
0.0385305
0.0414264
0.044416
0.0474928
0.0506489
0.0538751
0.0571609
0.0604947
0.0638637
0.0672538
0.0706503
0.0740371
0.0773978
0.080715
0.0839711
0.0871481
0.0902276
0.0931915
0.0960218
0.098701
0.101212
0.103538
0.105665
0.107577
0.109262
0.110708
0.111906
0.112846
0.113522
0.11393
0.114066
0.11393
0.113522
0.112846
0.111906
0.110708
0.109262
0.107577
0.105665
0.103538
0.101212
0.098701
0.0960218
0.0931915
0.0902276
0.0871481
0.0839711
0.080715
0.0773978
0.0740371
0.0706503
0.0672538
0.0638637
0.0604947
0.0571609
0.0538751
0.0506489
0.0474928
0.044416
0.0414264
0.0385305
0.0357335
0.0330395
0.030451
0.0279694
0.025595
0.0233267
0.0211626
0.0190995
0.0171334
0.0152593
0.0134714
0.0117632
0.0101276
0.00855678
0.00704237
0.00557568
0.0041476
0.00274873
0.00136945
0
0
0.00130998
0.00262938
0.00396751
0.00533358
0.00673659
0.00818523
0.00968788
0.0112525
0.0128864
0.0145967
0.0163894
0.0182702
0.0202437
0.0223139
0.0244836
0.0267549
0.0291288
0.0316049
0.034182
0.0368575
0.0396276
0.0424874
0.0454306
0.0484497
0.0515358
0.0546789
0.057868
0.0610907
0.0643336
0.0675826
0.0708224
0.0740371
0.0772103
0.080325
0.083364
0.0863098
0.0891451
0.0918525
0.0944153
0.0968172
0.0990425
0.101077
0.102906
0.104518
0.105901
0.107047
0.107946
0.108593
0.108983
0.109114
0.108983
0.108593
0.107946
0.107047
0.105901
0.104518
0.102906
0.101077
0.0990425
0.0968172
0.0944153
0.0918525
0.0891451
0.0863098
0.083364
0.080325
0.0772103
0.0740371
0.0708224
0.0675826
0.0643336
0.0610907
0.057868
0.0546789
0.0515358
0.0484497
0.0454306
0.0424874
0.0396276
0.0368575
0.034182
0.0316049
0.0291288
0.0267549
0.0244836
0.0223139
0.0202437
0.0182702
0.0163894
0.0145967
0.0128864
0.0112525
0.00968788
0.00818523
0.00673659
0.00533358
0.00396751
0.00262938
0.00130998
0
0
0.00125006
0.00250909
0.00378601
0.0050896
0.00642842
0.0078108
0.00924471
0.0107377
0.012297
0.013929
0.0156397
0.0174344
0.0193176
0.0212931
0.0233636
0.025531
0.0277963
0.0301591
0.0326183
0.0351714
0.0378149
0.0405438
0.0433524
0.0462333
0.0491783
0.0521776
0.0552208
0.0582961
0.0613907
0.064491
0.0675826
0.0706503
0.0736783
0.0766506
0.0795505
0.0823616
0.0850671
0.0876507
0.0900963
0.0923882
0.0945118
0.0964528
0.0981984
0.0997365
0.101057
0.10215
0.103008
0.103626
0.103998
0.104122
0.103998
0.103626
0.103008
0.10215
0.101057
0.0997365
0.0981984
0.0964528
0.0945118
0.0923882
0.0900963
0.0876507
0.0850671
0.0823616
0.0795505
0.0766506
0.0736783
0.0706503
0.0675826
0.064491
0.0613907
0.0582961
0.0552208
0.0521776
0.0491783
0.0462333
0.0433524
0.0405438
0.0378149
0.0351714
0.0326183
0.0301591
0.0277963
0.025531
0.0233636
0.0212931
0.0193176
0.0174344
0.0156397
0.013929
0.012297
0.0107377
0.00924471
0.0078108
0.00642842
0.0050896
0.00378601
0.00250909
0.00125006
0
0
0.00118996
0.00238847
0.00360401
0.00484492
0.00611938
0.00743531
0.00880028
0.0102215
0.0117058
0.0132593
0.0148878
0.0165963
0.018389
0.0202695
0.0222404
0.0243037
0.02646
0.0287092
0.0310502
0.0334806
0.035997
0.0385948
0.0412683
0.0440107
0.0468141
0.0496693
0.0525662
0.0554936
0.0584394
0.0613907
0.0643336
0.0672538
0.0701363
0.0729657
0.0757262
0.0784022
0.0809776
0.083437
0.085765
0.0879468
0.0899683
0.091816
0.0934776
0.0949418
0.0961986
0.0972391
0.0980561
0.0986439
0.0989983
0.0991166
0.0989983
0.0986439
0.0980561
0.0972391
0.0961986
0.0949418
0.0934776
0.091816
0.0899683
0.0879468
0.085765
0.083437
0.0809776
0.0784022
0.0757262
0.0729657
0.0701363
0.0672538
0.0643336
0.0613907
0.0584394
0.0554936
0.0525662
0.0496693
0.0468141
0.0440107
0.0412683
0.0385948
0.035997
0.0334806
0.0310502
0.0287092
0.02646
0.0243037
0.0222404
0.0202695
0.018389
0.0165963
0.0148878
0.0132593
0.0117058
0.0102215
0.00880028
0.00743531
0.00611938
0.00484492
0.00360401
0.00238847
0.00118996
0
0
0.00112998
0.00226807
0.00342234
0.0046007
0.00581092
0.00706051
0.00835668
0.00970628
0.0111157
0.012591
0.0141374
0.0157597
0.017462
0.0192477
0.0211193
0.0230786
0.0251262
0.0272621
0.029485
0.0317929
0.0341824
0.0366493
0.039188
0.0417922
0.0444543
0.0471655
0.0499164
0.0526962
0.0554936
0.0582961
0.0610907
0.0638637
0.0666009
0.0692876
0.071909
0.07445
0.0768957
0.0792311
0.0814417
0.0835136
0.0854331
0.0871877
0.0887656
0.090156
0.0913494
0.0923374
0.0931133
0.0936714
0.0940079
0.0941203
0.0940079
0.0936714
0.0931133
0.0923374
0.0913494
0.090156
0.0887656
0.0871877
0.0854331
0.0835136
0.0814417
0.0792311
0.0768957
0.07445
0.071909
0.0692876
0.0666009
0.0638637
0.0610907
0.0582961
0.0554936
0.0526962
0.0499164
0.0471655
0.0444543
0.0417922
0.039188
0.0366493
0.0341824
0.0317929
0.029485
0.0272621
0.0251262
0.0230786
0.0211193
0.0192477
0.017462
0.0157597
0.0141374
0.012591
0.0111157
0.00970628
0.00835668
0.00706051
0.00581092
0.0046007
0.00342234
0.00226807
0.00112998
0
0
0.00107037
0.00214843
0.0032418
0.004358
0.00550438
0.00668805
0.00791584
0.00919425
0.0105293
0.0119268
0.0133916
0.0149283
0.0165409
0.0182324
0.0200052
0.0218611
0.0238007
0.0258239
0.0279296
0.0301157
0.0323792
0.0347159
0.0371208
0.0395876
0.0421092
0.0446774
0.0472832
0.0499164
0.0525662
0.0552208
0.057868
0.0604947
0.0630875
0.0656325
0.0681156
0.0705226
0.0728393
0.0750515
0.0771455
0.079108
0.0809263
0.0825883
0.084083
0.0854
0.0865305
0.0874664
0.0882014
0.0887301
0.0890488
0.0891553
0.0890488
0.0887301
0.0882014
0.0874664
0.0865305
0.0854
0.084083
0.0825883
0.0809263
0.079108
0.0771455
0.0750515
0.0728393
0.0705226
0.0681156
0.0656325
0.0630875
0.0604947
0.057868
0.0552208
0.0525662
0.0499164
0.0472832
0.0446774
0.0421092
0.0395876
0.0371208
0.0347159
0.0323792
0.0301157
0.0279296
0.0258239
0.0238007
0.0218611
0.0200052
0.0182324
0.0165409
0.0149283
0.0133916
0.0119268
0.0105293
0.00919425
0.00791584
0.00668805
0.00550438
0.004358
0.0032418
0.00214843
0.00107037
0
0
0.00101138
0.00203003
0.00306315
0.00411783
0.00520103
0.00631947
0.0074796
0.00868756
0.00994908
0.0112695
0.0126536
0.0141056
0.0156293
0.0172276
0.0189028
0.0206564
0.0224891
0.0244008
0.0263904
0.0284561
0.0305948
0.0328028
0.0350751
0.0374059
0.0397886
0.0422153
0.0446774
0.0471655
0.0496693
0.0521776
0.0546789
0.0571609
0.0596108
0.0620156
0.0643618
0.0666362
0.0688251
0.0709154
0.0728941
0.0747484
0.0764665
0.078037
0.0794492
0.0806937
0.0817618
0.0826462
0.0833406
0.0838402
0.0841414
0.084242
0.0841414
0.0838402
0.0833406
0.0826462
0.0817618
0.0806937
0.0794492
0.078037
0.0764665
0.0747484
0.0728941
0.0709154
0.0688251
0.0666362
0.0643618
0.0620156
0.0596108
0.0571609
0.0546789
0.0521776
0.0496693
0.0471655
0.0446774
0.0422153
0.0397886
0.0374059
0.0350751
0.0328028
0.0305948
0.0284561
0.0263904
0.0244008
0.0224891
0.0206564
0.0189028
0.0172276
0.0156293
0.0141056
0.0126536
0.0112695
0.00994908
0.00868756
0.0074796
0.00631947
0.00520103
0.00411783
0.00306315
0.00203003
0.00101138
0
0
0.000953245
0.00191334
0.00288706
0.00388112
0.00490206
0.0059562
0.00704965
0.00818816
0.00937717
0.0106217
0.0119262
0.0132948
0.0147309
0.0162373
0.0178162
0.0194689
0.0211963
0.0229981
0.0248734
0.0268203
0.0288361
0.0309171
0.0330588
0.0352557
0.0375014
0.0397886
0.0421092
0.0444543
0.0468141
0.0491783
0.0515358
0.0538751
0.0561841
0.0584507
0.0606621
0.0628057
0.0648688
0.0668389
0.0687038
0.0704516
0.0720709
0.0735511
0.0748822
0.0760551
0.0770618
0.0778954
0.0785499
0.0790207
0.0793046
0.0793994
0.0793046
0.0790207
0.0785499
0.0778954
0.0770618
0.0760551
0.0748822
0.0735511
0.0720709
0.0704516
0.0687038
0.0668389
0.0648688
0.0628057
0.0606621
0.0584507
0.0561841
0.0538751
0.0515358
0.0491783
0.0468141
0.0444543
0.0421092
0.0397886
0.0375014
0.0352557
0.0330588
0.0309171
0.0288361
0.0268203
0.0248734
0.0229981
0.0211963
0.0194689
0.0178162
0.0162373
0.0147309
0.0132948
0.0119262
0.0106217
0.00937717
0.00818816
0.00704965
0.0059562
0.00490206
0.00388112
0.00288706
0.00191334
0.000953245
0
0
0.000896162
0.00179876
0.00271418
0.00364871
0.00460851
0.00559953
0.00662749
0.00769783
0.00881564
0.00998561
0.011212
0.0124987
0.0138487
0.0152649
0.0167493
0.0183031
0.019927
0.0216209
0.0233839
0.0252142
0.0271093
0.0290657
0.0310792
0.0331445
0.0352557
0.0374059
0.0395876
0.0417922
0.0440107
0.0462333
0.0484497
0.0506489
0.0528197
0.0549505
0.0570295
0.0590447
0.0609843
0.0628364
0.0645897
0.0662328
0.0677551
0.0691466
0.070398
0.0715007
0.0724472
0.0732308
0.0738461
0.0742888
0.0745556
0.0746448
0.0745556
0.0742888
0.0738461
0.0732308
0.0724472
0.0715007
0.070398
0.0691466
0.0677551
0.0662328
0.0645897
0.0628364
0.0609843
0.0590447
0.0570295
0.0549505
0.0528197
0.0506489
0.0484497
0.0462333
0.0440107
0.0417922
0.0395876
0.0374059
0.0352557
0.0331445
0.0310792
0.0290657
0.0271093
0.0252142
0.0233839
0.0216209
0.019927
0.0183031
0.0167493
0.0152649
0.0138487
0.0124987
0.011212
0.00998561
0.00881564
0.00769783
0.00662749
0.00559953
0.00460851
0.00364871
0.00271418
0.00179876
0.000896162
0
0
0.00084032
0.00168667
0.00254505
0.00342135
0.00432134
0.00525061
0.00621452
0.00721816
0.00826631
0.00936338
0.0105134
0.0117198
0.0129858
0.0143137
0.0157056
0.0171626
0.0186853
0.0202737
0.0219268
0.0236431
0.0254201
0.0272546
0.0291425
0.0310792
0.0330588
0.0350751
0.0371208
0.039188
0.0412683
0.0433524
0.0454306
0.0474928
0.0495283
0.0515264
0.0534758
0.0553654
0.0571842
0.0589209
0.0605649
0.0621056
0.0635331
0.0648379
0.0660113
0.0670453
0.0679328
0.0686676
0.0692445
0.0696596
0.0699098
0.0699934
0.0699098
0.0696596
0.0692445
0.0686676
0.0679328
0.0670453
0.0660113
0.0648379
0.0635331
0.0621056
0.0605649
0.0589209
0.0571842
0.0553654
0.0534758
0.0515264
0.0495283
0.0474928
0.0454306
0.0433524
0.0412683
0.039188
0.0371208
0.0350751
0.0330588
0.0310792
0.0291425
0.0272546
0.0254201
0.0236431
0.0219268
0.0202737
0.0186853
0.0171626
0.0157056
0.0143137
0.0129858
0.0117198
0.0105134
0.00936338
0.00826631
0.00721816
0.00621452
0.00525061
0.00432134
0.00342135
0.00254505
0.00168667
0.00084032
0
0
0.00078588
0.0015774
0.00238017
0.0031997
0.00404139
0.00491045
0.00581191
0.00675054
0.00773078
0.00875678
0.00983227
0.0109606
0.0121445
0.0133864
0.0146881
0.0160507
0.0174748
0.0189603
0.0205063
0.0221114
0.0237732
0.0254889
0.0272546
0.0290657
0.0309171
0.0328028
0.0347159
0.0366493
0.0385948
0.0405438
0.0424874
0.044416
0.0463197
0.0481883
0.0500114
0.0517786
0.0534795
0.0551038
0.0566412
0.0580821
0.0594171
0.0606374
0.0617348
0.0627018
0.0635318
0.064219
0.0647586
0.0651468
0.0653808
0.065459
0.0653808
0.0651468
0.0647586
0.064219
0.0635318
0.0627018
0.0617348
0.0606374
0.0594171
0.0580821
0.0566412
0.0551038
0.0534795
0.0517786
0.0500114
0.0481883
0.0463197
0.044416
0.0424874
0.0405438
0.0385948
0.0366493
0.0347159
0.0328028
0.0309171
0.0290657
0.0272546
0.0254889
0.0237732
0.0221114
0.0205063
0.0189603
0.0174748
0.0160507
0.0146881
0.0133864
0.0121445
0.0109606
0.00983227
0.00875678
0.00773078
0.00675054
0.00581191
0.00491045
0.00404139
0.0031997
0.00238017
0.0015774
0.00078588
0
0
0.000732983
0.00147123
0.00221996
0.00298433
0.00376936
0.00457993
0.00542072
0.00629616
0.00721043
0.00816736
0.00917046
0.0102228
0.0113271
0.0124854
0.0136995
0.0149703
0.0162986
0.0176841
0.019126
0.0206231
0.0221731
0.0237732
0.0254201
0.0271093
0.0288361
0.0305948
0.0323792
0.0341824
0.035997
0.0378149
0.0396276
0.0414264
0.0432019
0.0449447
0.0466451
0.0482934
0.0498798
0.0513947
0.0528287
0.0541726
0.0554178
0.0565559
0.0575795
0.0584814
0.0592555
0.0598964
0.0603997
0.0607617
0.06098
0.0610529
0.06098
0.0607617
0.0603997
0.0598964
0.0592555
0.0584814
0.0575795
0.0565559
0.0554178
0.0541726
0.0528287
0.0513947
0.0498798
0.0482934
0.0466451
0.0449447
0.0432019
0.0414264
0.0396276
0.0378149
0.035997
0.0341824
0.0323792
0.0305948
0.0288361
0.0271093
0.0254201
0.0237732
0.0221731
0.0206231
0.019126
0.0176841
0.0162986
0.0149703
0.0136995
0.0124854
0.0113271
0.0102228
0.00917046
0.00816736
0.00721043
0.00629616
0.00542072
0.00457993
0.00376936
0.00298433
0.00221996
0.00147123
0.000732983
0
0
0.000681744
0.00136838
0.00206478
0.00277571
0.00350586
0.00425977
0.00504178
0.00585603
0.00670638
0.00759643
0.0085294
0.00950819
0.0105353
0.0116126
0.0127418
0.0139238
0.0151592
0.0164479
0.017789
0.0191814
0.0206231
0.0221114
0.0236431
0.0252142
0.0268203
0.0284561
0.0301157
0.0317929
0.0334806
0.0351714
0.0368575
0.0385305
0.0401819
0.0418029
0.0433844
0.0449175
0.046393
0.047802
0.0491357
0.0503857
0.0515438
0.0526024
0.0535544
0.0543932
0.0551132
0.0557094
0.0561775
0.0565142
0.0567172
0.056785
0.0567172
0.0565142
0.0561775
0.0557094
0.0551132
0.0543932
0.0535544
0.0526024
0.0515438
0.0503857
0.0491357
0.047802
0.046393
0.0449175
0.0433844
0.0418029
0.0401819
0.0385305
0.0368575
0.0351714
0.0334806
0.0317929
0.0301157
0.0284561
0.0268203
0.0252142
0.0236431
0.0221114
0.0206231
0.0191814
0.017789
0.0164479
0.0151592
0.0139238
0.0127418
0.0116126
0.0105353
0.00950819
0.0085294
0.00759643
0.00670638
0.00585603
0.00504178
0.00425977
0.00350586
0.00277571
0.00206478
0.00136838
0.000681744
0
0
0.000632256
0.00126905
0.00191489
0.00257422
0.00325137
0.00395055
0.00467579
0.00543093
0.00621956
0.007045
0.00791025
0.00881798
0.00977049
0.0107696
0.0118169
0.0129131
0.0140588
0.0152539
0.0164977
0.017789
0.019126
0.0205063
0.0219268
0.0233839
0.0248734
0.0263904
0.0279296
0.029485
0.0310502
0.0326183
0.034182
0.0357335
0.0372651
0.0387684
0.0402351
0.0416569
0.0430253
0.044332
0.0455689
0.0467282
0.0478022
0.048784
0.0496668
0.0504448
0.0511125
0.0516654
0.0520995
0.0524118
0.0526001
0.052663
0.0526001
0.0524118
0.0520995
0.0516654
0.0511125
0.0504448
0.0496668
0.048784
0.0478022
0.0467282
0.0455689
0.044332
0.0430253
0.0416569
0.0402351
0.0387684
0.0372651
0.0357335
0.034182
0.0326183
0.0310502
0.029485
0.0279296
0.0263904
0.0248734
0.0233839
0.0219268
0.0205063
0.019126
0.017789
0.0164977
0.0152539
0.0140588
0.0129131
0.0118169
0.0107696
0.00977049
0.00881798
0.00791025
0.007045
0.00621956
0.00543093
0.00467579
0.00395055
0.00325137
0.00257422
0.00191489
0.00126905
0.000632256
0
0
0.000584588
0.00117337
0.00177052
0.00238014
0.00300624
0.00365271
0.00432327
0.00502148
0.00575065
0.00651385
0.00731387
0.00815317
0.00903386
0.00995769
0.010926
0.0119395
0.0129989
0.0141039
0.0152539
0.0164479
0.0176841
0.0189603
0.0202737
0.0216209
0.0229981
0.0244008
0.0258239
0.0272621
0.0287092
0.0301591
0.0316049
0.0330395
0.0344555
0.0358455
0.0372017
0.0385163
0.0397815
0.0409897
0.0421334
0.0432052
0.0441983
0.045106
0.0459223
0.0466416
0.047259
0.0477702
0.0481716
0.0484603
0.0486344
0.0486926
0.0486344
0.0484603
0.0481716
0.0477702
0.047259
0.0466416
0.0459223
0.045106
0.0441983
0.0432052
0.0421334
0.0409897
0.0397815
0.0385163
0.0372017
0.0358455
0.0344555
0.0330395
0.0316049
0.0301591
0.0287092
0.0272621
0.0258239
0.0244008
0.0229981
0.0216209
0.0202737
0.0189603
0.0176841
0.0164479
0.0152539
0.0141039
0.0129989
0.0119395
0.010926
0.00995769
0.00903386
0.00815317
0.00731387
0.00651385
0.00575065
0.00502148
0.00432327
0.00365271
0.00300624
0.00238014
0.00177052
0.00117337
0.000584588
0
0
0.000538788
0.00108144
0.00163181
0.00219367
0.00277071
0.00336653
0.00398456
0.00462807
0.00530011
0.00600352
0.00674086
0.0075144
0.0083261
0.00917754
0.0100699
0.0110041
0.0119805
0.0129989
0.0140588
0.0151592
0.0162986
0.0174748
0.0186853
0.019927
0.0211963
0.0224891
0.0238007
0.0251262
0.02646
0.0277963
0.0291288
0.030451
0.0317561
0.0330372
0.0342871
0.0354987
0.0366648
0.0377783
0.0388324
0.0398203
0.0407355
0.0415721
0.0423245
0.0429874
0.0435565
0.0440276
0.0443975
0.0446636
0.0448241
0.0448777
0.0448241
0.0446636
0.0443975
0.0440276
0.0435565
0.0429874
0.0423245
0.0415721
0.0407355
0.0398203
0.0388324
0.0377783
0.0366648
0.0354987
0.0342871
0.0330372
0.0317561
0.030451
0.0291288
0.0277963
0.02646
0.0251262
0.0238007
0.0224891
0.0211963
0.019927
0.0186853
0.0174748
0.0162986
0.0151592
0.0140588
0.0129989
0.0119805
0.0110041
0.0100699
0.00917754
0.0083261
0.0075144
0.00674086
0.00600352
0.00530011
0.00462807
0.00398456
0.00336653
0.00277071
0.00219367
0.00163181
0.00108144
0.000538788
0
0
0.00049488
0.000993313
0.00149883
0.0020149
0.00254492
0.00309218
0.00365984
0.00425091
0.00486818
0.00551427
0.00619152
0.00690202
0.00764757
0.00842963
0.00924931
0.0101074
0.0110041
0.0119395
0.0129131
0.0139238
0.0149703
0.0160507
0.0171626
0.0183031
0.0194689
0.0206564
0.0218611
0.0230786
0.0243037
0.025531
0.0267549
0.0279694
0.0291682
0.0303448
0.0314929
0.0326057
0.0336768
0.0346996
0.0356678
0.0365751
0.0374158
0.0381842
0.0388753
0.0394842
0.0400069
0.0404396
0.0407794
0.0410238
0.0411712
0.0412204
0.0411712
0.0410238
0.0407794
0.0404396
0.0400069
0.0394842
0.0388753
0.0381842
0.0374158
0.0365751
0.0356678
0.0346996
0.0336768
0.0326057
0.0314929
0.0303448
0.0291682
0.0279694
0.0267549
0.025531
0.0243037
0.0230786
0.0218611
0.0206564
0.0194689
0.0183031
0.0171626
0.0160507
0.0149703
0.0139238
0.0129131
0.0119395
0.0110041
0.0101074
0.00924931
0.00842963
0.00764757
0.00690202
0.00619152
0.00551427
0.00486818
0.00425091
0.00365984
0.00309218
0.00254492
0.0020149
0.00149883
0.000993313
0.00049488
0
0
0.000452868
0.000908987
0.00137159
0.00184384
0.00232887
0.00282967
0.00334915
0.00389003
0.0044549
0.00504614
0.0056659
0.00631609
0.00699834
0.007714
0.0084641
0.00924931
0.0100699
0.010926
0.0118169
0.0127418
0.0136995
0.0146881
0.0157056
0.0167493
0.0178162
0.0189028
0.0200052
0.0211193
0.0222404
0.0233636
0.0244836
0.025595
0.026692
0.0277687
0.0288193
0.0298377
0.0308179
0.0317538
0.0326398
0.0334701
0.0342394
0.0349426
0.035575
0.0361323
0.0366105
0.0370065
0.0373175
0.0375412
0.037676
0.0377211
0.037676
0.0375412
0.0373175
0.0370065
0.0366105
0.0361323
0.035575
0.0349426
0.0342394
0.0334701
0.0326398
0.0317538
0.0308179
0.0298377
0.0288193
0.0277687
0.026692
0.025595
0.0244836
0.0233636
0.0222404
0.0211193
0.0200052
0.0189028
0.0178162
0.0167493
0.0157056
0.0146881
0.0136995
0.0127418
0.0118169
0.010926
0.0100699
0.00924931
0.0084641
0.007714
0.00699834
0.00631609
0.0056659
0.00504614
0.0044549
0.00389003
0.00334915
0.00282967
0.00232887
0.00184384
0.00137159
0.000908987
0.000452868
0
0
0.000412734
0.000828432
0.00125004
0.00168044
0.00212248
0.00257891
0.00305234
0.00354529
0.00406011
0.00459895
0.00516378
0.00575635
0.00637814
0.00703038
0.007714
0.00842963
0.00917754
0.00995769
0.0107696
0.0116126
0.0124854
0.0133864
0.0143137
0.0152649
0.0162373
0.0172276
0.0182324
0.0192477
0.0202695
0.0212931
0.0223139
0.0233267
0.0243265
0.0253079
0.0262653
0.0271935
0.0280868
0.0289398
0.0297472
0.030504
0.0312051
0.031846
0.0324223
0.0329302
0.0333661
0.033727
0.0340104
0.0342142
0.0343371
0.0343782
0.0343371
0.0342142
0.0340104
0.033727
0.0333661
0.0329302
0.0324223
0.031846
0.0312051
0.030504
0.0297472
0.0289398
0.0280868
0.0271935
0.0262653
0.0253079
0.0243265
0.0233267
0.0223139
0.0212931
0.0202695
0.0192477
0.0182324
0.0172276
0.0162373
0.0152649
0.0143137
0.0133864
0.0124854
0.0116126
0.0107696
0.00995769
0.00917754
0.00842963
0.007714
0.00703038
0.00637814
0.00575635
0.00516378
0.00459895
0.00406011
0.00354529
0.00305234
0.00257891
0.00212248
0.00168044
0.00125004
0.000828432
0.000412734
0
0
0.000374443
0.000751575
0.00113406
0.00152454
0.00192557
0.00233965
0.00276916
0.00321638
0.00368343
0.00417228
0.00468471
0.00522231
0.00578641
0.00637814
0.00699834
0.00764757
0.0083261
0.00903386
0.00977049
0.0105353
0.0113271
0.0121445
0.0129858
0.0138487
0.0147309
0.0156293
0.0165409
0.017462
0.018389
0.0193176
0.0202437
0.0211626
0.0220696
0.0229599
0.0238286
0.0246706
0.025481
0.0262549
0.0269875
0.027674
0.0283101
0.0288915
0.0294144
0.0298751
0.0302706
0.030598
0.0308551
0.03104
0.0311515
0.0311888
0.0311515
0.03104
0.0308551
0.030598
0.0302706
0.0298751
0.0294144
0.0288915
0.0283101
0.027674
0.0269875
0.0262549
0.025481
0.0246706
0.0238286
0.0229599
0.0220696
0.0211626
0.0202437
0.0193176
0.018389
0.017462
0.0165409
0.0156293
0.0147309
0.0138487
0.0129858
0.0121445
0.0113271
0.0105353
0.00977049
0.00903386
0.0083261
0.00764757
0.00699834
0.00637814
0.00578641
0.00522231
0.00468471
0.00417228
0.00368343
0.00321638
0.00276916
0.00233965
0.00192557
0.00152454
0.00113406
0.000751575
0.000374443
0
0
0.000337939
0.000678305
0.00102351
0.00137591
0.00173785
0.00211156
0.0024992
0.00290282
0.00332434
0.00376553
0.00422801
0.00471319
0.00522231
0.00575635
0.00631609
0.00690202
0.0075144
0.00815317
0.00881798
0.00950819
0.0102228
0.0109606
0.0117198
0.0124987
0.0132948
0.0141056
0.0149283
0.0157597
0.0165963
0.0174344
0.0182702
0.0190995
0.0199181
0.0207216
0.0215056
0.0222655
0.0229969
0.0236954
0.0243565
0.0249761
0.0255502
0.0260749
0.0265468
0.0269626
0.0273195
0.027615
0.0278471
0.028014
0.0281146
0.0281482
0.0281146
0.028014
0.0278471
0.027615
0.0273195
0.0269626
0.0265468
0.0260749
0.0255502
0.0249761
0.0243565
0.0236954
0.0229969
0.0222655
0.0215056
0.0207216
0.0199181
0.0190995
0.0182702
0.0174344
0.0165963
0.0157597
0.0149283
0.0141056
0.0132948
0.0124987
0.0117198
0.0109606
0.0102228
0.00950819
0.00881798
0.00815317
0.0075144
0.00690202
0.00631609
0.00575635
0.00522231
0.00471319
0.00422801
0.00376553
0.00332434
0.00290282
0.0024992
0.00211156
0.00173785
0.00137591
0.00102351
0.000678305
0.000337939
0
0
0.000303151
0.000608479
0.000918145
0.00123428
0.00155895
0.00189419
0.00224193
0.002604
0.00298213
0.00337791
0.00379277
0.00422801
0.00468471
0.00516378
0.0056659
0.00619152
0.00674086
0.00731387
0.00791025
0.0085294
0.00917046
0.00983227
0.0105134
0.011212
0.0119262
0.0126536
0.0133916
0.0141374
0.0148878
0.0156397
0.0163894
0.0171334
0.0178677
0.0185885
0.0192918
0.0199735
0.0206296
0.0212561
0.0218492
0.022405
0.02292
0.0233907
0.023814
0.0241871
0.0245072
0.0247723
0.0249805
0.0251302
0.0252205
0.0252506
0.0252205
0.0251302
0.0249805
0.0247723
0.0245072
0.0241871
0.023814
0.0233907
0.02292
0.022405
0.0218492
0.0212561
0.0206296
0.0199735
0.0192918
0.0185885
0.0178677
0.0171334
0.0163894
0.0156397
0.0148878
0.0141374
0.0133916
0.0126536
0.0119262
0.011212
0.0105134
0.00983227
0.00917046
0.0085294
0.00791025
0.00731387
0.00674086
0.00619152
0.0056659
0.00516378
0.00468471
0.00422801
0.00379277
0.00337791
0.00298213
0.002604
0.00224193
0.00189419
0.00155895
0.00123428
0.000918145
0.000608479
0.000303151
0
0
0.000269992
0.000541922
0.000817715
0.00109927
0.00138843
0.001687
0.0019967
0.00231917
0.00265593
0.00300842
0.00337791
0.00376553
0.00417228
0.00459895
0.00504614
0.00551427
0.00600352
0.00651385
0.007045
0.00759643
0.00816736
0.00875678
0.00936338
0.00998561
0.0106217
0.0112695
0.0119268
0.012591
0.0132593
0.013929
0.0145967
0.0152593
0.0159133
0.0165552
0.0171816
0.0177887
0.018373
0.0189311
0.0194593
0.0199543
0.0204129
0.0208322
0.0212092
0.0215414
0.0218265
0.0220626
0.022248
0.0223814
0.0224618
0.0224886
0.0224618
0.0223814
0.022248
0.0220626
0.0218265
0.0215414
0.0212092
0.0208322
0.0204129
0.0199543
0.0194593
0.0189311
0.018373
0.0177887
0.0171816
0.0165552
0.0159133
0.0152593
0.0145967
0.013929
0.0132593
0.012591
0.0119268
0.0112695
0.0106217
0.00998561
0.00936338
0.00875678
0.00816736
0.00759643
0.007045
0.00651385
0.00600352
0.00551427
0.00504614
0.00459895
0.00417228
0.00376553
0.00337791
0.00300842
0.00265593
0.00231917
0.0019967
0.001687
0.00138843
0.00109927
0.000817715
0.000541922
0.000269992
0
0
0.000238358
0.000478427
0.000721906
0.00097047
0.00122575
0.00148934
0.00176275
0.00204744
0.00234475
0.00265593
0.00298213
0.00332434
0.00368343
0.00406011
0.0044549
0.00486818
0.00530011
0.00575065
0.00621956
0.00670638
0.00721043
0.00773078
0.00826631
0.00881564
0.00937717
0.00994908
0.0105293
0.0111157
0.0117058
0.012297
0.0128864
0.0134714
0.0140488
0.0146155
0.0151685
0.0157045
0.0162203
0.016713
0.0171793
0.0176163
0.0180212
0.0183913
0.0187242
0.0190175
0.0192692
0.0194776
0.0196413
0.019759
0.01983
0.0198537
0.01983
0.019759
0.0196413
0.0194776
0.0192692
0.0190175
0.0187242
0.0183913
0.0180212
0.0176163
0.0171793
0.016713
0.0162203
0.0157045
0.0151685
0.0146155
0.0140488
0.0134714
0.0128864
0.012297
0.0117058
0.0111157
0.0105293
0.00994908
0.00937717
0.00881564
0.00826631
0.00773078
0.00721043
0.00670638
0.00621956
0.00575065
0.00530011
0.00486818
0.0044549
0.00406011
0.00368343
0.00332434
0.00298213
0.00265593
0.00234475
0.00204744
0.00176275
0.00148934
0.00122575
0.00097047
0.000721906
0.000478427
0.000238358
0
0
0.000208134
0.000417763
0.00063037
0.000847416
0.00107033
0.0013005
0.00153924
0.00178783
0.00204744
0.00231917
0.002604
0.00290282
0.00321638
0.00354529
0.00389003
0.00425091
0.00462807
0.00502148
0.00543093
0.00585603
0.00629616
0.00675054
0.00721816
0.00769783
0.00818816
0.00868756
0.00919425
0.00970628
0.0102215
0.0107377
0.0112525
0.0117632
0.0122674
0.0127623
0.0132451
0.0137132
0.0141636
0.0145938
0.015001
0.0153826
0.0157362
0.0160594
0.01635
0.0166061
0.0168259
0.0170079
0.0171508
0.0172536
0.0173156
0.0173363
0.0173156
0.0172536
0.0171508
0.0170079
0.0168259
0.0166061
0.01635
0.0160594
0.0157362
0.0153826
0.015001
0.0145938
0.0141636
0.0137132
0.0132451
0.0127623
0.0122674
0.0117632
0.0112525
0.0107377
0.0102215
0.00970628
0.00919425
0.00868756
0.00818816
0.00769783
0.00721816
0.00675054
0.00629616
0.00585603
0.00543093
0.00502148
0.00462807
0.00425091
0.00389003
0.00354529
0.00321638
0.00290282
0.002604
0.00231917
0.00204744
0.00178783
0.00153924
0.0013005
0.00107033
0.000847416
0.00063037
0.000417763
0.000208134
0
0
0.000179195
0.000359676
0.000542721
0.000729588
0.000921507
0.00111967
0.00132522
0.00153924
0.00176275
0.0019967
0.00224193
0.0024992
0.00276916
0.00305234
0.00334915
0.00365984
0.00398456
0.00432327
0.00467579
0.00504178
0.00542072
0.00581191
0.00621452
0.00662749
0.00704965
0.0074796
0.00791584
0.00835668
0.00880028
0.00924471
0.00968788
0.0101276
0.0105617
0.0109878
0.0114035
0.0118064
0.0121943
0.0125646
0.0129152
0.0132437
0.0135482
0.0138264
0.0140766
0.0142971
0.0144864
0.0146431
0.0147661
0.0148546
0.014908
0.0149258
0.014908
0.0148546
0.0147661
0.0146431
0.0144864
0.0142971
0.0140766
0.0138264
0.0135482
0.0132437
0.0129152
0.0125646
0.0121943
0.0118064
0.0114035
0.0109878
0.0105617
0.0101276
0.00968788
0.00924471
0.00880028
0.00835668
0.00791584
0.0074796
0.00704965
0.00662749
0.00621452
0.00581191
0.00542072
0.00504178
0.00467579
0.00432327
0.00398456
0.00365984
0.00334915
0.00305234
0.00276916
0.0024992
0.00224193
0.0019967
0.00176275
0.00153924
0.00132522
0.00111967
0.000921507
0.000729588
0.000542721
0.000359676
0.000179195
0
0
0.0001514
0.000303888
0.000458542
0.000616424
0.000778576
0.000946002
0.00111967
0.0013005
0.00148934
0.001687
0.00189419
0.00211156
0.00233965
0.00257891
0.00282967
0.00309218
0.00336653
0.00365271
0.00395055
0.00425977
0.00457993
0.00491045
0.00525061
0.00559953
0.0059562
0.00631947
0.00668805
0.00706051
0.00743531
0.0078108
0.00818523
0.00855678
0.00892352
0.0092835
0.00963473
0.00997519
0.0103029
0.0106158
0.010912
0.0111896
0.0114468
0.0116818
0.0118933
0.0120795
0.0122394
0.0123718
0.0124758
0.0125506
0.0125956
0.0126107
0.0125956
0.0125506
0.0124758
0.0123718
0.0122394
0.0120795
0.0118933
0.0116818
0.0114468
0.0111896
0.010912
0.0106158
0.0103029
0.00997519
0.00963473
0.0092835
0.00892352
0.00855678
0.00818523
0.0078108
0.00743531
0.00706051
0.00668805
0.00631947
0.0059562
0.00559953
0.00525061
0.00491045
0.00457993
0.00425977
0.00395055
0.00365271
0.00336653
0.00309218
0.00282967
0.00257891
0.00233965
0.00211156
0.00189419
0.001687
0.00148934
0.0013005
0.00111967
0.000946002
0.000778576
0.000616424
0.000458542
0.000303888
0.0001514
0
0
0.000124605
0.000250105
0.000377388
0.000507328
0.000640781
0.000778576
0.000921507
0.00107033
0.00122575
0.00138843
0.00155895
0.00173785
0.00192557
0.00212248
0.00232887
0.00254492
0.00277071
0.00300624
0.00325137
0.00350586
0.00376936
0.00404139
0.00432134
0.00460851
0.00490206
0.00520103
0.00550438
0.00581092
0.00611938
0.00642842
0.00673659
0.00704237
0.00734421
0.00764048
0.00792955
0.00820975
0.00847944
0.00873697
0.00898074
0.0092092
0.00942087
0.00961436
0.00978835
0.00994167
0.0100733
0.0101822
0.0102678
0.0103293
0.0103664
0.0103788
0.0103664
0.0103293
0.0102678
0.0101822
0.0100733
0.00994167
0.00978835
0.00961436
0.00942087
0.0092092
0.00898074
0.00873697
0.00847944
0.00820975
0.00792955
0.00764048
0.00734421
0.00704237
0.00673659
0.00642842
0.00611938
0.00581092
0.00550438
0.00520103
0.00490206
0.00460851
0.00432134
0.00404139
0.00376936
0.00350586
0.00325137
0.00300624
0.00277071
0.00254492
0.00232887
0.00212248
0.00192557
0.00173785
0.00155895
0.00138843
0.00122575
0.00107033
0.000921507
0.000778576
0.000640781
0.000507328
0.000377388
0.000250105
0.000124605
0
0
9.86541e-05
0.000198016
0.00029879
0.000401669
0.000507328
0.000616424
0.000729588
0.000847416
0.00097047
0.00109927
0.00123428
0.00137591
0.00152454
0.00168044
0.00184384
0.0020149
0.00219367
0.00238014
0.00257422
0.00277571
0.00298433
0.0031997
0.00342135
0.00364871
0.00388112
0.00411783
0.004358
0.0046007
0.00484492
0.0050896
0.00533358
0.00557568
0.00581466
0.00604922
0.00627809
0.00649994
0.00671345
0.00691735
0.00711035
0.00729124
0.00745882
0.00761201
0.00774977
0.00787116
0.00797535
0.00806161
0.00812935
0.00817808
0.00820746
0.00821727
0.00820746
0.00817808
0.00812935
0.00806161
0.00797535
0.00787116
0.00774977
0.00761201
0.00745882
0.00729124
0.00711035
0.00691735
0.00671345
0.00649994
0.00627809
0.00604922
0.00581466
0.00557568
0.00533358
0.0050896
0.00484492
0.0046007
0.004358
0.00411783
0.00388112
0.00364871
0.00342135
0.0031997
0.00298433
0.00277571
0.00257422
0.00238014
0.00219367
0.0020149
0.00184384
0.00168044
0.00152454
0.00137591
0.00123428
0.00109927
0.00097047
0.000847416
0.000729588
0.000616424
0.000507328
0.000401669
0.00029879
0.000198016
9.86541e-05
0
0
7.33861e-05
0.000147299
0.000222262
0.00029879
0.000377388
0.000458542
0.000542721
0.00063037
0.000721906
0.000817715
0.000918145
0.00102351
0.00113406
0.00125004
0.00137159
0.00149883
0.00163181
0.00177052
0.00191489
0.00206478
0.00221996
0.00238017
0.00254505
0.00271418
0.00288706
0.00306315
0.0032418
0.00342234
0.00360401
0.00378601
0.00396751
0.0041476
0.00432537
0.00449986
0.0046701
0.00483513
0.00499396
0.00514563
0.0052892
0.00542375
0.00554842
0.00566237
0.00576484
0.00585514
0.00593265
0.00599682
0.0060472
0.00608345
0.00610531
0.00611261
0.00610531
0.00608345
0.0060472
0.00599682
0.00593265
0.00585514
0.00576484
0.00566237
0.00554842
0.00542375
0.0052892
0.00514563
0.00499396
0.00483513
0.0046701
0.00449986
0.00432537
0.0041476
0.00396751
0.00378601
0.00360401
0.00342234
0.0032418
0.00306315
0.00288706
0.00271418
0.00254505
0.00238017
0.00221996
0.00206478
0.00191489
0.00177052
0.00163181
0.00149883
0.00137159
0.00125004
0.00113406
0.00102351
0.000918145
0.000817715
0.000721906
0.00063037
0.000542721
0.000458542
0.000377388
0.00029879
0.000222262
0.000147299
7.33861e-05
0
0
4.8635e-05
9.76191e-05
0.000147299
0.000198016
0.000250105
0.000303888
0.000359676
0.000417763
0.000478427
0.000541922
0.000608479
0.000678305
0.000751575
0.000828432
0.000908987
0.000993313
0.00108144
0.00117337
0.00126905
0.00136838
0.00147123
0.0015774
0.00168667
0.00179876
0.00191334
0.00203003
0.00214843
0.00226807
0.00238847
0.00250909
0.00262938
0.00274873
0.00286654
0.00298218
0.003095
0.00320437
0.00330963
0.00341015
0.0035053
0.00359447
0.00367709
0.0037526
0.00382052
0.00388036
0.00393173
0.00397425
0.00400765
0.00403167
0.00404615
0.00405099
0.00404615
0.00403167
0.00400765
0.00397425
0.00393173
0.00388036
0.00382052
0.0037526
0.00367709
0.00359447
0.0035053
0.00341015
0.00330963
0.00320437
0.003095
0.00298218
0.00286654
0.00274873
0.00262938
0.00250909
0.00238847
0.00226807
0.00214843
0.00203003
0.00191334
0.00179876
0.00168667
0.0015774
0.00147123
0.00136838
0.00126905
0.00117337
0.00108144
0.000993313
0.000908987
0.000828432
0.000751575
0.000678305
0.000608479
0.000541922
0.000478427
0.000417763
0.000359676
0.000303888
0.000250105
0.000198016
0.000147299
9.76191e-05
4.8635e-05
0
0
2.42305e-05
4.8635e-05
7.33861e-05
9.86541e-05
0.000124605
0.0001514
0.000179195
0.000208134
0.000238358
0.000269992
0.000303151
0.000337939
0.000374443
0.000412734
0.000452868
0.00049488
0.000538788
0.000584588
0.000632256
0.000681744
0.000732983
0.00078588
0.00084032
0.000896162
0.000953245
0.00101138
0.00107037
0.00112998
0.00118996
0.00125006
0.00130998
0.00136945
0.00142814
0.00148575
0.00154197
0.00159645
0.0016489
0.00169897
0.00174638
0.0017908
0.00183197
0.00186959
0.00190342
0.00193324
0.00195883
0.00198002
0.00199665
0.00200862
0.00201584
0.00201825
0.00201584
0.00200862
0.00199665
0.00198002
0.00195883
0.00193324
0.00190342
0.00186959
0.00183197
0.0017908
0.00174638
0.00169897
0.0016489
0.00159645
0.00154197
0.00148575
0.00142814
0.00136945
0.00130998
0.00125006
0.00118996
0.00112998
0.00107037
0.00101138
0.000953245
0.000896162
0.00084032
0.00078588
0.000732983
0.000681744
0.000632256
0.000584588
0.000538788
0.00049488
0.000452868
0.000412734
0.000374443
0.000337939
0.000303151
0.000269992
0.000238358
0.000208134
0.000179195
0.0001514
0.000124605
9.86541e-05
7.33861e-05
4.8635e-05
2.42305e-05
0
0
0
0
0
0
0
0
0
0
0
0
0
0
0
0
0
0
0
0
0
0
0
0
0
0
0
0
0
0
0
0
0
0
0
0
0
0
0
0
0
0
0
0
0
0
0
0
0
0
0
0
0
0
0
0
0
0
0
0
0
0
0
0
0
0
0
0
0
0
0
0
0
0
0
0
0
0
0
0
0
0
0
0
0
0
0
0
0
0
0
0
0
0
0
0
0
0
0
0
0
0
