# vtk DataFile Version 3.0
Heat2D data at time 0.2
ASCII
DATASET STRUCTURED_POINTS
DIMENSIONS 101 101 1
ORIGIN 0 0 0
SPACING 0.01 0.01 1
POINT_DATA 10201
SCALARS temperature double
LOOKUP_TABLE default
0
0
0
0
0
0
0
0
0
0
0
0
0
0
0
0
0
0
0
0
0
0
0
0
0
0
0
0
0
0
0
0
0
0
0
0
0
0
0
0
0
0
0
0
0
0
0
0
0
0
0
0
0
0
0
0
0
0
0
0
0
0
0
0
0
0
0
0
0
0
0
0
0
0
0
0
0
0
0
0
0
0
0
0
0
0
0
0
0
0
0
0
0
0
0
0
0
0
0
0
0
0
2.76968e-05
5.55659e-05
8.37778e-05
0.000112501
0.000141898
0.000172129
0.000203344
0.000235685
0.000269287
0.000304271
0.000340747
0.00037881
0.000418541
0.000460003
0.000503244
0.000548292
0.000595154
0.000643819
0.000694253
0.0007464
0.000800182
0.0008555
0.00091223
0.000970227
0.00102932
0.00108933
0.00115004
0.00121122
0.00127262
0.00133399
0.00139504
0.00145549
0.00151503
0.00157337
0.00163018
0.00168516
0.00173799
0.00178837
0.00183599
0.00188056
0.00192182
0.00195949
0.00199334
0.00202314
0.00204871
0.00206986
0.00208646
0.0020984
0.0021056
0.002108
0.0021056
0.0020984
0.00208646
0.00206986
0.00204871
0.00202314
0.00199334
0.00195949
0.00192182
0.00188056
0.00183599
0.00178837
0.00173799
0.00168516
0.00163018
0.00157337
0.00151503
0.00145549
0.00139504
0.00133399
0.00127262
0.00121122
0.00115004
0.00108933
0.00102932
0.000970227
0.00091223
0.0008555
0.000800182
0.0007464
0.000694253
0.000643819
0.000595154
0.000548292
0.000503244
0.000460003
0.000418541
0.00037881
0.000340747
0.000304271
0.000269287
0.000235685
0.000203344
0.000172129
0.000141898
0.000112501
8.37778e-05
5.55659e-05
2.76968e-05
0
0
5.55659e-05
0.000111477
0.000168076
0.000225701
0.000284679
0.000345328
0.000407951
0.000472836
0.000540249
0.000610434
0.000683612
0.000759975
0.000839683
0.000922866
0.00100962
0.00109999
0.00119401
0.00129164
0.00139282
0.00149744
0.00160534
0.00171632
0.00183013
0.00194649
0.00206504
0.00218543
0.00230722
0.00242996
0.00255315
0.00267627
0.00279875
0.00292003
0.00303949
0.00315652
0.0032705
0.00338079
0.00348678
0.00358785
0.00368339
0.00377282
0.00385558
0.00393116
0.00399907
0.00405886
0.00411015
0.00415259
0.00418589
0.00420985
0.00422429
0.00422911
0.00422429
0.00420985
0.00418589
0.00415259
0.00411015
0.00405886
0.00399907
0.00393116
0.00385558
0.00377282
0.00368339
0.00358785
0.00348678
0.00338079
0.0032705
0.00315652
0.00303949
0.00292003
0.00279875
0.00267627
0.00255315
0.00242996
0.00230722
0.00218543
0.00206504
0.00194649
0.00183013
0.00171632
0.00160534
0.00149744
0.00139282
0.00129164
0.00119401
0.00109999
0.00100962
0.000922866
0.000839683
0.000759975
0.000683612
0.000610434
0.000540249
0.000472836
0.000407951
0.000345328
0.000284679
0.000225701
0.000168076
0.000111477
5.55659e-05
0
0
8.37778e-05
0.000168076
0.000253412
0.000340294
0.000429216
0.000520658
0.000615077
0.000712904
0.000814544
0.000920365
0.0010307
0.00114583
0.00126601
0.00139142
0.00152222
0.00165848
0.00180023
0.00194743
0.00209998
0.00225772
0.0024204
0.00258773
0.00275933
0.00293476
0.00311351
0.00329502
0.00347865
0.0036637
0.00384944
0.00403507
0.00421974
0.00440258
0.0045827
0.00475915
0.00493099
0.00509729
0.0052571
0.00540948
0.00555352
0.00568836
0.00581315
0.0059271
0.00602948
0.00611963
0.00619695
0.00626094
0.00631116
0.00634728
0.00636905
0.00637632
0.00636905
0.00634728
0.00631116
0.00626094
0.00619695
0.00611963
0.00602948
0.0059271
0.00581315
0.00568836
0.00555352
0.00540948
0.0052571
0.00509729
0.00493099
0.00475915
0.0045827
0.00440258
0.00421974
0.00403507
0.00384944
0.0036637
0.00347865
0.00329502
0.00311351
0.00293476
0.00275933
0.00258773
0.0024204
0.00225772
0.00209998
0.00194743
0.00180023
0.00165848
0.00152222
0.00139142
0.00126601
0.00114583
0.0010307
0.000920365
0.000814544
0.000712904
0.000615077
0.000520658
0.000429216
0.000340294
0.000253412
0.000168076
8.37778e-05
0
0
0.000112501
0.000225701
0.000340294
0.000456962
0.000576371
0.000699163
0.000825953
0.000957321
0.00109381
0.00123591
0.00138407
0.00153867
0.00170005
0.00186847
0.00204411
0.00222708
0.00241743
0.0026151
0.00281996
0.00303177
0.00325023
0.00347492
0.00370535
0.00394093
0.00418097
0.0044247
0.00467129
0.00491979
0.00516921
0.00541847
0.00566646
0.00591199
0.00615385
0.0063908
0.00662157
0.00684488
0.00705947
0.00726409
0.00745753
0.00763859
0.00780616
0.00795918
0.00809666
0.00821772
0.00832155
0.00840748
0.00847492
0.00852342
0.00855265
0.00856241
0.00855265
0.00852342
0.00847492
0.00840748
0.00832155
0.00821772
0.00809666
0.00795918
0.00780616
0.00763859
0.00745753
0.00726409
0.00705947
0.00684488
0.00662157
0.0063908
0.00615385
0.00591199
0.00566646
0.00541847
0.00516921
0.00491979
0.00467129
0.0044247
0.00418097
0.00394093
0.00370535
0.00347492
0.00325023
0.00303177
0.00281996
0.0026151
0.00241743
0.00222708
0.00204411
0.00186847
0.00170005
0.00153867
0.00138407
0.00123591
0.00109381
0.000957321
0.000825953
0.000699163
0.000576371
0.000456962
0.000340294
0.000225701
0.000112501
0
0
0.000141898
0.000284679
0.000429216
0.000576371
0.000726983
0.000881862
0.00104178
0.00120748
0.00137963
0.00155886
0.00174574
0.00194074
0.0021443
0.00235672
0.00257826
0.00280905
0.00304913
0.00329846
0.00355684
0.003824
0.00409955
0.00438295
0.0046736
0.00497073
0.0052735
0.00558092
0.00589194
0.00620538
0.00651997
0.00683438
0.00714716
0.00745686
0.00776192
0.00806078
0.00835185
0.00863352
0.00890418
0.00916228
0.00940626
0.00963463
0.00984599
0.010039
0.0102124
0.0103651
0.0104961
0.0106044
0.0106895
0.0107507
0.0107875
0.0107999
0.0107875
0.0107507
0.0106895
0.0106044
0.0104961
0.0103651
0.0102124
0.010039
0.00984599
0.00963463
0.00940626
0.00916228
0.00890418
0.00863352
0.00835185
0.00806078
0.00776192
0.00745686
0.00714716
0.00683438
0.00651997
0.00620538
0.00589194
0.00558092
0.0052735
0.00497073
0.0046736
0.00438295
0.00409955
0.003824
0.00355684
0.00329846
0.00304913
0.00280905
0.00257826
0.00235672
0.0021443
0.00194074
0.00174574
0.00155886
0.00137963
0.00120748
0.00104178
0.000881862
0.000726983
0.000576371
0.000429216
0.000284679
0.000141898
0
0
0.000172129
0.000345328
0.000520658
0.000699163
0.000881862
0.00106974
0.00126373
0.00146472
0.00167355
0.00189097
0.00211766
0.00235421
0.00260112
0.0028588
0.00312754
0.0034075
0.00369873
0.00400117
0.0043146
0.00463868
0.00497293
0.00531672
0.00566928
0.00602971
0.00639698
0.00676991
0.00714719
0.0075274
0.00790902
0.0082904
0.00866982
0.0090455
0.00941555
0.00977808
0.0101312
0.0104728
0.0108012
0.0111142
0.0114102
0.0116872
0.0119436
0.0121777
0.0123881
0.0125733
0.0127322
0.0128637
0.0129668
0.013041
0.0130858
0.0131007
0.0130858
0.013041
0.0129668
0.0128637
0.0127322
0.0125733
0.0123881
0.0121777
0.0119436
0.0116872
0.0114102
0.0111142
0.0108012
0.0104728
0.0101312
0.00977808
0.00941555
0.0090455
0.00866982
0.0082904
0.00790902
0.0075274
0.00714719
0.00676991
0.00639698
0.00602971
0.00566928
0.00531672
0.00497293
0.00463868
0.0043146
0.00400117
0.00369873
0.0034075
0.00312754
0.0028588
0.00260112
0.00235421
0.00211766
0.00189097
0.00167355
0.00146472
0.00126373
0.00106974
0.000881862
0.000699163
0.000520658
0.000345328
0.000172129
0
0
0.000203344
0.000407951
0.000615077
0.000825953
0.00104178
0.00126373
0.0014929
0.00173035
0.00197704
0.00223389
0.00250168
0.00278113
0.00307283
0.00337723
0.0036947
0.00402543
0.00436948
0.00472676
0.00509704
0.00547989
0.00587475
0.00628088
0.00669738
0.00712317
0.00755704
0.0079976
0.00844329
0.00889246
0.00934328
0.00979382
0.0102421
0.0106859
0.011123
0.0115513
0.0119684
0.012372
0.0127599
0.0131298
0.0134794
0.0138067
0.0141095
0.0143861
0.0146346
0.0148534
0.0150411
0.0151964
0.0153183
0.015406
0.0154588
0.0154765
0.0154588
0.015406
0.0153183
0.0151964
0.0150411
0.0148534
0.0146346
0.0143861
0.0141095
0.0138067
0.0134794
0.0131298
0.0127599
0.012372
0.0119684
0.0115513
0.011123
0.0106859
0.0102421
0.00979382
0.00934328
0.00889246
0.00844329
0.0079976
0.00755704
0.00712317
0.00669738
0.00628088
0.00587475
0.00547989
0.00509704
0.00472676
0.00436948
0.00402543
0.0036947
0.00337723
0.00307283
0.00278113
0.00250168
0.00223389
0.00197704
0.00173035
0.0014929
0.00126373
0.00104178
0.000825953
0.000615077
0.000407951
0.000203344
0
0
0.000235685
0.000472836
0.000712904
0.000957321
0.00120748
0.00146472
0.00173035
0.00200556
0.00229149
0.00258919
0.00289958
0.00322347
0.00356156
0.00391438
0.00428234
0.00466567
0.00506445
0.00547856
0.00590772
0.00635146
0.00680912
0.00727985
0.00776259
0.00825612
0.00875899
0.00926961
0.0097862
0.0103068
0.0108293
0.0113515
0.0118711
0.0123854
0.0128921
0.0133885
0.013872
0.0143398
0.0147894
0.015218
0.0156233
0.0160026
0.0163537
0.0166742
0.0169622
0.0172159
0.0174334
0.0176134
0.0177547
0.0178563
0.0179175
0.017938
0.0179175
0.0178563
0.0177547
0.0176134
0.0174334
0.0172159
0.0169622
0.0166742
0.0163537
0.0160026
0.0156233
0.015218
0.0147894
0.0143398
0.013872
0.0133885
0.0128921
0.0123854
0.0118711
0.0113515
0.0108293
0.0103068
0.0097862
0.00926961
0.00875899
0.00825612
0.00776259
0.00727985
0.00680912
0.00635146
0.00590772
0.00547856
0.00506445
0.00466567
0.00428234
0.00391438
0.00356156
0.00322347
0.00289958
0.00258919
0.00229149
0.00200556
0.00173035
0.00146472
0.00120748
0.000957321
0.000712904
0.000472836
0.000235685
0
0
0.000269287
0.000540249
0.000814544
0.00109381
0.00137963
0.00167355
0.00197704
0.00229149
0.00261819
0.00295833
0.00331297
0.00368305
0.00406934
0.00447246
0.00489288
0.00533086
0.00578649
0.00625964
0.00674999
0.007257
0.00777991
0.00831775
0.00886932
0.0094332
0.0100078
0.0105912
0.0111814
0.0117763
0.0123733
0.0129699
0.0135635
0.0141512
0.0147302
0.0152973
0.0158497
0.0163842
0.0168979
0.0173877
0.0178507
0.0182841
0.0186852
0.0190515
0.0193806
0.0196703
0.0199189
0.0201246
0.020286
0.0204021
0.0204721
0.0204954
0.0204721
0.0204021
0.020286
0.0201246
0.0199189
0.0196703
0.0193806
0.0190515
0.0186852
0.0182841
0.0178507
0.0173877
0.0168979
0.0163842
0.0158497
0.0152973
0.0147302
0.0141512
0.0135635
0.0129699
0.0123733
0.0117763
0.0111814
0.0105912
0.0100078
0.0094332
0.00886932
0.00831775
0.00777991
0.007257
0.00674999
0.00625964
0.00578649
0.00533086
0.00489288
0.00447246
0.00406934
0.00368305
0.00331297
0.00295833
0.00261819
0.00229149
0.00197704
0.00167355
0.00137963
0.00109381
0.000814544
0.000540249
0.000269287
0
0
0.000304271
0.000610434
0.000920365
0.00123591
0.00155886
0.00189097
0.00223389
0.00258919
0.00295833
0.00334266
0.00374337
0.00416152
0.004598
0.0050535
0.00552853
0.00602342
0.00653823
0.00707285
0.00762691
0.00819978
0.00879063
0.00939834
0.0100216
0.0106587
0.0113079
0.0119671
0.0126341
0.0133062
0.0139807
0.0146549
0.0153256
0.0159897
0.0166438
0.0172847
0.0179088
0.0185128
0.0190932
0.0196466
0.0201698
0.0206595
0.0211127
0.0215265
0.0218984
0.0222258
0.0225066
0.022739
0.0229214
0.0230526
0.0231317
0.0231581
0.0231317
0.0230526
0.0229214
0.022739
0.0225066
0.0222258
0.0218984
0.0215265
0.0211127
0.0206595
0.0201698
0.0196466
0.0190932
0.0185128
0.0179088
0.0172847
0.0166438
0.0159897
0.0153256
0.0146549
0.0139807
0.0133062
0.0126341
0.0119671
0.0113079
0.0106587
0.0100216
0.00939834
0.00879063
0.00819978
0.00762691
0.00707285
0.00653823
0.00602342
0.00552853
0.0050535
0.004598
0.00416152
0.00374337
0.00334266
0.00295833
0.00258919
0.00223389
0.00189097
0.00155886
0.00123591
0.000920365
0.000610434
0.000304271
0
0
0.000340747
0.000683612
0.0010307
0.00138407
0.00174574
0.00211766
0.00250168
0.00289958
0.00331297
0.00374337
0.00419212
0.0046604
0.0051492
0.0056593
0.00619129
0.0067455
0.00732203
0.00792074
0.00854121
0.00918276
0.00984444
0.010525
0.0112229
0.0119365
0.0126635
0.0134017
0.0141486
0.0149013
0.0156567
0.0164117
0.0171628
0.0179065
0.0186391
0.0193567
0.0200557
0.0207321
0.021382
0.0220018
0.0225877
0.0231361
0.0236436
0.0241071
0.0245235
0.0248902
0.0252047
0.025465
0.0256692
0.0258161
0.0259046
0.0259342
0.0259046
0.0258161
0.0256692
0.025465
0.0252047
0.0248902
0.0245235
0.0241071
0.0236436
0.0231361
0.0225877
0.0220018
0.021382
0.0207321
0.0200557
0.0193567
0.0186391
0.0179065
0.0171628
0.0164117
0.0156567
0.0149013
0.0141486
0.0134017
0.0126635
0.0119365
0.0112229
0.010525
0.00984444
0.00918276
0.00854121
0.00792074
0.00732203
0.0067455
0.00619129
0.0056593
0.0051492
0.0046604
0.00419212
0.00374337
0.00331297
0.00289958
0.00250168
0.00211766
0.00174574
0.00138407
0.0010307
0.000683612
0.000340747
0
0
0.00037881
0.000759975
0.00114583
0.00153867
0.00194074
0.00235421
0.00278113
0.00322347
0.00368305
0.00416152
0.0046604
0.00518099
0.00572439
0.00629147
0.00688288
0.007499
0.00813993
0.00880552
0.0094953
0.0102085
0.0109441
0.0117007
0.0124766
0.0132698
0.0140781
0.0148988
0.0157291
0.0165658
0.0174057
0.018245
0.01908
0.0199067
0.0207211
0.021519
0.022296
0.0230479
0.0237705
0.0244595
0.0251108
0.0257205
0.0262847
0.0268
0.0272629
0.0276705
0.0280202
0.0283095
0.0285366
0.0286999
0.0287983
0.0288312
0.0287983
0.0286999
0.0285366
0.0283095
0.0280202
0.0276705
0.0272629
0.0268
0.0262847
0.0257205
0.0251108
0.0244595
0.0237705
0.0230479
0.022296
0.021519
0.0207211
0.0199067
0.01908
0.018245
0.0174057
0.0165658
0.0157291
0.0148988
0.0140781
0.0132698
0.0124766
0.0117007
0.0109441
0.0102085
0.0094953
0.00880552
0.00813993
0.007499
0.00688288
0.00629147
0.00572439
0.00518099
0.0046604
0.00416152
0.00368305
0.00322347
0.00278113
0.00235421
0.00194074
0.00153867
0.00114583
0.000759975
0.00037881
0
0
0.000418541
0.000839683
0.00126601
0.00170005
0.0021443
0.00260112
0.00307283
0.00356156
0.00406934
0.004598
0.0051492
0.00572439
0.00632478
0.00695134
0.00760478
0.00828551
0.00899367
0.00972907
0.0104912
0.0112792
0.012092
0.0129279
0.0137852
0.0146616
0.0155546
0.0164614
0.0173788
0.0183033
0.0192312
0.0201586
0.0210812
0.0219946
0.0228944
0.023776
0.0246345
0.0254653
0.0262636
0.0270249
0.0277445
0.0284181
0.0290416
0.0296108
0.0301223
0.0305727
0.030959
0.0312787
0.0315296
0.03171
0.0318188
0.0318551
0.0318188
0.03171
0.0315296
0.0312787
0.030959
0.0305727
0.0301223
0.0296108
0.0290416
0.0284181
0.0277445
0.0270249
0.0262636
0.0254653
0.0246345
0.023776
0.0228944
0.0219946
0.0210812
0.0201586
0.0192312
0.0183033
0.0173788
0.0164614
0.0155546
0.0146616
0.0137852
0.0129279
0.012092
0.0112792
0.0104912
0.00972907
0.00899367
0.00828551
0.00760478
0.00695134
0.00632478
0.00572439
0.0051492
0.004598
0.00406934
0.00356156
0.00307283
0.00260112
0.0021443
0.00170005
0.00126601
0.000839683
0.000418541
0
0
0.000460003
0.000922866
0.00139142
0.00186847
0.00235672
0.0028588
0.00337723
0.00391438
0.00447246
0.0050535
0.0056593
0.00629147
0.00695134
0.00763997
0.00835814
0.00910631
0.00988463
0.0106929
0.0115305
0.0123966
0.0132898
0.0142086
0.0151508
0.016114
0.0170955
0.0180921
0.0191004
0.0201165
0.0211363
0.0221556
0.0231696
0.0241735
0.0251625
0.0261313
0.0270749
0.027988
0.0288654
0.0297021
0.030493
0.0312334
0.0319186
0.0325442
0.0331064
0.0336014
0.034026
0.0343773
0.034653
0.0348513
0.0349709
0.0350108
0.0349709
0.0348513
0.034653
0.0343773
0.034026
0.0336014
0.0331064
0.0325442
0.0319186
0.0312334
0.030493
0.0297021
0.0288654
0.027988
0.0270749
0.0261313
0.0251625
0.0241735
0.0231696
0.0221556
0.0211363
0.0201165
0.0191004
0.0180921
0.0170955
0.016114
0.0151508
0.0142086
0.0132898
0.0123966
0.0115305
0.0106929
0.00988463
0.00910631
0.00835814
0.00763997
0.00695134
0.00629147
0.0056593
0.0050535
0.00447246
0.00391438
0.00337723
0.0028588
0.00235672
0.00186847
0.00139142
0.000922866
0.000460003
0
0
0.000503244
0.00100962
0.00152222
0.00204411
0.00257826
0.00312754
0.0036947
0.00428234
0.00489288
0.00552853
0.00619129
0.00688288
0.00760478
0.00835814
0.00914382
0.00996232
0.0108138
0.011698
0.0126144
0.0135619
0.0145391
0.0155442
0.016575
0.0176288
0.0187025
0.0197928
0.0208959
0.0220075
0.0231232
0.0242382
0.0253475
0.0264459
0.0275278
0.0285877
0.02962
0.0306189
0.0315788
0.0324942
0.0333594
0.0341694
0.034919
0.0356034
0.0362184
0.03676
0.0372245
0.0376088
0.0379105
0.0381274
0.0382582
0.0383019
0.0382582
0.0381274
0.0379105
0.0376088
0.0372245
0.03676
0.0362184
0.0356034
0.034919
0.0341694
0.0333594
0.0324942
0.0315788
0.0306189
0.02962
0.0285877
0.0275278
0.0264459
0.0253475
0.0242382
0.0231232
0.0220075
0.0208959
0.0197928
0.0187025
0.0176288
0.016575
0.0155442
0.0145391
0.0135619
0.0126144
0.011698
0.0108138
0.00996232
0.00914382
0.00835814
0.00760478
0.00688288
0.00619129
0.00552853
0.00489288
0.00428234
0.0036947
0.00312754
0.00257826
0.00204411
0.00152222
0.00100962
0.000503244
0
0
0.000548292
0.00109999
0.00165848
0.00222708
0.00280905
0.0034075
0.00402543
0.00466567
0.00533086
0.00602342
0.0067455
0.007499
0.00828551
0.00910631
0.00996232
0.0108541
0.0117818
0.0127452
0.0137436
0.0147759
0.0158406
0.0169356
0.0180587
0.0192068
0.0203767
0.0215646
0.0227663
0.0239775
0.025193
0.0264079
0.0276165
0.0288131
0.0299919
0.0311467
0.0322714
0.0333597
0.0344056
0.0354028
0.0363456
0.037228
0.0380447
0.0387905
0.0394605
0.0400505
0.0405566
0.0409753
0.041304
0.0415404
0.0416828
0.0417304
0.0416828
0.0415404
0.041304
0.0409753
0.0405566
0.0400505
0.0394605
0.0387905
0.0380447
0.037228
0.0363456
0.0354028
0.0344056
0.0333597
0.0322714
0.0311467
0.0299919
0.0288131
0.0276165
0.0264079
0.025193
0.0239775
0.0227663
0.0215646
0.0203767
0.0192068
0.0180587
0.0169356
0.0158406
0.0147759
0.0137436
0.0127452
0.0117818
0.0108541
0.00996232
0.00910631
0.00828551
0.007499
0.0067455
0.00602342
0.00533086
0.00466567
0.00402543
0.0034075
0.00280905
0.00222708
0.00165848
0.00109999
0.000548292
0
0
0.000595154
0.00119401
0.00180023
0.00241743
0.00304913
0.00369873
0.00436948
0.00506445
0.00578649
0.00653823
0.00732203
0.00813993
0.00899367
0.00988463
0.0108138
0.0117818
0.0127888
0.0138345
0.0149182
0.0160388
0.0171944
0.0183831
0.0196022
0.0208484
0.0221183
0.0234077
0.0247122
0.0260268
0.0273463
0.028665
0.0299769
0.0312758
0.0325553
0.0338088
0.0350296
0.036211
0.0373462
0.0384287
0.039452
0.0404099
0.0412964
0.0421059
0.0428332
0.0434736
0.0440229
0.0444775
0.0448342
0.0450908
0.0452455
0.0452971
0.0452455
0.0450908
0.0448342
0.0444775
0.0440229
0.0434736
0.0428332
0.0421059
0.0412964
0.0404099
0.039452
0.0384287
0.0373462
0.036211
0.0350296
0.0338088
0.0325553
0.0312758
0.0299769
0.028665
0.0273463
0.0260268
0.0247122
0.0234077
0.0221183
0.0208484
0.0196022
0.0183831
0.0171944
0.0160388
0.0149182
0.0138345
0.0127888
0.0117818
0.0108138
0.00988463
0.00899367
0.00813993
0.00732203
0.00653823
0.00578649
0.00506445
0.00436948
0.00369873
0.00304913
0.00241743
0.00180023
0.00119401
0.000595154
0
0
0.000643819
0.00129164
0.00194743
0.0026151
0.00329846
0.00400117
0.00472676
0.00547856
0.00625964
0.00707285
0.00792074
0.00880552
0.00972907
0.0106929
0.011698
0.0127452
0.0138345
0.0149657
0.016138
0.0173502
0.0186004
0.0198863
0.021205
0.0225531
0.0239268
0.0253217
0.0267328
0.028155
0.0295823
0.0310088
0.032428
0.0338332
0.0352173
0.0365733
0.0378939
0.0391719
0.0403999
0.041571
0.0426779
0.0437141
0.0446731
0.0455488
0.0463356
0.0470284
0.0476226
0.0481143
0.0485003
0.0487778
0.0489451
0.049001
0.0489451
0.0487778
0.0485003
0.0481143
0.0476226
0.0470284
0.0463356
0.0455488
0.0446731
0.0437141
0.0426779
0.041571
0.0403999
0.0391719
0.0378939
0.0365733
0.0352173
0.0338332
0.032428
0.0310088
0.0295823
0.028155
0.0267328
0.0253217
0.0239268
0.0225531
0.021205
0.0198863
0.0186004
0.0173502
0.016138
0.0149657
0.0138345
0.0127452
0.011698
0.0106929
0.00972907
0.00880552
0.00792074
0.00707285
0.00625964
0.00547856
0.00472676
0.00400117
0.00329846
0.0026151
0.00194743
0.00129164
0.000643819
0
0
0.000694253
0.00139282
0.00209998
0.00281996
0.00355684
0.0043146
0.00509704
0.00590772
0.00674999
0.00762691
0.00854121
0.0094953
0.0104912
0.0115305
0.0126144
0.0137436
0.0149182
0.016138
0.0174022
0.0187093
0.0200575
0.0214441
0.0228661
0.0243198
0.0258011
0.0273053
0.028827
0.0303605
0.0318997
0.0334379
0.0349683
0.0364835
0.037976
0.0394382
0.0408623
0.0422404
0.0435647
0.0448274
0.0460211
0.0471385
0.0481726
0.0491168
0.0499653
0.0507123
0.0513531
0.0518834
0.0522995
0.0525988
0.0527792
0.0528395
0.0527792
0.0525988
0.0522995
0.0518834
0.0513531
0.0507123
0.0499653
0.0491168
0.0481726
0.0471385
0.0460211
0.0448274
0.0435647
0.0422404
0.0408623
0.0394382
0.037976
0.0364835
0.0349683
0.0334379
0.0318997
0.0303605
0.028827
0.0273053
0.0258011
0.0243198
0.0228661
0.0214441
0.0200575
0.0187093
0.0174022
0.016138
0.0149182
0.0137436
0.0126144
0.0115305
0.0104912
0.0094953
0.00854121
0.00762691
0.00674999
0.00590772
0.00509704
0.0043146
0.00355684
0.00281996
0.00209998
0.00139282
0.000694253
0
0
0.0007464
0.00149744
0.00225772
0.00303177
0.003824
0.00463868
0.00547989
0.00635146
0.007257
0.00819978
0.00918276
0.0102085
0.0112792
0.0123966
0.0135619
0.0147759
0.0160388
0.0173502
0.0187093
0.0201146
0.021564
0.0230548
0.0245836
0.0261466
0.0277391
0.0293562
0.0309922
0.0326409
0.0342957
0.0359495
0.0375948
0.0392238
0.0408285
0.0424006
0.0439316
0.0454132
0.0468369
0.0481945
0.0494779
0.0506792
0.0517909
0.0528061
0.0537183
0.0545215
0.0552104
0.0557804
0.0562279
0.0565496
0.0567436
0.0568084
0.0567436
0.0565496
0.0562279
0.0557804
0.0552104
0.0545215
0.0537183
0.0528061
0.0517909
0.0506792
0.0494779
0.0481945
0.0468369
0.0454132
0.0439316
0.0424006
0.0408285
0.0392238
0.0375948
0.0359495
0.0342957
0.0326409
0.0309922
0.0293562
0.0277391
0.0261466
0.0245836
0.0230548
0.021564
0.0201146
0.0187093
0.0173502
0.0160388
0.0147759
0.0135619
0.0123966
0.0112792
0.0102085
0.00918276
0.00819978
0.007257
0.00635146
0.00547989
0.00463868
0.003824
0.00303177
0.00225772
0.00149744
0.0007464
0
0
0.000800182
0.00160534
0.0024204
0.00325023
0.00409955
0.00497293
0.00587475
0.00680912
0.00777991
0.00879063
0.00984444
0.0109441
0.012092
0.0132898
0.0145391
0.0158406
0.0171944
0.0186004
0.0200575
0.021564
0.0231179
0.024716
0.026355
0.0280306
0.0297379
0.0314715
0.0332254
0.0349929
0.036767
0.0385399
0.0403038
0.0420502
0.0437704
0.0454558
0.0470971
0.0486855
0.0502118
0.0516672
0.0530431
0.0543309
0.0555228
0.0566111
0.057589
0.0584501
0.0591886
0.0597998
0.0602794
0.0606244
0.0608323
0.0609018
0.0608323
0.0606244
0.0602794
0.0597998
0.0591886
0.0584501
0.057589
0.0566111
0.0555228
0.0543309
0.0530431
0.0516672
0.0502118
0.0486855
0.0470971
0.0454558
0.0437704
0.0420502
0.0403038
0.0385399
0.036767
0.0349929
0.0332254
0.0314715
0.0297379
0.0280306
0.026355
0.024716
0.0231179
0.021564
0.0200575
0.0186004
0.0171944
0.0158406
0.0145391
0.0132898
0.012092
0.0109441
0.00984444
0.00879063
0.00777991
0.00680912
0.00587475
0.00497293
0.00409955
0.00325023
0.0024204
0.00160534
0.000800182
0
0
0.0008555
0.00171632
0.00258773
0.00347492
0.00438295
0.00531672
0.00628088
0.00727985
0.00831775
0.00939834
0.010525
0.0117007
0.0129279
0.0142086
0.0155442
0.0169356
0.0183831
0.0198863
0.0214441
0.0230548
0.024716
0.0264247
0.028177
0.0299684
0.0317937
0.0336472
0.0355223
0.037412
0.0393087
0.0412042
0.04309
0.0449572
0.0467964
0.0485982
0.050353
0.0520512
0.053683
0.0552391
0.05671
0.0580869
0.0593612
0.0605248
0.0615702
0.0624908
0.0632804
0.0639338
0.0644467
0.0648155
0.0650378
0.065112
0.0650378
0.0648155
0.0644467
0.0639338
0.0632804
0.0624908
0.0615702
0.0605248
0.0593612
0.0580869
0.05671
0.0552391
0.053683
0.0520512
0.050353
0.0485982
0.0467964
0.0449572
0.04309
0.0412042
0.0393087
0.037412
0.0355223
0.0336472
0.0317937
0.0299684
0.028177
0.0264247
0.024716
0.0230548
0.0214441
0.0198863
0.0183831
0.0169356
0.0155442
0.0142086
0.0129279
0.0117007
0.010525
0.00939834
0.00831775
0.00727985
0.00628088
0.00531672
0.00438295
0.00347492
0.00258773
0.00171632
0.0008555
0
0
0.00091223
0.00183013
0.00275933
0.00370535
0.0046736
0.00566928
0.00669738
0.00776259
0.00886932
0.0100216
0.0112229
0.0124766
0.0137852
0.0151508
0.016575
0.0180587
0.0196022
0.021205
0.0228661
0.0245836
0.026355
0.028177
0.0300454
0.0319556
0.033902
0.0358784
0.0378779
0.0398929
0.0419154
0.0439366
0.0459474
0.0479384
0.0498995
0.0518209
0.0536921
0.0555028
0.0572429
0.0589021
0.0604706
0.0619388
0.0632975
0.0645383
0.0656531
0.0666347
0.0674767
0.0681734
0.0687203
0.0691135
0.0693506
0.0694297
0.0693506
0.0691135
0.0687203
0.0681734
0.0674767
0.0666347
0.0656531
0.0645383
0.0632975
0.0619388
0.0604706
0.0589021
0.0572429
0.0555028
0.0536921
0.0518209
0.0498995
0.0479384
0.0459474
0.0439366
0.0419154
0.0398929
0.0378779
0.0358784
0.033902
0.0319556
0.0300454
0.028177
0.026355
0.0245836
0.0228661
0.021205
0.0196022
0.0180587
0.016575
0.0151508
0.0137852
0.0124766
0.0112229
0.0100216
0.00886932
0.00776259
0.00669738
0.00566928
0.0046736
0.00370535
0.00275933
0.00183013
0.00091223
0
0
0.000970227
0.00194649
0.00293476
0.00394093
0.00497073
0.00602971
0.00712317
0.00825612
0.0094332
0.0106587
0.0119365
0.0132698
0.0146616
0.016114
0.0176288
0.0192068
0.0208484
0.0225531
0.0243198
0.0261466
0.0280306
0.0299684
0.0319556
0.0339873
0.0360574
0.0381595
0.0402861
0.0424292
0.0445802
0.0467299
0.0488686
0.0509861
0.053072
0.0551155
0.0571056
0.0590315
0.0608822
0.0626469
0.0643151
0.0658766
0.0673218
0.0686414
0.0698271
0.0708712
0.0717667
0.0725077
0.0730893
0.0735075
0.0737596
0.0738439
0.0737596
0.0735075
0.0730893
0.0725077
0.0717667
0.0708712
0.0698271
0.0686414
0.0673218
0.0658766
0.0643151
0.0626469
0.0608822
0.0590315
0.0571056
0.0551155
0.053072
0.0509861
0.0488686
0.0467299
0.0445802
0.0424292
0.0402861
0.0381595
0.0360574
0.0339873
0.0319556
0.0299684
0.0280306
0.0261466
0.0243198
0.0225531
0.0208484
0.0192068
0.0176288
0.016114
0.0146616
0.0132698
0.0119365
0.0106587
0.0094332
0.00825612
0.00712317
0.00602971
0.00497073
0.00394093
0.00293476
0.00194649
0.000970227
0
0
0.00102932
0.00206504
0.00311351
0.00418097
0.0052735
0.00639698
0.00755704
0.00875899
0.0100078
0.0113079
0.0126635
0.0140781
0.0155546
0.0170955
0.0187025
0.0203767
0.0221183
0.0239268
0.0258011
0.0277391
0.0297379
0.0317937
0.033902
0.0360574
0.0382537
0.0404837
0.0427399
0.0450135
0.0472956
0.0495762
0.0518452
0.0540917
0.0563046
0.0584725
0.0605839
0.0626271
0.0645905
0.0664627
0.0682325
0.0698891
0.0714223
0.0728224
0.0740803
0.0751879
0.0761379
0.0769241
0.0775411
0.0779849
0.0782523
0.0783417
0.0782523
0.0779849
0.0775411
0.0769241
0.0761379
0.0751879
0.0740803
0.0728224
0.0714223
0.0698891
0.0682325
0.0664627
0.0645905
0.0626271
0.0605839
0.0584725
0.0563046
0.0540917
0.0518452
0.0495762
0.0472956
0.0450135
0.0427399
0.0404837
0.0382537
0.0360574
0.033902
0.0317937
0.0297379
0.0277391
0.0258011
0.0239268
0.0221183
0.0203767
0.0187025
0.0170955
0.0155546
0.0140781
0.0126635
0.0113079
0.0100078
0.00875899
0.00755704
0.00639698
0.0052735
0.00418097
0.00311351
0.00206504
0.00102932
0
0
0.00108933
0.00218543
0.00329502
0.0044247
0.00558092
0.00676991
0.0079976
0.00926961
0.0105912
0.0119671
0.0134017
0.0148988
0.0164614
0.0180921
0.0197928
0.0215646
0.0234077
0.0253217
0.0273053
0.0293562
0.0314715
0.0336472
0.0358784
0.0381595
0.0404837
0.0428438
0.0452315
0.0476377
0.0500528
0.0524664
0.0548676
0.0572451
0.059587
0.0618813
0.0641158
0.0662781
0.0683559
0.0703373
0.0722103
0.0739635
0.075586
0.0770677
0.0783989
0.0795711
0.0805765
0.0814085
0.0820615
0.0825311
0.0828142
0.0829087
0.0828142
0.0825311
0.0820615
0.0814085
0.0805765
0.0795711
0.0783989
0.0770677
0.075586
0.0739635
0.0722103
0.0703373
0.0683559
0.0662781
0.0641158
0.0618813
0.059587
0.0572451
0.0548676
0.0524664
0.0500528
0.0476377
0.0452315
0.0428438
0.0404837
0.0381595
0.0358784
0.0336472
0.0314715
0.0293562
0.0273053
0.0253217
0.0234077
0.0215646
0.0197928
0.0180921
0.0164614
0.0148988
0.0134017
0.0119671
0.0105912
0.00926961
0.0079976
0.00676991
0.00558092
0.0044247
0.00329502
0.00218543
0.00108933
0
0
0.00115004
0.00230722
0.00347865
0.00467129
0.00589194
0.00714719
0.00844329
0.0097862
0.0111814
0.0126341
0.0141486
0.0157291
0.0173788
0.0191004
0.0208959
0.0227663
0.0247122
0.0267328
0.028827
0.0309922
0.0332254
0.0355223
0.0378779
0.0402861
0.0427399
0.0452315
0.0477522
0.0502925
0.0528421
0.0553903
0.0579253
0.0604353
0.0629077
0.0653299
0.0676889
0.0699717
0.0721653
0.0742571
0.0762345
0.0780854
0.0797984
0.0813626
0.082768
0.0840055
0.085067
0.0859453
0.0866347
0.0871305
0.0874293
0.0875292
0.0874293
0.0871305
0.0866347
0.0859453
0.085067
0.0840055
0.082768
0.0813626
0.0797984
0.0780854
0.0762345
0.0742571
0.0721653
0.0699717
0.0676889
0.0653299
0.0629077
0.0604353
0.0579253
0.0553903
0.0528421
0.0502925
0.0477522
0.0452315
0.0427399
0.0402861
0.0378779
0.0355223
0.0332254
0.0309922
0.028827
0.0267328
0.0247122
0.0227663
0.0208959
0.0191004
0.0173788
0.0157291
0.0141486
0.0126341
0.0111814
0.0097862
0.00844329
0.00714719
0.00589194
0.00467129
0.00347865
0.00230722
0.00115004
0
0
0.00121122
0.00242996
0.0036637
0.00491979
0.00620538
0.0075274
0.00889246
0.0103068
0.0117763
0.0133062
0.0149013
0.0165658
0.0183033
0.0201165
0.0220075
0.0239775
0.0260268
0.028155
0.0303605
0.0326409
0.0349929
0.037412
0.0398929
0.0424292
0.0450135
0.0476377
0.0502925
0.0529679
0.0556532
0.0583369
0.0610068
0.0636503
0.0662542
0.0688053
0.0712898
0.073694
0.0760044
0.0782074
0.08029
0.0822393
0.0840434
0.0856909
0.0871711
0.0884744
0.0895923
0.0905174
0.0912435
0.0917657
0.0920804
0.0921855
0.0920804
0.0917657
0.0912435
0.0905174
0.0895923
0.0884744
0.0871711
0.0856909
0.0840434
0.0822393
0.08029
0.0782074
0.0760044
0.073694
0.0712898
0.0688053
0.0662542
0.0636503
0.0610068
0.0583369
0.0556532
0.0529679
0.0502925
0.0476377
0.0450135
0.0424292
0.0398929
0.037412
0.0349929
0.0326409
0.0303605
0.028155
0.0260268
0.0239775
0.0220075
0.0201165
0.0183033
0.0165658
0.0149013
0.0133062
0.0117763
0.0103068
0.00889246
0.0075274
0.00620538
0.00491979
0.0036637
0.00242996
0.00121122
0
0
0.00127262
0.00255315
0.00384944
0.00516921
0.00651997
0.00790902
0.00934328
0.0108293
0.0123733
0.0139807
0.0156567
0.0174057
0.0192312
0.0211363
0.0231232
0.025193
0.0273463
0.0295823
0.0318997
0.0342957
0.036767
0.0393087
0.0419154
0.0445802
0.0472956
0.0500528
0.0528421
0.0556532
0.0584747
0.0612944
0.0640997
0.0668771
0.0696131
0.0722935
0.0749039
0.0774301
0.0798576
0.0821723
0.0843604
0.0864086
0.0883042
0.0900351
0.0915904
0.0929598
0.0941344
0.0951064
0.0958693
0.0964179
0.0967486
0.096859
0.0967486
0.0964179
0.0958693
0.0951064
0.0941344
0.0929598
0.0915904
0.0900351
0.0883042
0.0864086
0.0843604
0.0821723
0.0798576
0.0774301
0.0749039
0.0722935
0.0696131
0.0668771
0.0640997
0.0612944
0.0584747
0.0556532
0.0528421
0.0500528
0.0472956
0.0445802
0.0419154
0.0393087
0.036767
0.0342957
0.0318997
0.0295823
0.0273463
0.025193
0.0231232
0.0211363
0.0192312
0.0174057
0.0156567
0.0139807
0.0123733
0.0108293
0.00934328
0.00790902
0.00651997
0.00516921
0.00384944
0.00255315
0.00127262
0
0
0.00133399
0.00267627
0.00403507
0.00541847
0.00683438
0.0082904
0.00979382
0.0113515
0.0129699
0.0146549
0.0164117
0.018245
0.0201586
0.0221556
0.0242382
0.0264079
0.028665
0.0310088
0.0334379
0.0359495
0.0385399
0.0412042
0.0439366
0.0467299
0.0495762
0.0524664
0.0553903
0.0583369
0.0612944
0.0642501
0.0671906
0.070102
0.07297
0.0757796
0.0785159
0.0811638
0.0837084
0.0861347
0.0884284
0.0905753
0.0925623
0.0943767
0.096007
0.0974424
0.0986737
0.0996925
0.100492
0.101067
0.101414
0.10153
0.101414
0.101067
0.100492
0.0996925
0.0986737
0.0974424
0.096007
0.0943767
0.0925623
0.0905753
0.0884284
0.0861347
0.0837084
0.0811638
0.0785159
0.0757796
0.07297
0.070102
0.0671906
0.0642501
0.0612944
0.0583369
0.0553903
0.0524664
0.0495762
0.0467299
0.0439366
0.0412042
0.0385399
0.0359495
0.0334379
0.0310088
0.028665
0.0264079
0.0242382
0.0221556
0.0201586
0.018245
0.0164117
0.0146549
0.0129699
0.0113515
0.00979382
0.0082904
0.00683438
0.00541847
0.00403507
0.00267627
0.00133399
0
0
0.00139504
0.00279875
0.00421974
0.00566646
0.00714716
0.00866982
0.0102421
0.0118711
0.0135635
0.0153256
0.0171628
0.01908
0.0210812
0.0231696
0.0253475
0.0276165
0.0299769
0.032428
0.0349683
0.0375948
0.0403038
0.04309
0.0459474
0.0488686
0.0518452
0.0548676
0.0579253
0.0610068
0.0640997
0.0671906
0.0702657
0.0733104
0.0763096
0.0792478
0.0821093
0.0848785
0.0875395
0.0900769
0.0924755
0.0947207
0.0967986
0.0986961
0.100401
0.101902
0.10319
0.104255
0.105091
0.105693
0.106055
0.106176
0.106055
0.105693
0.105091
0.104255
0.10319
0.101902
0.100401
0.0986961
0.0967986
0.0947207
0.0924755
0.0900769
0.0875395
0.0848785
0.0821093
0.0792478
0.0763096
0.0733104
0.0702657
0.0671906
0.0640997
0.0610068
0.0579253
0.0548676
0.0518452
0.0488686
0.0459474
0.04309
0.0403038
0.0375948
0.0349683
0.032428
0.0299769
0.0276165
0.0253475
0.0231696
0.0210812
0.01908
0.0171628
0.0153256
0.0135635
0.0118711
0.0102421
0.00866982
0.00714716
0.00566646
0.00421974
0.00279875
0.00139504
0
0
0.00145549
0.00292003
0.00440258
0.00591199
0.00745686
0.0090455
0.0106859
0.0123854
0.0141512
0.0159897
0.0179065
0.0199067
0.0219946
0.0241735
0.0264459
0.0288131
0.0312758
0.0338332
0.0364835
0.0392238
0.0420502
0.0449572
0.0479384
0.0509861
0.0540917
0.0572451
0.0604353
0.0636503
0.0668771
0.070102
0.0733104
0.076487
0.0796161
0.0826816
0.0856672
0.0885563
0.0913326
0.09398
0.0964825
0.098825
0.100993
0.102973
0.104751
0.106318
0.107661
0.108773
0.109645
0.110273
0.110651
0.110777
0.110651
0.110273
0.109645
0.108773
0.107661
0.106318
0.104751
0.102973
0.100993
0.098825
0.0964825
0.09398
0.0913326
0.0885563
0.0856672
0.0826816
0.0796161
0.076487
0.0733104
0.070102
0.0668771
0.0636503
0.0604353
0.0572451
0.0540917
0.0509861
0.0479384
0.0449572
0.0420502
0.0392238
0.0364835
0.0338332
0.0312758
0.0288131
0.0264459
0.0241735
0.0219946
0.0199067
0.0179065
0.0159897
0.0141512
0.0123854
0.0106859
0.0090455
0.00745686
0.00591199
0.00440258
0.00292003
0.00145549
0
0
0.00151503
0.00303949
0.0045827
0.00615385
0.00776192
0.00941555
0.011123
0.0128921
0.0147302
0.0166438
0.0186391
0.0207211
0.0228944
0.0251625
0.0275278
0.0299919
0.0325553
0.0352173
0.037976
0.0408285
0.0437704
0.0467964
0.0498995
0.053072
0.0563046
0.059587
0.0629077
0.0662542
0.0696131
0.07297
0.0763096
0.0796161
0.0828733
0.0860642
0.0891719
0.0921792
0.0950691
0.0978247
0.10043
0.102868
0.105125
0.107185
0.109037
0.110667
0.112065
0.113223
0.114131
0.114784
0.115178
0.115309
0.115178
0.114784
0.114131
0.113223
0.112065
0.110667
0.109037
0.107185
0.105125
0.102868
0.10043
0.0978247
0.0950691
0.0921792
0.0891719
0.0860642
0.0828733
0.0796161
0.0763096
0.07297
0.0696131
0.0662542
0.0629077
0.059587
0.0563046
0.053072
0.0498995
0.0467964
0.0437704
0.0408285
0.037976
0.0352173
0.0325553
0.0299919
0.0275278
0.0251625
0.0228944
0.0207211
0.0186391
0.0166438
0.0147302
0.0128921
0.011123
0.00941555
0.00776192
0.00615385
0.0045827
0.00303949
0.00151503
0
0
0.00157337
0.00315652
0.00475915
0.0063908
0.00806078
0.00977808
0.0115513
0.0133885
0.0152973
0.0172847
0.0193567
0.021519
0.023776
0.0261313
0.0285877
0.0311467
0.0338088
0.0365733
0.0394382
0.0424006
0.0454558
0.0485982
0.0518209
0.0551155
0.0584725
0.0618813
0.0653299
0.0688053
0.0722935
0.0757796
0.0792478
0.0826816
0.0860642
0.089378
0.0926053
0.0957284
0.0987296
0.101591
0.104297
0.106829
0.109172
0.111312
0.113235
0.114928
0.11638
0.117582
0.118525
0.119203
0.119612
0.119749
0.119612
0.119203
0.118525
0.117582
0.11638
0.114928
0.113235
0.111312
0.109172
0.106829
0.104297
0.101591
0.0987296
0.0957284
0.0926053
0.089378
0.0860642
0.0826816
0.0792478
0.0757796
0.0722935
0.0688053
0.0653299
0.0618813
0.0584725
0.0551155
0.0518209
0.0485982
0.0454558
0.0424006
0.0394382
0.0365733
0.0338088
0.0311467
0.0285877
0.0261313
0.023776
0.021519
0.0193567
0.0172847
0.0152973
0.0133885
0.0115513
0.00977808
0.00806078
0.0063908
0.00475915
0.00315652
0.00157337
0
0
0.00163018
0.0032705
0.00493099
0.00662157
0.00835185
0.0101312
0.0119684
0.013872
0.0158497
0.0179088
0.0200557
0.022296
0.0246345
0.0270749
0.02962
0.0322714
0.0350296
0.0378939
0.0408623
0.0439316
0.0470971
0.050353
0.0536921
0.0571056
0.0605839
0.0641158
0.0676889
0.0712898
0.0749039
0.0785159
0.0821093
0.0856672
0.0891719
0.0926053
0.0959492
0.0991851
0.102295
0.10526
0.108063
0.110686
0.113114
0.115332
0.117324
0.119078
0.120583
0.121828
0.122805
0.123508
0.123931
0.124073
0.123931
0.123508
0.122805
0.121828
0.120583
0.119078
0.117324
0.115332
0.113114
0.110686
0.108063
0.10526
0.102295
0.0991851
0.0959492
0.0926053
0.0891719
0.0856672
0.0821093
0.0785159
0.0749039
0.0712898
0.0676889
0.0641158
0.0605839
0.0571056
0.0536921
0.050353
0.0470971
0.0439316
0.0408623
0.0378939
0.0350296
0.0322714
0.02962
0.0270749
0.0246345
0.022296
0.0200557
0.0179088
0.0158497
0.013872
0.0119684
0.0101312
0.00835185
0.00662157
0.00493099
0.0032705
0.00163018
0
0
0.00168516
0.00338079
0.00509729
0.00684488
0.00863352
0.0104728
0.012372
0.0143398
0.0163842
0.0185128
0.0207321
0.0230479
0.0254653
0.027988
0.0306189
0.0333597
0.036211
0.0391719
0.0422404
0.0454132
0.0486855
0.0520512
0.0555028
0.0590315
0.0626271
0.0662781
0.0699717
0.073694
0.0774301
0.0811638
0.0848785
0.0885563
0.0921792
0.0957284
0.0991851
0.10253
0.105745
0.10881
0.111707
0.114419
0.116929
0.119221
0.121281
0.123094
0.124649
0.125936
0.126947
0.127673
0.128111
0.128257
0.128111
0.127673
0.126947
0.125936
0.124649
0.123094
0.121281
0.119221
0.116929
0.114419
0.111707
0.10881
0.105745
0.10253
0.0991851
0.0957284
0.0921792
0.0885563
0.0848785
0.0811638
0.0774301
0.073694
0.0699717
0.0662781
0.0626271
0.0590315
0.0555028
0.0520512
0.0486855
0.0454132
0.0422404
0.0391719
0.036211
0.0333597
0.0306189
0.027988
0.0254653
0.0230479
0.0207321
0.0185128
0.0163842
0.0143398
0.012372
0.0104728
0.00863352
0.00684488
0.00509729
0.00338079
0.00168516
0
0
0.00173799
0.00348678
0.0052571
0.00705947
0.00890418
0.0108012
0.0127599
0.0147894
0.0168979
0.0190932
0.021382
0.0237705
0.0262636
0.0288654
0.0315788
0.0344056
0.0373462
0.0403999
0.0435647
0.0468369
0.0502118
0.053683
0.0572429
0.0608822
0.0645905
0.0683559
0.0721653
0.0760044
0.0798576
0.0837084
0.0875395
0.0913326
0.0950691
0.0987296
0.102295
0.105745
0.10906
0.112221
0.115209
0.118006
0.120595
0.122959
0.125083
0.126953
0.128557
0.129885
0.130927
0.131676
0.132127
0.132278
0.132127
0.131676
0.130927
0.129885
0.128557
0.126953
0.125083
0.122959
0.120595
0.118006
0.115209
0.112221
0.10906
0.105745
0.102295
0.0987296
0.0950691
0.0913326
0.0875395
0.0837084
0.0798576
0.0760044
0.0721653
0.0683559
0.0645905
0.0608822
0.0572429
0.053683
0.0502118
0.0468369
0.0435647
0.0403999
0.0373462
0.0344056
0.0315788
0.0288654
0.0262636
0.0237705
0.021382
0.0190932
0.0168979
0.0147894
0.0127599
0.0108012
0.00890418
0.00705947
0.0052571
0.00348678
0.00173799
0
0
0.00178837
0.00358785
0.00540948
0.00726409
0.00916228
0.0111142
0.0131298
0.015218
0.0173877
0.0196466
0.0220018
0.0244595
0.0270249
0.0297021
0.0324942
0.0354028
0.0384287
0.041571
0.0448274
0.0481945
0.0516672
0.0552391
0.0589021
0.0626469
0.0664627
0.0703373
0.0742571
0.0782074
0.0821723
0.0861347
0.0900769
0.09398
0.0978247
0.101591
0.10526
0.10881
0.112221
0.115474
0.118549
0.121427
0.124091
0.126523
0.128709
0.130633
0.132284
0.133649
0.134721
0.135492
0.135957
0.136112
0.135957
0.135492
0.134721
0.133649
0.132284
0.130633
0.128709
0.126523
0.124091
0.121427
0.118549
0.115474
0.112221
0.10881
0.10526
0.101591
0.0978247
0.09398
0.0900769
0.0861347
0.0821723
0.0782074
0.0742571
0.0703373
0.0664627
0.0626469
0.0589021
0.0552391
0.0516672
0.0481945
0.0448274
0.041571
0.0384287
0.0354028
0.0324942
0.0297021
0.0270249
0.0244595
0.0220018
0.0196466
0.0173877
0.015218
0.0131298
0.0111142
0.00916228
0.00726409
0.00540948
0.00358785
0.00178837
0
0
0.00183599
0.00368339
0.00555352
0.00745753
0.00940626
0.0114102
0.0134794
0.0156233
0.0178507
0.0201698
0.0225877
0.0251108
0.0277445
0.030493
0.0333594
0.0363456
0.039452
0.0426779
0.0460211
0.0494779
0.0530431
0.05671
0.0604706
0.0643151
0.0682325
0.0722103
0.0762345
0.08029
0.0843604
0.0884284
0.0924755
0.0964825
0.10043
0.104297
0.108063
0.111707
0.115209
0.118549
0.121705
0.12466
0.127395
0.129892
0.132136
0.134111
0.135806
0.137208
0.138309
0.1391
0.139577
0.139737
0.139577
0.1391
0.138309
0.137208
0.135806
0.134111
0.132136
0.129892
0.127395
0.12466
0.121705
0.118549
0.115209
0.111707
0.108063
0.104297
0.10043
0.0964825
0.0924755
0.0884284
0.0843604
0.08029
0.0762345
0.0722103
0.0682325
0.0643151
0.0604706
0.05671
0.0530431
0.0494779
0.0460211
0.0426779
0.039452
0.0363456
0.0333594
0.030493
0.0277445
0.0251108
0.0225877
0.0201698
0.0178507
0.0156233
0.0134794
0.0114102
0.00940626
0.00745753
0.00555352
0.00368339
0.00183599
0
0
0.00188056
0.00377282
0.00568836
0.00763859
0.00963463
0.0116872
0.0138067
0.0160026
0.0182841
0.0206595
0.0231361
0.0257205
0.0284181
0.0312334
0.0341694
0.037228
0.0404099
0.0437141
0.0471385
0.0506792
0.0543309
0.0580869
0.0619388
0.0658766
0.0698891
0.0739635
0.0780854
0.0822393
0.0864086
0.0905753
0.0947207
0.098825
0.102868
0.106829
0.110686
0.114419
0.118006
0.121427
0.12466
0.127687
0.130488
0.133046
0.135344
0.137368
0.139103
0.14054
0.141667
0.142478
0.142966
0.14313
0.142966
0.142478
0.141667
0.14054
0.139103
0.137368
0.135344
0.133046
0.130488
0.127687
0.12466
0.121427
0.118006
0.114419
0.110686
0.106829
0.102868
0.098825
0.0947207
0.0905753
0.0864086
0.0822393
0.0780854
0.0739635
0.0698891
0.0658766
0.0619388
0.0580869
0.0543309
0.0506792
0.0471385
0.0437141
0.0404099
0.037228
0.0341694
0.0312334
0.0284181
0.0257205
0.0231361
0.0206595
0.0182841
0.0160026
0.0138067
0.0116872
0.00963463
0.00763859
0.00568836
0.00377282
0.00188056
0
0
0.00192182
0.00385558
0.00581315
0.00780616
0.00984599
0.0119436
0.0141095
0.0163537
0.0186852
0.0211127
0.0236436
0.0262847
0.0290416
0.0319186
0.034919
0.0380447
0.0412964
0.0446731
0.0481726
0.0517909
0.0555228
0.0593612
0.0632975
0.0673218
0.0714223
0.075586
0.0797984
0.0840434
0.0883042
0.0925623
0.0967986
0.100993
0.105125
0.109172
0.113114
0.116929
0.120595
0.124091
0.127395
0.130488
0.133351
0.135964
0.138313
0.140381
0.142155
0.143623
0.144775
0.145603
0.146103
0.146269
0.146103
0.145603
0.144775
0.143623
0.142155
0.140381
0.138313
0.135964
0.133351
0.130488
0.127395
0.124091
0.120595
0.116929
0.113114
0.109172
0.105125
0.100993
0.0967986
0.0925623
0.0883042
0.0840434
0.0797984
0.075586
0.0714223
0.0673218
0.0632975
0.0593612
0.0555228
0.0517909
0.0481726
0.0446731
0.0412964
0.0380447
0.034919
0.0319186
0.0290416
0.0262847
0.0236436
0.0211127
0.0186852
0.0163537
0.0141095
0.0119436
0.00984599
0.00780616
0.00581315
0.00385558
0.00192182
0
0
0.00195949
0.00393116
0.0059271
0.00795918
0.010039
0.0121777
0.0143861
0.0166742
0.0190515
0.0215265
0.0241071
0.0268
0.0296108
0.0325442
0.0356034
0.0387905
0.0421059
0.0455488
0.0491168
0.0528061
0.0566111
0.0605248
0.0645383
0.0686414
0.0728224
0.0770677
0.0813626
0.0856909
0.0900351
0.0943767
0.0986961
0.102973
0.107185
0.111312
0.115332
0.119221
0.122959
0.126523
0.129892
0.133046
0.135964
0.13863
0.141024
0.143133
0.144941
0.146438
0.147613
0.148457
0.148967
0.149137
0.148967
0.148457
0.147613
0.146438
0.144941
0.143133
0.141024
0.13863
0.135964
0.133046
0.129892
0.126523
0.122959
0.119221
0.115332
0.111312
0.107185
0.102973
0.0986961
0.0943767
0.0900351
0.0856909
0.0813626
0.0770677
0.0728224
0.0686414
0.0645383
0.0605248
0.0566111
0.0528061
0.0491168
0.0455488
0.0421059
0.0387905
0.0356034
0.0325442
0.0296108
0.0268
0.0241071
0.0215265
0.0190515
0.0166742
0.0143861
0.0121777
0.010039
0.00795918
0.0059271
0.00393116
0.00195949
0
0
0.00199334
0.00399907
0.00602948
0.00809666
0.0102124
0.0123881
0.0146346
0.0169622
0.0193806
0.0218984
0.0245235
0.0272629
0.0301223
0.0331064
0.0362184
0.0394605
0.0428332
0.0463356
0.0499653
0.0537183
0.057589
0.0615702
0.0656531
0.0698271
0.0740803
0.0783989
0.082768
0.0871711
0.0915904
0.096007
0.100401
0.104751
0.109037
0.113235
0.117324
0.121281
0.125083
0.128709
0.132136
0.135344
0.138313
0.141024
0.14346
0.145605
0.147445
0.148968
0.150162
0.151022
0.15154
0.151713
0.15154
0.151022
0.150162
0.148968
0.147445
0.145605
0.14346
0.141024
0.138313
0.135344
0.132136
0.128709
0.125083
0.121281
0.117324
0.113235
0.109037
0.104751
0.100401
0.096007
0.0915904
0.0871711
0.082768
0.0783989
0.0740803
0.0698271
0.0656531
0.0615702
0.057589
0.0537183
0.0499653
0.0463356
0.0428332
0.0394605
0.0362184
0.0331064
0.0301223
0.0272629
0.0245235
0.0218984
0.0193806
0.0169622
0.0146346
0.0123881
0.0102124
0.00809666
0.00602948
0.00399907
0.00199334
0
0
0.00202314
0.00405886
0.00611963
0.00821772
0.0103651
0.0125733
0.0148534
0.0172159
0.0196703
0.0222258
0.0248902
0.0276705
0.0305727
0.0336014
0.03676
0.0400505
0.0434736
0.0470284
0.0507123
0.0545215
0.0584501
0.0624908
0.0666347
0.0708712
0.0751879
0.0795711
0.0840055
0.0884744
0.0929598
0.0974424
0.101902
0.106318
0.110667
0.114928
0.119078
0.123094
0.126953
0.130633
0.134111
0.137368
0.140381
0.143133
0.145605
0.147782
0.14965
0.151195
0.152408
0.15328
0.153805
0.153981
0.153805
0.15328
0.152408
0.151195
0.14965
0.147782
0.145605
0.143133
0.140381
0.137368
0.134111
0.130633
0.126953
0.123094
0.119078
0.114928
0.110667
0.106318
0.101902
0.0974424
0.0929598
0.0884744
0.0840055
0.0795711
0.0751879
0.0708712
0.0666347
0.0624908
0.0584501
0.0545215
0.0507123
0.0470284
0.0434736
0.0400505
0.03676
0.0336014
0.0305727
0.0276705
0.0248902
0.0222258
0.0196703
0.0172159
0.0148534
0.0125733
0.0103651
0.00821772
0.00611963
0.00405886
0.00202314
0
0
0.00204871
0.00411015
0.00619695
0.00832155
0.0104961
0.0127322
0.0150411
0.0174334
0.0199189
0.0225066
0.0252047
0.0280202
0.030959
0.034026
0.0372245
0.0405566
0.0440229
0.0476226
0.0513531
0.0552104
0.0591886
0.0632804
0.0674767
0.0717667
0.0761379
0.0805765
0.085067
0.0895923
0.0941344
0.0986737
0.10319
0.107661
0.112065
0.11638
0.120583
0.124649
0.128557
0.132284
0.135806
0.139103
0.142155
0.144941
0.147445
0.14965
0.151541
0.153105
0.154333
0.155217
0.155749
0.155927
0.155749
0.155217
0.154333
0.153105
0.151541
0.14965
0.147445
0.144941
0.142155
0.139103
0.135806
0.132284
0.128557
0.124649
0.120583
0.11638
0.112065
0.107661
0.10319
0.0986737
0.0941344
0.0895923
0.085067
0.0805765
0.0761379
0.0717667
0.0674767
0.0632804
0.0591886
0.0552104
0.0513531
0.0476226
0.0440229
0.0405566
0.0372245
0.034026
0.030959
0.0280202
0.0252047
0.0225066
0.0199189
0.0174334
0.0150411
0.0127322
0.0104961
0.00832155
0.00619695
0.00411015
0.00204871
0
0
0.00206986
0.00415259
0.00626094
0.00840748
0.0106044
0.0128637
0.0151964
0.0176134
0.0201246
0.022739
0.025465
0.0283095
0.0312787
0.0343773
0.0376088
0.0409753
0.0444775
0.0481143
0.0518834
0.0557804
0.0597998
0.0639338
0.0681734
0.0725077
0.0769241
0.0814085
0.0859453
0.0905174
0.0951064
0.0996925
0.104255
0.108773
0.113223
0.117582
0.121828
0.125936
0.129885
0.133649
0.137208
0.14054
0.143623
0.146438
0.148968
0.151195
0.153105
0.154686
0.155927
0.156819
0.157357
0.157537
0.157357
0.156819
0.155927
0.154686
0.153105
0.151195
0.148968
0.146438
0.143623
0.14054
0.137208
0.133649
0.129885
0.125936
0.121828
0.117582
0.113223
0.108773
0.104255
0.0996925
0.0951064
0.0905174
0.0859453
0.0814085
0.0769241
0.0725077
0.0681734
0.0639338
0.0597998
0.0557804
0.0518834
0.0481143
0.0444775
0.0409753
0.0376088
0.0343773
0.0312787
0.0283095
0.025465
0.022739
0.0201246
0.0176134
0.0151964
0.0128637
0.0106044
0.00840748
0.00626094
0.00415259
0.00206986
0
0
0.00208646
0.00418589
0.00631116
0.00847492
0.0106895
0.0129668
0.0153183
0.0177547
0.020286
0.0229214
0.0256692
0.0285366
0.0315296
0.034653
0.0379105
0.041304
0.0448342
0.0485003
0.0522995
0.0562279
0.0602794
0.0644467
0.0687203
0.0730893
0.0775411
0.0820615
0.0866347
0.0912435
0.0958693
0.100492
0.105091
0.109645
0.114131
0.118525
0.122805
0.126947
0.130927
0.134721
0.138309
0.141667
0.144775
0.147613
0.150162
0.152408
0.154333
0.155927
0.157178
0.158077
0.158619
0.1588
0.158619
0.158077
0.157178
0.155927
0.154333
0.152408
0.150162
0.147613
0.144775
0.141667
0.138309
0.134721
0.130927
0.126947
0.122805
0.118525
0.114131
0.109645
0.105091
0.100492
0.0958693
0.0912435
0.0866347
0.0820615
0.0775411
0.0730893
0.0687203
0.0644467
0.0602794
0.0562279
0.0522995
0.0485003
0.0448342
0.041304
0.0379105
0.034653
0.0315296
0.0285366
0.0256692
0.0229214
0.020286
0.0177547
0.0153183
0.0129668
0.0106895
0.00847492
0.00631116
0.00418589
0.00208646
0
0
0.0020984
0.00420985
0.00634728
0.00852342
0.0107507
0.013041
0.015406
0.0178563
0.0204021
0.0230526
0.0258161
0.0286999
0.03171
0.0348513
0.0381274
0.0415404
0.0450908
0.0487778
0.0525988
0.0565496
0.0606244
0.0648155
0.0691135
0.0735075
0.0779849
0.0825311
0.0871305
0.0917657
0.0964179
0.101067
0.105693
0.110273
0.114784
0.119203
0.123508
0.127673
0.131676
0.135492
0.1391
0.142478
0.145603
0.148457
0.151022
0.15328
0.155217
0.156819
0.158077
0.158982
0.159527
0.159709
0.159527
0.158982
0.158077
0.156819
0.155217
0.15328
0.151022
0.148457
0.145603
0.142478
0.1391
0.135492
0.131676
0.127673
0.123508
0.119203
0.114784
0.110273
0.105693
0.101067
0.0964179
0.0917657
0.0871305
0.0825311
0.0779849
0.0735075
0.0691135
0.0648155
0.0606244
0.0565496
0.0525988
0.0487778
0.0450908
0.0415404
0.0381274
0.0348513
0.03171
0.0286999
0.0258161
0.0230526
0.0204021
0.0178563
0.015406
0.013041
0.0107507
0.00852342
0.00634728
0.00420985
0.0020984
0
0
0.0021056
0.00422429
0.00636905
0.00855265
0.0107875
0.0130858
0.0154588
0.0179175
0.0204721
0.0231317
0.0259046
0.0287983
0.0318188
0.0349709
0.0382582
0.0416828
0.0452455
0.0489451
0.0527792
0.0567436
0.0608323
0.0650378
0.0693506
0.0737596
0.0782523
0.0828142
0.0874293
0.0920804
0.0967486
0.101414
0.106055
0.110651
0.115178
0.119612
0.123931
0.128111
0.132127
0.135957
0.139577
0.142966
0.146103
0.148967
0.15154
0.153805
0.155749
0.157357
0.158619
0.159527
0.160074
0.160257
0.160074
0.159527
0.158619
0.157357
0.155749
0.153805
0.15154
0.148967
0.146103
0.142966
0.139577
0.135957
0.132127
0.128111
0.123931
0.119612
0.115178
0.110651
0.106055
0.101414
0.0967486
0.0920804
0.0874293
0.0828142
0.0782523
0.0737596
0.0693506
0.0650378
0.0608323
0.0567436
0.0527792
0.0489451
0.0452455
0.0416828
0.0382582
0.0349709
0.0318188
0.0287983
0.0259046
0.0231317
0.0204721
0.0179175
0.0154588
0.0130858
0.0107875
0.00855265
0.00636905
0.00422429
0.0021056
0
0
0.002108
0.00422911
0.00637632
0.00856241
0.0107999
0.0131007
0.0154765
0.017938
0.0204954
0.0231581
0.0259342
0.0288312
0.0318551
0.0350108
0.0383019
0.0417304
0.0452971
0.049001
0.0528395
0.0568084
0.0609018
0.065112
0.0694297
0.0738439
0.0783417
0.0829087
0.0875292
0.0921855
0.096859
0.10153
0.106176
0.110777
0.115309
0.119749
0.124073
0.128257
0.132278
0.136112
0.139737
0.14313
0.146269
0.149137
0.151713
0.153981
0.155927
0.157537
0.1588
0.159709
0.160257
0.16044
0.160257
0.159709
0.1588
0.157537
0.155927
0.153981
0.151713
0.149137
0.146269
0.14313
0.139737
0.136112
0.132278
0.128257
0.124073
0.119749
0.115309
0.110777
0.106176
0.10153
0.096859
0.0921855
0.0875292
0.0829087
0.0783417
0.0738439
0.0694297
0.065112
0.0609018
0.0568084
0.0528395
0.049001
0.0452971
0.0417304
0.0383019
0.0350108
0.0318551
0.0288312
0.0259342
0.0231581
0.0204954
0.017938
0.0154765
0.0131007
0.0107999
0.00856241
0.00637632
0.00422911
0.002108
0
0
0.0021056
0.00422429
0.00636905
0.00855265
0.0107875
0.0130858
0.0154588
0.0179175
0.0204721
0.0231317
0.0259046
0.0287983
0.0318188
0.0349709
0.0382582
0.0416828
0.0452455
0.0489451
0.0527792
0.0567436
0.0608323
0.0650378
0.0693506
0.0737596
0.0782523
0.0828142
0.0874293
0.0920804
0.0967486
0.101414
0.106055
0.110651
0.115178
0.119612
0.123931
0.128111
0.132127
0.135957
0.139577
0.142966
0.146103
0.148967
0.15154
0.153805
0.155749
0.157357
0.158619
0.159527
0.160074
0.160257
0.160074
0.159527
0.158619
0.157357
0.155749
0.153805
0.15154
0.148967
0.146103
0.142966
0.139577
0.135957
0.132127
0.128111
0.123931
0.119612
0.115178
0.110651
0.106055
0.101414
0.0967486
0.0920804
0.0874293
0.0828142
0.0782523
0.0737596
0.0693506
0.0650378
0.0608323
0.0567436
0.0527792
0.0489451
0.0452455
0.0416828
0.0382582
0.0349709
0.0318188
0.0287983
0.0259046
0.0231317
0.0204721
0.0179175
0.0154588
0.0130858
0.0107875
0.00855265
0.00636905
0.00422429
0.0021056
0
0
0.0020984
0.00420985
0.00634728
0.00852342
0.0107507
0.013041
0.015406
0.0178563
0.0204021
0.0230526
0.0258161
0.0286999
0.03171
0.0348513
0.0381274
0.0415404
0.0450908
0.0487778
0.0525988
0.0565496
0.0606244
0.0648155
0.0691135
0.0735075
0.0779849
0.0825311
0.0871305
0.0917657
0.0964179
0.101067
0.105693
0.110273
0.114784
0.119203
0.123508
0.127673
0.131676
0.135492
0.1391
0.142478
0.145603
0.148457
0.151022
0.15328
0.155217
0.156819
0.158077
0.158982
0.159527
0.159709
0.159527
0.158982
0.158077
0.156819
0.155217
0.15328
0.151022
0.148457
0.145603
0.142478
0.1391
0.135492
0.131676
0.127673
0.123508
0.119203
0.114784
0.110273
0.105693
0.101067
0.0964179
0.0917657
0.0871305
0.0825311
0.0779849
0.0735075
0.0691135
0.0648155
0.0606244
0.0565496
0.0525988
0.0487778
0.0450908
0.0415404
0.0381274
0.0348513
0.03171
0.0286999
0.0258161
0.0230526
0.0204021
0.0178563
0.015406
0.013041
0.0107507
0.00852342
0.00634728
0.00420985
0.0020984
0
0
0.00208646
0.00418589
0.00631116
0.00847492
0.0106895
0.0129668
0.0153183
0.0177547
0.020286
0.0229214
0.0256692
0.0285366
0.0315296
0.034653
0.0379105
0.041304
0.0448342
0.0485003
0.0522995
0.0562279
0.0602794
0.0644467
0.0687203
0.0730893
0.0775411
0.0820615
0.0866347
0.0912435
0.0958693
0.100492
0.105091
0.109645
0.114131
0.118525
0.122805
0.126947
0.130927
0.134721
0.138309
0.141667
0.144775
0.147613
0.150162
0.152408
0.154333
0.155927
0.157178
0.158077
0.158619
0.1588
0.158619
0.158077
0.157178
0.155927
0.154333
0.152408
0.150162
0.147613
0.144775
0.141667
0.138309
0.134721
0.130927
0.126947
0.122805
0.118525
0.114131
0.109645
0.105091
0.100492
0.0958693
0.0912435
0.0866347
0.0820615
0.0775411
0.0730893
0.0687203
0.0644467
0.0602794
0.0562279
0.0522995
0.0485003
0.0448342
0.041304
0.0379105
0.034653
0.0315296
0.0285366
0.0256692
0.0229214
0.020286
0.0177547
0.0153183
0.0129668
0.0106895
0.00847492
0.00631116
0.00418589
0.00208646
0
0
0.00206986
0.00415259
0.00626094
0.00840748
0.0106044
0.0128637
0.0151964
0.0176134
0.0201246
0.022739
0.025465
0.0283095
0.0312787
0.0343773
0.0376088
0.0409753
0.0444775
0.0481143
0.0518834
0.0557804
0.0597998
0.0639338
0.0681734
0.0725077
0.0769241
0.0814085
0.0859453
0.0905174
0.0951064
0.0996925
0.104255
0.108773
0.113223
0.117582
0.121828
0.125936
0.129885
0.133649
0.137208
0.14054
0.143623
0.146438
0.148968
0.151195
0.153105
0.154686
0.155927
0.156819
0.157357
0.157537
0.157357
0.156819
0.155927
0.154686
0.153105
0.151195
0.148968
0.146438
0.143623
0.14054
0.137208
0.133649
0.129885
0.125936
0.121828
0.117582
0.113223
0.108773
0.104255
0.0996925
0.0951064
0.0905174
0.0859453
0.0814085
0.0769241
0.0725077
0.0681734
0.0639338
0.0597998
0.0557804
0.0518834
0.0481143
0.0444775
0.0409753
0.0376088
0.0343773
0.0312787
0.0283095
0.025465
0.022739
0.0201246
0.0176134
0.0151964
0.0128637
0.0106044
0.00840748
0.00626094
0.00415259
0.00206986
0
0
0.00204871
0.00411015
0.00619695
0.00832155
0.0104961
0.0127322
0.0150411
0.0174334
0.0199189
0.0225066
0.0252047
0.0280202
0.030959
0.034026
0.0372245
0.0405566
0.0440229
0.0476226
0.0513531
0.0552104
0.0591886
0.0632804
0.0674767
0.0717667
0.0761379
0.0805765
0.085067
0.0895923
0.0941344
0.0986737
0.10319
0.107661
0.112065
0.11638
0.120583
0.124649
0.128557
0.132284
0.135806
0.139103
0.142155
0.144941
0.147445
0.14965
0.151541
0.153105
0.154333
0.155217
0.155749
0.155927
0.155749
0.155217
0.154333
0.153105
0.151541
0.14965
0.147445
0.144941
0.142155
0.139103
0.135806
0.132284
0.128557
0.124649
0.120583
0.11638
0.112065
0.107661
0.10319
0.0986737
0.0941344
0.0895923
0.085067
0.0805765
0.0761379
0.0717667
0.0674767
0.0632804
0.0591886
0.0552104
0.0513531
0.0476226
0.0440229
0.0405566
0.0372245
0.034026
0.030959
0.0280202
0.0252047
0.0225066
0.0199189
0.0174334
0.0150411
0.0127322
0.0104961
0.00832155
0.00619695
0.00411015
0.00204871
0
0
0.00202314
0.00405886
0.00611963
0.00821772
0.0103651
0.0125733
0.0148534
0.0172159
0.0196703
0.0222258
0.0248902
0.0276705
0.0305727
0.0336014
0.03676
0.0400505
0.0434736
0.0470284
0.0507123
0.0545215
0.0584501
0.0624908
0.0666347
0.0708712
0.0751879
0.0795711
0.0840055
0.0884744
0.0929598
0.0974424
0.101902
0.106318
0.110667
0.114928
0.119078
0.123094
0.126953
0.130633
0.134111
0.137368
0.140381
0.143133
0.145605
0.147782
0.14965
0.151195
0.152408
0.15328
0.153805
0.153981
0.153805
0.15328
0.152408
0.151195
0.14965
0.147782
0.145605
0.143133
0.140381
0.137368
0.134111
0.130633
0.126953
0.123094
0.119078
0.114928
0.110667
0.106318
0.101902
0.0974424
0.0929598
0.0884744
0.0840055
0.0795711
0.0751879
0.0708712
0.0666347
0.0624908
0.0584501
0.0545215
0.0507123
0.0470284
0.0434736
0.0400505
0.03676
0.0336014
0.0305727
0.0276705
0.0248902
0.0222258
0.0196703
0.0172159
0.0148534
0.0125733
0.0103651
0.00821772
0.00611963
0.00405886
0.00202314
0
0
0.00199334
0.00399907
0.00602948
0.00809666
0.0102124
0.0123881
0.0146346
0.0169622
0.0193806
0.0218984
0.0245235
0.0272629
0.0301223
0.0331064
0.0362184
0.0394605
0.0428332
0.0463356
0.0499653
0.0537183
0.057589
0.0615702
0.0656531
0.0698271
0.0740803
0.0783989
0.082768
0.0871711
0.0915904
0.096007
0.100401
0.104751
0.109037
0.113235
0.117324
0.121281
0.125083
0.128709
0.132136
0.135344
0.138313
0.141024
0.14346
0.145605
0.147445
0.148968
0.150162
0.151022
0.15154
0.151713
0.15154
0.151022
0.150162
0.148968
0.147445
0.145605
0.14346
0.141024
0.138313
0.135344
0.132136
0.128709
0.125083
0.121281
0.117324
0.113235
0.109037
0.104751
0.100401
0.096007
0.0915904
0.0871711
0.082768
0.0783989
0.0740803
0.0698271
0.0656531
0.0615702
0.057589
0.0537183
0.0499653
0.0463356
0.0428332
0.0394605
0.0362184
0.0331064
0.0301223
0.0272629
0.0245235
0.0218984
0.0193806
0.0169622
0.0146346
0.0123881
0.0102124
0.00809666
0.00602948
0.00399907
0.00199334
0
0
0.00195949
0.00393116
0.0059271
0.00795918
0.010039
0.0121777
0.0143861
0.0166742
0.0190515
0.0215265
0.0241071
0.0268
0.0296108
0.0325442
0.0356034
0.0387905
0.0421059
0.0455488
0.0491168
0.0528061
0.0566111
0.0605248
0.0645383
0.0686414
0.0728224
0.0770677
0.0813626
0.0856909
0.0900351
0.0943767
0.0986961
0.102973
0.107185
0.111312
0.115332
0.119221
0.122959
0.126523
0.129892
0.133046
0.135964
0.13863
0.141024
0.143133
0.144941
0.146438
0.147613
0.148457
0.148967
0.149137
0.148967
0.148457
0.147613
0.146438
0.144941
0.143133
0.141024
0.13863
0.135964
0.133046
0.129892
0.126523
0.122959
0.119221
0.115332
0.111312
0.107185
0.102973
0.0986961
0.0943767
0.0900351
0.0856909
0.0813626
0.0770677
0.0728224
0.0686414
0.0645383
0.0605248
0.0566111
0.0528061
0.0491168
0.0455488
0.0421059
0.0387905
0.0356034
0.0325442
0.0296108
0.0268
0.0241071
0.0215265
0.0190515
0.0166742
0.0143861
0.0121777
0.010039
0.00795918
0.0059271
0.00393116
0.00195949
0
0
0.00192182
0.00385558
0.00581315
0.00780616
0.00984599
0.0119436
0.0141095
0.0163537
0.0186852
0.0211127
0.0236436
0.0262847
0.0290416
0.0319186
0.034919
0.0380447
0.0412964
0.0446731
0.0481726
0.0517909
0.0555228
0.0593612
0.0632975
0.0673218
0.0714223
0.075586
0.0797984
0.0840434
0.0883042
0.0925623
0.0967986
0.100993
0.105125
0.109172
0.113114
0.116929
0.120595
0.124091
0.127395
0.130488
0.133351
0.135964
0.138313
0.140381
0.142155
0.143623
0.144775
0.145603
0.146103
0.146269
0.146103
0.145603
0.144775
0.143623
0.142155
0.140381
0.138313
0.135964
0.133351
0.130488
0.127395
0.124091
0.120595
0.116929
0.113114
0.109172
0.105125
0.100993
0.0967986
0.0925623
0.0883042
0.0840434
0.0797984
0.075586
0.0714223
0.0673218
0.0632975
0.0593612
0.0555228
0.0517909
0.0481726
0.0446731
0.0412964
0.0380447
0.034919
0.0319186
0.0290416
0.0262847
0.0236436
0.0211127
0.0186852
0.0163537
0.0141095
0.0119436
0.00984599
0.00780616
0.00581315
0.00385558
0.00192182
0
0
0.00188056
0.00377282
0.00568836
0.00763859
0.00963463
0.0116872
0.0138067
0.0160026
0.0182841
0.0206595
0.0231361
0.0257205
0.0284181
0.0312334
0.0341694
0.037228
0.0404099
0.0437141
0.0471385
0.0506792
0.0543309
0.0580869
0.0619388
0.0658766
0.0698891
0.0739635
0.0780854
0.0822393
0.0864086
0.0905753
0.0947207
0.098825
0.102868
0.106829
0.110686
0.114419
0.118006
0.121427
0.12466
0.127687
0.130488
0.133046
0.135344
0.137368
0.139103
0.14054
0.141667
0.142478
0.142966
0.14313
0.142966
0.142478
0.141667
0.14054
0.139103
0.137368
0.135344
0.133046
0.130488
0.127687
0.12466
0.121427
0.118006
0.114419
0.110686
0.106829
0.102868
0.098825
0.0947207
0.0905753
0.0864086
0.0822393
0.0780854
0.0739635
0.0698891
0.0658766
0.0619388
0.0580869
0.0543309
0.0506792
0.0471385
0.0437141
0.0404099
0.037228
0.0341694
0.0312334
0.0284181
0.0257205
0.0231361
0.0206595
0.0182841
0.0160026
0.0138067
0.0116872
0.00963463
0.00763859
0.00568836
0.00377282
0.00188056
0
0
0.00183599
0.00368339
0.00555352
0.00745753
0.00940626
0.0114102
0.0134794
0.0156233
0.0178507
0.0201698
0.0225877
0.0251108
0.0277445
0.030493
0.0333594
0.0363456
0.039452
0.0426779
0.0460211
0.0494779
0.0530431
0.05671
0.0604706
0.0643151
0.0682325
0.0722103
0.0762345
0.08029
0.0843604
0.0884284
0.0924755
0.0964825
0.10043
0.104297
0.108063
0.111707
0.115209
0.118549
0.121705
0.12466
0.127395
0.129892
0.132136
0.134111
0.135806
0.137208
0.138309
0.1391
0.139577
0.139737
0.139577
0.1391
0.138309
0.137208
0.135806
0.134111
0.132136
0.129892
0.127395
0.12466
0.121705
0.118549
0.115209
0.111707
0.108063
0.104297
0.10043
0.0964825
0.0924755
0.0884284
0.0843604
0.08029
0.0762345
0.0722103
0.0682325
0.0643151
0.0604706
0.05671
0.0530431
0.0494779
0.0460211
0.0426779
0.039452
0.0363456
0.0333594
0.030493
0.0277445
0.0251108
0.0225877
0.0201698
0.0178507
0.0156233
0.0134794
0.0114102
0.00940626
0.00745753
0.00555352
0.00368339
0.00183599
0
0
0.00178837
0.00358785
0.00540948
0.00726409
0.00916228
0.0111142
0.0131298
0.015218
0.0173877
0.0196466
0.0220018
0.0244595
0.0270249
0.0297021
0.0324942
0.0354028
0.0384287
0.041571
0.0448274
0.0481945
0.0516672
0.0552391
0.0589021
0.0626469
0.0664627
0.0703373
0.0742571
0.0782074
0.0821723
0.0861347
0.0900769
0.09398
0.0978247
0.101591
0.10526
0.10881
0.112221
0.115474
0.118549
0.121427
0.124091
0.126523
0.128709
0.130633
0.132284
0.133649
0.134721
0.135492
0.135957
0.136112
0.135957
0.135492
0.134721
0.133649
0.132284
0.130633
0.128709
0.126523
0.124091
0.121427
0.118549
0.115474
0.112221
0.10881
0.10526
0.101591
0.0978247
0.09398
0.0900769
0.0861347
0.0821723
0.0782074
0.0742571
0.0703373
0.0664627
0.0626469
0.0589021
0.0552391
0.0516672
0.0481945
0.0448274
0.041571
0.0384287
0.0354028
0.0324942
0.0297021
0.0270249
0.0244595
0.0220018
0.0196466
0.0173877
0.015218
0.0131298
0.0111142
0.00916228
0.00726409
0.00540948
0.00358785
0.00178837
0
0
0.00173799
0.00348678
0.0052571
0.00705947
0.00890418
0.0108012
0.0127599
0.0147894
0.0168979
0.0190932
0.021382
0.0237705
0.0262636
0.0288654
0.0315788
0.0344056
0.0373462
0.0403999
0.0435647
0.0468369
0.0502118
0.053683
0.0572429
0.0608822
0.0645905
0.0683559
0.0721653
0.0760044
0.0798576
0.0837084
0.0875395
0.0913326
0.0950691
0.0987296
0.102295
0.105745
0.10906
0.112221
0.115209
0.118006
0.120595
0.122959
0.125083
0.126953
0.128557
0.129885
0.130927
0.131676
0.132127
0.132278
0.132127
0.131676
0.130927
0.129885
0.128557
0.126953
0.125083
0.122959
0.120595
0.118006
0.115209
0.112221
0.10906
0.105745
0.102295
0.0987296
0.0950691
0.0913326
0.0875395
0.0837084
0.0798576
0.0760044
0.0721653
0.0683559
0.0645905
0.0608822
0.0572429
0.053683
0.0502118
0.0468369
0.0435647
0.0403999
0.0373462
0.0344056
0.0315788
0.0288654
0.0262636
0.0237705
0.021382
0.0190932
0.0168979
0.0147894
0.0127599
0.0108012
0.00890418
0.00705947
0.0052571
0.00348678
0.00173799
0
0
0.00168516
0.00338079
0.00509729
0.00684488
0.00863352
0.0104728
0.012372
0.0143398
0.0163842
0.0185128
0.0207321
0.0230479
0.0254653
0.027988
0.0306189
0.0333597
0.036211
0.0391719
0.0422404
0.0454132
0.0486855
0.0520512
0.0555028
0.0590315
0.0626271
0.0662781
0.0699717
0.073694
0.0774301
0.0811638
0.0848785
0.0885563
0.0921792
0.0957284
0.0991851
0.10253
0.105745
0.10881
0.111707
0.114419
0.116929
0.119221
0.121281
0.123094
0.124649
0.125936
0.126947
0.127673
0.128111
0.128257
0.128111
0.127673
0.126947
0.125936
0.124649
0.123094
0.121281
0.119221
0.116929
0.114419
0.111707
0.10881
0.105745
0.10253
0.0991851
0.0957284
0.0921792
0.0885563
0.0848785
0.0811638
0.0774301
0.073694
0.0699717
0.0662781
0.0626271
0.0590315
0.0555028
0.0520512
0.0486855
0.0454132
0.0422404
0.0391719
0.036211
0.0333597
0.0306189
0.027988
0.0254653
0.0230479
0.0207321
0.0185128
0.0163842
0.0143398
0.012372
0.0104728
0.00863352
0.00684488
0.00509729
0.00338079
0.00168516
0
0
0.00163018
0.0032705
0.00493099
0.00662157
0.00835185
0.0101312
0.0119684
0.013872
0.0158497
0.0179088
0.0200557
0.022296
0.0246345
0.0270749
0.02962
0.0322714
0.0350296
0.0378939
0.0408623
0.0439316
0.0470971
0.050353
0.0536921
0.0571056
0.0605839
0.0641158
0.0676889
0.0712898
0.0749039
0.0785159
0.0821093
0.0856672
0.0891719
0.0926053
0.0959492
0.0991851
0.102295
0.10526
0.108063
0.110686
0.113114
0.115332
0.117324
0.119078
0.120583
0.121828
0.122805
0.123508
0.123931
0.124073
0.123931
0.123508
0.122805
0.121828
0.120583
0.119078
0.117324
0.115332
0.113114
0.110686
0.108063
0.10526
0.102295
0.0991851
0.0959492
0.0926053
0.0891719
0.0856672
0.0821093
0.0785159
0.0749039
0.0712898
0.0676889
0.0641158
0.0605839
0.0571056
0.0536921
0.050353
0.0470971
0.0439316
0.0408623
0.0378939
0.0350296
0.0322714
0.02962
0.0270749
0.0246345
0.022296
0.0200557
0.0179088
0.0158497
0.013872
0.0119684
0.0101312
0.00835185
0.00662157
0.00493099
0.0032705
0.00163018
0
0
0.00157337
0.00315652
0.00475915
0.0063908
0.00806078
0.00977808
0.0115513
0.0133885
0.0152973
0.0172847
0.0193567
0.021519
0.023776
0.0261313
0.0285877
0.0311467
0.0338088
0.0365733
0.0394382
0.0424006
0.0454558
0.0485982
0.0518209
0.0551155
0.0584725
0.0618813
0.0653299
0.0688053
0.0722935
0.0757796
0.0792478
0.0826816
0.0860642
0.089378
0.0926053
0.0957284
0.0987296
0.101591
0.104297
0.106829
0.109172
0.111312
0.113235
0.114928
0.11638
0.117582
0.118525
0.119203
0.119612
0.119749
0.119612
0.119203
0.118525
0.117582
0.11638
0.114928
0.113235
0.111312
0.109172
0.106829
0.104297
0.101591
0.0987296
0.0957284
0.0926053
0.089378
0.0860642
0.0826816
0.0792478
0.0757796
0.0722935
0.0688053
0.0653299
0.0618813
0.0584725
0.0551155
0.0518209
0.0485982
0.0454558
0.0424006
0.0394382
0.0365733
0.0338088
0.0311467
0.0285877
0.0261313
0.023776
0.021519
0.0193567
0.0172847
0.0152973
0.0133885
0.0115513
0.00977808
0.00806078
0.0063908
0.00475915
0.00315652
0.00157337
0
0
0.00151503
0.00303949
0.0045827
0.00615385
0.00776192
0.00941555
0.011123
0.0128921
0.0147302
0.0166438
0.0186391
0.0207211
0.0228944
0.0251625
0.0275278
0.0299919
0.0325553
0.0352173
0.037976
0.0408285
0.0437704
0.0467964
0.0498995
0.053072
0.0563046
0.059587
0.0629077
0.0662542
0.0696131
0.07297
0.0763096
0.0796161
0.0828733
0.0860642
0.0891719
0.0921792
0.0950691
0.0978247
0.10043
0.102868
0.105125
0.107185
0.109037
0.110667
0.112065
0.113223
0.114131
0.114784
0.115178
0.115309
0.115178
0.114784
0.114131
0.113223
0.112065
0.110667
0.109037
0.107185
0.105125
0.102868
0.10043
0.0978247
0.0950691
0.0921792
0.0891719
0.0860642
0.0828733
0.0796161
0.0763096
0.07297
0.0696131
0.0662542
0.0629077
0.059587
0.0563046
0.053072
0.0498995
0.0467964
0.0437704
0.0408285
0.037976
0.0352173
0.0325553
0.0299919
0.0275278
0.0251625
0.0228944
0.0207211
0.0186391
0.0166438
0.0147302
0.0128921
0.011123
0.00941555
0.00776192
0.00615385
0.0045827
0.00303949
0.00151503
0
0
0.00145549
0.00292003
0.00440258
0.00591199
0.00745686
0.0090455
0.0106859
0.0123854
0.0141512
0.0159897
0.0179065
0.0199067
0.0219946
0.0241735
0.0264459
0.0288131
0.0312758
0.0338332
0.0364835
0.0392238
0.0420502
0.0449572
0.0479384
0.0509861
0.0540917
0.0572451
0.0604353
0.0636503
0.0668771
0.070102
0.0733104
0.076487
0.0796161
0.0826816
0.0856672
0.0885563
0.0913326
0.09398
0.0964825
0.098825
0.100993
0.102973
0.104751
0.106318
0.107661
0.108773
0.109645
0.110273
0.110651
0.110777
0.110651
0.110273
0.109645
0.108773
0.107661
0.106318
0.104751
0.102973
0.100993
0.098825
0.0964825
0.09398
0.0913326
0.0885563
0.0856672
0.0826816
0.0796161
0.076487
0.0733104
0.070102
0.0668771
0.0636503
0.0604353
0.0572451
0.0540917
0.0509861
0.0479384
0.0449572
0.0420502
0.0392238
0.0364835
0.0338332
0.0312758
0.0288131
0.0264459
0.0241735
0.0219946
0.0199067
0.0179065
0.0159897
0.0141512
0.0123854
0.0106859
0.0090455
0.00745686
0.00591199
0.00440258
0.00292003
0.00145549
0
0
0.00139504
0.00279875
0.00421974
0.00566646
0.00714716
0.00866982
0.0102421
0.0118711
0.0135635
0.0153256
0.0171628
0.01908
0.0210812
0.0231696
0.0253475
0.0276165
0.0299769
0.032428
0.0349683
0.0375948
0.0403038
0.04309
0.0459474
0.0488686
0.0518452
0.0548676
0.0579253
0.0610068
0.0640997
0.0671906
0.0702657
0.0733104
0.0763096
0.0792478
0.0821093
0.0848785
0.0875395
0.0900769
0.0924755
0.0947207
0.0967986
0.0986961
0.100401
0.101902
0.10319
0.104255
0.105091
0.105693
0.106055
0.106176
0.106055
0.105693
0.105091
0.104255
0.10319
0.101902
0.100401
0.0986961
0.0967986
0.0947207
0.0924755
0.0900769
0.0875395
0.0848785
0.0821093
0.0792478
0.0763096
0.0733104
0.0702657
0.0671906
0.0640997
0.0610068
0.0579253
0.0548676
0.0518452
0.0488686
0.0459474
0.04309
0.0403038
0.0375948
0.0349683
0.032428
0.0299769
0.0276165
0.0253475
0.0231696
0.0210812
0.01908
0.0171628
0.0153256
0.0135635
0.0118711
0.0102421
0.00866982
0.00714716
0.00566646
0.00421974
0.00279875
0.00139504
0
0
0.00133399
0.00267627
0.00403507
0.00541847
0.00683438
0.0082904
0.00979382
0.0113515
0.0129699
0.0146549
0.0164117
0.018245
0.0201586
0.0221556
0.0242382
0.0264079
0.028665
0.0310088
0.0334379
0.0359495
0.0385399
0.0412042
0.0439366
0.0467299
0.0495762
0.0524664
0.0553903
0.0583369
0.0612944
0.0642501
0.0671906
0.070102
0.07297
0.0757796
0.0785159
0.0811638
0.0837084
0.0861347
0.0884284
0.0905753
0.0925623
0.0943767
0.096007
0.0974424
0.0986737
0.0996925
0.100492
0.101067
0.101414
0.10153
0.101414
0.101067
0.100492
0.0996925
0.0986737
0.0974424
0.096007
0.0943767
0.0925623
0.0905753
0.0884284
0.0861347
0.0837084
0.0811638
0.0785159
0.0757796
0.07297
0.070102
0.0671906
0.0642501
0.0612944
0.0583369
0.0553903
0.0524664
0.0495762
0.0467299
0.0439366
0.0412042
0.0385399
0.0359495
0.0334379
0.0310088
0.028665
0.0264079
0.0242382
0.0221556
0.0201586
0.018245
0.0164117
0.0146549
0.0129699
0.0113515
0.00979382
0.0082904
0.00683438
0.00541847
0.00403507
0.00267627
0.00133399
0
0
0.00127262
0.00255315
0.00384944
0.00516921
0.00651997
0.00790902
0.00934328
0.0108293
0.0123733
0.0139807
0.0156567
0.0174057
0.0192312
0.0211363
0.0231232
0.025193
0.0273463
0.0295823
0.0318997
0.0342957
0.036767
0.0393087
0.0419154
0.0445802
0.0472956
0.0500528
0.0528421
0.0556532
0.0584747
0.0612944
0.0640997
0.0668771
0.0696131
0.0722935
0.0749039
0.0774301
0.0798576
0.0821723
0.0843604
0.0864086
0.0883042
0.0900351
0.0915904
0.0929598
0.0941344
0.0951064
0.0958693
0.0964179
0.0967486
0.096859
0.0967486
0.0964179
0.0958693
0.0951064
0.0941344
0.0929598
0.0915904
0.0900351
0.0883042
0.0864086
0.0843604
0.0821723
0.0798576
0.0774301
0.0749039
0.0722935
0.0696131
0.0668771
0.0640997
0.0612944
0.0584747
0.0556532
0.0528421
0.0500528
0.0472956
0.0445802
0.0419154
0.0393087
0.036767
0.0342957
0.0318997
0.0295823
0.0273463
0.025193
0.0231232
0.0211363
0.0192312
0.0174057
0.0156567
0.0139807
0.0123733
0.0108293
0.00934328
0.00790902
0.00651997
0.00516921
0.00384944
0.00255315
0.00127262
0
0
0.00121122
0.00242996
0.0036637
0.00491979
0.00620538
0.0075274
0.00889246
0.0103068
0.0117763
0.0133062
0.0149013
0.0165658
0.0183033
0.0201165
0.0220075
0.0239775
0.0260268
0.028155
0.0303605
0.0326409
0.0349929
0.037412
0.0398929
0.0424292
0.0450135
0.0476377
0.0502925
0.0529679
0.0556532
0.0583369
0.0610068
0.0636503
0.0662542
0.0688053
0.0712898
0.073694
0.0760044
0.0782074
0.08029
0.0822393
0.0840434
0.0856909
0.0871711
0.0884744
0.0895923
0.0905174
0.0912435
0.0917657
0.0920804
0.0921855
0.0920804
0.0917657
0.0912435
0.0905174
0.0895923
0.0884744
0.0871711
0.0856909
0.0840434
0.0822393
0.08029
0.0782074
0.0760044
0.073694
0.0712898
0.0688053
0.0662542
0.0636503
0.0610068
0.0583369
0.0556532
0.0529679
0.0502925
0.0476377
0.0450135
0.0424292
0.0398929
0.037412
0.0349929
0.0326409
0.0303605
0.028155
0.0260268
0.0239775
0.0220075
0.0201165
0.0183033
0.0165658
0.0149013
0.0133062
0.0117763
0.0103068
0.00889246
0.0075274
0.00620538
0.00491979
0.0036637
0.00242996
0.00121122
0
0
0.00115004
0.00230722
0.00347865
0.00467129
0.00589194
0.00714719
0.00844329
0.0097862
0.0111814
0.0126341
0.0141486
0.0157291
0.0173788
0.0191004
0.0208959
0.0227663
0.0247122
0.0267328
0.028827
0.0309922
0.0332254
0.0355223
0.0378779
0.0402861
0.0427399
0.0452315
0.0477522
0.0502925
0.0528421
0.0553903
0.0579253
0.0604353
0.0629077
0.0653299
0.0676889
0.0699717
0.0721653
0.0742571
0.0762345
0.0780854
0.0797984
0.0813626
0.082768
0.0840055
0.085067
0.0859453
0.0866347
0.0871305
0.0874293
0.0875292
0.0874293
0.0871305
0.0866347
0.0859453
0.085067
0.0840055
0.082768
0.0813626
0.0797984
0.0780854
0.0762345
0.0742571
0.0721653
0.0699717
0.0676889
0.0653299
0.0629077
0.0604353
0.0579253
0.0553903
0.0528421
0.0502925
0.0477522
0.0452315
0.0427399
0.0402861
0.0378779
0.0355223
0.0332254
0.0309922
0.028827
0.0267328
0.0247122
0.0227663
0.0208959
0.0191004
0.0173788
0.0157291
0.0141486
0.0126341
0.0111814
0.0097862
0.00844329
0.00714719
0.00589194
0.00467129
0.00347865
0.00230722
0.00115004
0
0
0.00108933
0.00218543
0.00329502
0.0044247
0.00558092
0.00676991
0.0079976
0.00926961
0.0105912
0.0119671
0.0134017
0.0148988
0.0164614
0.0180921
0.0197928
0.0215646
0.0234077
0.0253217
0.0273053
0.0293562
0.0314715
0.0336472
0.0358784
0.0381595
0.0404837
0.0428438
0.0452315
0.0476377
0.0500528
0.0524664
0.0548676
0.0572451
0.059587
0.0618813
0.0641158
0.0662781
0.0683559
0.0703373
0.0722103
0.0739635
0.075586
0.0770677
0.0783989
0.0795711
0.0805765
0.0814085
0.0820615
0.0825311
0.0828142
0.0829087
0.0828142
0.0825311
0.0820615
0.0814085
0.0805765
0.0795711
0.0783989
0.0770677
0.075586
0.0739635
0.0722103
0.0703373
0.0683559
0.0662781
0.0641158
0.0618813
0.059587
0.0572451
0.0548676
0.0524664
0.0500528
0.0476377
0.0452315
0.0428438
0.0404837
0.0381595
0.0358784
0.0336472
0.0314715
0.0293562
0.0273053
0.0253217
0.0234077
0.0215646
0.0197928
0.0180921
0.0164614
0.0148988
0.0134017
0.0119671
0.0105912
0.00926961
0.0079976
0.00676991
0.00558092
0.0044247
0.00329502
0.00218543
0.00108933
0
0
0.00102932
0.00206504
0.00311351
0.00418097
0.0052735
0.00639698
0.00755704
0.00875899
0.0100078
0.0113079
0.0126635
0.0140781
0.0155546
0.0170955
0.0187025
0.0203767
0.0221183
0.0239268
0.0258011
0.0277391
0.0297379
0.0317937
0.033902
0.0360574
0.0382537
0.0404837
0.0427399
0.0450135
0.0472956
0.0495762
0.0518452
0.0540917
0.0563046
0.0584725
0.0605839
0.0626271
0.0645905
0.0664627
0.0682325
0.0698891
0.0714223
0.0728224
0.0740803
0.0751879
0.0761379
0.0769241
0.0775411
0.0779849
0.0782523
0.0783417
0.0782523
0.0779849
0.0775411
0.0769241
0.0761379
0.0751879
0.0740803
0.0728224
0.0714223
0.0698891
0.0682325
0.0664627
0.0645905
0.0626271
0.0605839
0.0584725
0.0563046
0.0540917
0.0518452
0.0495762
0.0472956
0.0450135
0.0427399
0.0404837
0.0382537
0.0360574
0.033902
0.0317937
0.0297379
0.0277391
0.0258011
0.0239268
0.0221183
0.0203767
0.0187025
0.0170955
0.0155546
0.0140781
0.0126635
0.0113079
0.0100078
0.00875899
0.00755704
0.00639698
0.0052735
0.00418097
0.00311351
0.00206504
0.00102932
0
0
0.000970227
0.00194649
0.00293476
0.00394093
0.00497073
0.00602971
0.00712317
0.00825612
0.0094332
0.0106587
0.0119365
0.0132698
0.0146616
0.016114
0.0176288
0.0192068
0.0208484
0.0225531
0.0243198
0.0261466
0.0280306
0.0299684
0.0319556
0.0339873
0.0360574
0.0381595
0.0402861
0.0424292
0.0445802
0.0467299
0.0488686
0.0509861
0.053072
0.0551155
0.0571056
0.0590315
0.0608822
0.0626469
0.0643151
0.0658766
0.0673218
0.0686414
0.0698271
0.0708712
0.0717667
0.0725077
0.0730893
0.0735075
0.0737596
0.0738439
0.0737596
0.0735075
0.0730893
0.0725077
0.0717667
0.0708712
0.0698271
0.0686414
0.0673218
0.0658766
0.0643151
0.0626469
0.0608822
0.0590315
0.0571056
0.0551155
0.053072
0.0509861
0.0488686
0.0467299
0.0445802
0.0424292
0.0402861
0.0381595
0.0360574
0.0339873
0.0319556
0.0299684
0.0280306
0.0261466
0.0243198
0.0225531
0.0208484
0.0192068
0.0176288
0.016114
0.0146616
0.0132698
0.0119365
0.0106587
0.0094332
0.00825612
0.00712317
0.00602971
0.00497073
0.00394093
0.00293476
0.00194649
0.000970227
0
0
0.00091223
0.00183013
0.00275933
0.00370535
0.0046736
0.00566928
0.00669738
0.00776259
0.00886932
0.0100216
0.0112229
0.0124766
0.0137852
0.0151508
0.016575
0.0180587
0.0196022
0.021205
0.0228661
0.0245836
0.026355
0.028177
0.0300454
0.0319556
0.033902
0.0358784
0.0378779
0.0398929
0.0419154
0.0439366
0.0459474
0.0479384
0.0498995
0.0518209
0.0536921
0.0555028
0.0572429
0.0589021
0.0604706
0.0619388
0.0632975
0.0645383
0.0656531
0.0666347
0.0674767
0.0681734
0.0687203
0.0691135
0.0693506
0.0694297
0.0693506
0.0691135
0.0687203
0.0681734
0.0674767
0.0666347
0.0656531
0.0645383
0.0632975
0.0619388
0.0604706
0.0589021
0.0572429
0.0555028
0.0536921
0.0518209
0.0498995
0.0479384
0.0459474
0.0439366
0.0419154
0.0398929
0.0378779
0.0358784
0.033902
0.0319556
0.0300454
0.028177
0.026355
0.0245836
0.0228661
0.021205
0.0196022
0.0180587
0.016575
0.0151508
0.0137852
0.0124766
0.0112229
0.0100216
0.00886932
0.00776259
0.00669738
0.00566928
0.0046736
0.00370535
0.00275933
0.00183013
0.00091223
0
0
0.0008555
0.00171632
0.00258773
0.00347492
0.00438295
0.00531672
0.00628088
0.00727985
0.00831775
0.00939834
0.010525
0.0117007
0.0129279
0.0142086
0.0155442
0.0169356
0.0183831
0.0198863
0.0214441
0.0230548
0.024716
0.0264247
0.028177
0.0299684
0.0317937
0.0336472
0.0355223
0.037412
0.0393087
0.0412042
0.04309
0.0449572
0.0467964
0.0485982
0.050353
0.0520512
0.053683
0.0552391
0.05671
0.0580869
0.0593612
0.0605248
0.0615702
0.0624908
0.0632804
0.0639338
0.0644467
0.0648155
0.0650378
0.065112
0.0650378
0.0648155
0.0644467
0.0639338
0.0632804
0.0624908
0.0615702
0.0605248
0.0593612
0.0580869
0.05671
0.0552391
0.053683
0.0520512
0.050353
0.0485982
0.0467964
0.0449572
0.04309
0.0412042
0.0393087
0.037412
0.0355223
0.0336472
0.0317937
0.0299684
0.028177
0.0264247
0.024716
0.0230548
0.0214441
0.0198863
0.0183831
0.0169356
0.0155442
0.0142086
0.0129279
0.0117007
0.010525
0.00939834
0.00831775
0.00727985
0.00628088
0.00531672
0.00438295
0.00347492
0.00258773
0.00171632
0.0008555
0
0
0.000800182
0.00160534
0.0024204
0.00325023
0.00409955
0.00497293
0.00587475
0.00680912
0.00777991
0.00879063
0.00984444
0.0109441
0.012092
0.0132898
0.0145391
0.0158406
0.0171944
0.0186004
0.0200575
0.021564
0.0231179
0.024716
0.026355
0.0280306
0.0297379
0.0314715
0.0332254
0.0349929
0.036767
0.0385399
0.0403038
0.0420502
0.0437704
0.0454558
0.0470971
0.0486855
0.0502118
0.0516672
0.0530431
0.0543309
0.0555228
0.0566111
0.057589
0.0584501
0.0591886
0.0597998
0.0602794
0.0606244
0.0608323
0.0609018
0.0608323
0.0606244
0.0602794
0.0597998
0.0591886
0.0584501
0.057589
0.0566111
0.0555228
0.0543309
0.0530431
0.0516672
0.0502118
0.0486855
0.0470971
0.0454558
0.0437704
0.0420502
0.0403038
0.0385399
0.036767
0.0349929
0.0332254
0.0314715
0.0297379
0.0280306
0.026355
0.024716
0.0231179
0.021564
0.0200575
0.0186004
0.0171944
0.0158406
0.0145391
0.0132898
0.012092
0.0109441
0.00984444
0.00879063
0.00777991
0.00680912
0.00587475
0.00497293
0.00409955
0.00325023
0.0024204
0.00160534
0.000800182
0
0
0.0007464
0.00149744
0.00225772
0.00303177
0.003824
0.00463868
0.00547989
0.00635146
0.007257
0.00819978
0.00918276
0.0102085
0.0112792
0.0123966
0.0135619
0.0147759
0.0160388
0.0173502
0.0187093
0.0201146
0.021564
0.0230548
0.0245836
0.0261466
0.0277391
0.0293562
0.0309922
0.0326409
0.0342957
0.0359495
0.0375948
0.0392238
0.0408285
0.0424006
0.0439316
0.0454132
0.0468369
0.0481945
0.0494779
0.0506792
0.0517909
0.0528061
0.0537183
0.0545215
0.0552104
0.0557804
0.0562279
0.0565496
0.0567436
0.0568084
0.0567436
0.0565496
0.0562279
0.0557804
0.0552104
0.0545215
0.0537183
0.0528061
0.0517909
0.0506792
0.0494779
0.0481945
0.0468369
0.0454132
0.0439316
0.0424006
0.0408285
0.0392238
0.0375948
0.0359495
0.0342957
0.0326409
0.0309922
0.0293562
0.0277391
0.0261466
0.0245836
0.0230548
0.021564
0.0201146
0.0187093
0.0173502
0.0160388
0.0147759
0.0135619
0.0123966
0.0112792
0.0102085
0.00918276
0.00819978
0.007257
0.00635146
0.00547989
0.00463868
0.003824
0.00303177
0.00225772
0.00149744
0.0007464
0
0
0.000694253
0.00139282
0.00209998
0.00281996
0.00355684
0.0043146
0.00509704
0.00590772
0.00674999
0.00762691
0.00854121
0.0094953
0.0104912
0.0115305
0.0126144
0.0137436
0.0149182
0.016138
0.0174022
0.0187093
0.0200575
0.0214441
0.0228661
0.0243198
0.0258011
0.0273053
0.028827
0.0303605
0.0318997
0.0334379
0.0349683
0.0364835
0.037976
0.0394382
0.0408623
0.0422404
0.0435647
0.0448274
0.0460211
0.0471385
0.0481726
0.0491168
0.0499653
0.0507123
0.0513531
0.0518834
0.0522995
0.0525988
0.0527792
0.0528395
0.0527792
0.0525988
0.0522995
0.0518834
0.0513531
0.0507123
0.0499653
0.0491168
0.0481726
0.0471385
0.0460211
0.0448274
0.0435647
0.0422404
0.0408623
0.0394382
0.037976
0.0364835
0.0349683
0.0334379
0.0318997
0.0303605
0.028827
0.0273053
0.0258011
0.0243198
0.0228661
0.0214441
0.0200575
0.0187093
0.0174022
0.016138
0.0149182
0.0137436
0.0126144
0.0115305
0.0104912
0.0094953
0.00854121
0.00762691
0.00674999
0.00590772
0.00509704
0.0043146
0.00355684
0.00281996
0.00209998
0.00139282
0.000694253
0
0
0.000643819
0.00129164
0.00194743
0.0026151
0.00329846
0.00400117
0.00472676
0.00547856
0.00625964
0.00707285
0.00792074
0.00880552
0.00972907
0.0106929
0.011698
0.0127452
0.0138345
0.0149657
0.016138
0.0173502
0.0186004
0.0198863
0.021205
0.0225531
0.0239268
0.0253217
0.0267328
0.028155
0.0295823
0.0310088
0.032428
0.0338332
0.0352173
0.0365733
0.0378939
0.0391719
0.0403999
0.041571
0.0426779
0.0437141
0.0446731
0.0455488
0.0463356
0.0470284
0.0476226
0.0481143
0.0485003
0.0487778
0.0489451
0.049001
0.0489451
0.0487778
0.0485003
0.0481143
0.0476226
0.0470284
0.0463356
0.0455488
0.0446731
0.0437141
0.0426779
0.041571
0.0403999
0.0391719
0.0378939
0.0365733
0.0352173
0.0338332
0.032428
0.0310088
0.0295823
0.028155
0.0267328
0.0253217
0.0239268
0.0225531
0.021205
0.0198863
0.0186004
0.0173502
0.016138
0.0149657
0.0138345
0.0127452
0.011698
0.0106929
0.00972907
0.00880552
0.00792074
0.00707285
0.00625964
0.00547856
0.00472676
0.00400117
0.00329846
0.0026151
0.00194743
0.00129164
0.000643819
0
0
0.000595154
0.00119401
0.00180023
0.00241743
0.00304913
0.00369873
0.00436948
0.00506445
0.00578649
0.00653823
0.00732203
0.00813993
0.00899367
0.00988463
0.0108138
0.0117818
0.0127888
0.0138345
0.0149182
0.0160388
0.0171944
0.0183831
0.0196022
0.0208484
0.0221183
0.0234077
0.0247122
0.0260268
0.0273463
0.028665
0.0299769
0.0312758
0.0325553
0.0338088
0.0350296
0.036211
0.0373462
0.0384287
0.039452
0.0404099
0.0412964
0.0421059
0.0428332
0.0434736
0.0440229
0.0444775
0.0448342
0.0450908
0.0452455
0.0452971
0.0452455
0.0450908
0.0448342
0.0444775
0.0440229
0.0434736
0.0428332
0.0421059
0.0412964
0.0404099
0.039452
0.0384287
0.0373462
0.036211
0.0350296
0.0338088
0.0325553
0.0312758
0.0299769
0.028665
0.0273463
0.0260268
0.0247122
0.0234077
0.0221183
0.0208484
0.0196022
0.0183831
0.0171944
0.0160388
0.0149182
0.0138345
0.0127888
0.0117818
0.0108138
0.00988463
0.00899367
0.00813993
0.00732203
0.00653823
0.00578649
0.00506445
0.00436948
0.00369873
0.00304913
0.00241743
0.00180023
0.00119401
0.000595154
0
0
0.000548292
0.00109999
0.00165848
0.00222708
0.00280905
0.0034075
0.00402543
0.00466567
0.00533086
0.00602342
0.0067455
0.007499
0.00828551
0.00910631
0.00996232
0.0108541
0.0117818
0.0127452
0.0137436
0.0147759
0.0158406
0.0169356
0.0180587
0.0192068
0.0203767
0.0215646
0.0227663
0.0239775
0.025193
0.0264079
0.0276165
0.0288131
0.0299919
0.0311467
0.0322714
0.0333597
0.0344056
0.0354028
0.0363456
0.037228
0.0380447
0.0387905
0.0394605
0.0400505
0.0405566
0.0409753
0.041304
0.0415404
0.0416828
0.0417304
0.0416828
0.0415404
0.041304
0.0409753
0.0405566
0.0400505
0.0394605
0.0387905
0.0380447
0.037228
0.0363456
0.0354028
0.0344056
0.0333597
0.0322714
0.0311467
0.0299919
0.0288131
0.0276165
0.0264079
0.025193
0.0239775
0.0227663
0.0215646
0.0203767
0.0192068
0.0180587
0.0169356
0.0158406
0.0147759
0.0137436
0.0127452
0.0117818
0.0108541
0.00996232
0.00910631
0.00828551
0.007499
0.0067455
0.00602342
0.00533086
0.00466567
0.00402543
0.0034075
0.00280905
0.00222708
0.00165848
0.00109999
0.000548292
0
0
0.000503244
0.00100962
0.00152222
0.00204411
0.00257826
0.00312754
0.0036947
0.00428234
0.00489288
0.00552853
0.00619129
0.00688288
0.00760478
0.00835814
0.00914382
0.00996232
0.0108138
0.011698
0.0126144
0.0135619
0.0145391
0.0155442
0.016575
0.0176288
0.0187025
0.0197928
0.0208959
0.0220075
0.0231232
0.0242382
0.0253475
0.0264459
0.0275278
0.0285877
0.02962
0.0306189
0.0315788
0.0324942
0.0333594
0.0341694
0.034919
0.0356034
0.0362184
0.03676
0.0372245
0.0376088
0.0379105
0.0381274
0.0382582
0.0383019
0.0382582
0.0381274
0.0379105
0.0376088
0.0372245
0.03676
0.0362184
0.0356034
0.034919
0.0341694
0.0333594
0.0324942
0.0315788
0.0306189
0.02962
0.0285877
0.0275278
0.0264459
0.0253475
0.0242382
0.0231232
0.0220075
0.0208959
0.0197928
0.0187025
0.0176288
0.016575
0.0155442
0.0145391
0.0135619
0.0126144
0.011698
0.0108138
0.00996232
0.00914382
0.00835814
0.00760478
0.00688288
0.00619129
0.00552853
0.00489288
0.00428234
0.0036947
0.00312754
0.00257826
0.00204411
0.00152222
0.00100962
0.000503244
0
0
0.000460003
0.000922866
0.00139142
0.00186847
0.00235672
0.0028588
0.00337723
0.00391438
0.00447246
0.0050535
0.0056593
0.00629147
0.00695134
0.00763997
0.00835814
0.00910631
0.00988463
0.0106929
0.0115305
0.0123966
0.0132898
0.0142086
0.0151508
0.016114
0.0170955
0.0180921
0.0191004
0.0201165
0.0211363
0.0221556
0.0231696
0.0241735
0.0251625
0.0261313
0.0270749
0.027988
0.0288654
0.0297021
0.030493
0.0312334
0.0319186
0.0325442
0.0331064
0.0336014
0.034026
0.0343773
0.034653
0.0348513
0.0349709
0.0350108
0.0349709
0.0348513
0.034653
0.0343773
0.034026
0.0336014
0.0331064
0.0325442
0.0319186
0.0312334
0.030493
0.0297021
0.0288654
0.027988
0.0270749
0.0261313
0.0251625
0.0241735
0.0231696
0.0221556
0.0211363
0.0201165
0.0191004
0.0180921
0.0170955
0.016114
0.0151508
0.0142086
0.0132898
0.0123966
0.0115305
0.0106929
0.00988463
0.00910631
0.00835814
0.00763997
0.00695134
0.00629147
0.0056593
0.0050535
0.00447246
0.00391438
0.00337723
0.0028588
0.00235672
0.00186847
0.00139142
0.000922866
0.000460003
0
0
0.000418541
0.000839683
0.00126601
0.00170005
0.0021443
0.00260112
0.00307283
0.00356156
0.00406934
0.004598
0.0051492
0.00572439
0.00632478
0.00695134
0.00760478
0.00828551
0.00899367
0.00972907
0.0104912
0.0112792
0.012092
0.0129279
0.0137852
0.0146616
0.0155546
0.0164614
0.0173788
0.0183033
0.0192312
0.0201586
0.0210812
0.0219946
0.0228944
0.023776
0.0246345
0.0254653
0.0262636
0.0270249
0.0277445
0.0284181
0.0290416
0.0296108
0.0301223
0.0305727
0.030959
0.0312787
0.0315296
0.03171
0.0318188
0.0318551
0.0318188
0.03171
0.0315296
0.0312787
0.030959
0.0305727
0.0301223
0.0296108
0.0290416
0.0284181
0.0277445
0.0270249
0.0262636
0.0254653
0.0246345
0.023776
0.0228944
0.0219946
0.0210812
0.0201586
0.0192312
0.0183033
0.0173788
0.0164614
0.0155546
0.0146616
0.0137852
0.0129279
0.012092
0.0112792
0.0104912
0.00972907
0.00899367
0.00828551
0.00760478
0.00695134
0.00632478
0.00572439
0.0051492
0.004598
0.00406934
0.00356156
0.00307283
0.00260112
0.0021443
0.00170005
0.00126601
0.000839683
0.000418541
0
0
0.00037881
0.000759975
0.00114583
0.00153867
0.00194074
0.00235421
0.00278113
0.00322347
0.00368305
0.00416152
0.0046604
0.00518099
0.00572439
0.00629147
0.00688288
0.007499
0.00813993
0.00880552
0.0094953
0.0102085
0.0109441
0.0117007
0.0124766
0.0132698
0.0140781
0.0148988
0.0157291
0.0165658
0.0174057
0.018245
0.01908
0.0199067
0.0207211
0.021519
0.022296
0.0230479
0.0237705
0.0244595
0.0251108
0.0257205
0.0262847
0.0268
0.0272629
0.0276705
0.0280202
0.0283095
0.0285366
0.0286999
0.0287983
0.0288312
0.0287983
0.0286999
0.0285366
0.0283095
0.0280202
0.0276705
0.0272629
0.0268
0.0262847
0.0257205
0.0251108
0.0244595
0.0237705
0.0230479
0.022296
0.021519
0.0207211
0.0199067
0.01908
0.018245
0.0174057
0.0165658
0.0157291
0.0148988
0.0140781
0.0132698
0.0124766
0.0117007
0.0109441
0.0102085
0.0094953
0.00880552
0.00813993
0.007499
0.00688288
0.00629147
0.00572439
0.00518099
0.0046604
0.00416152
0.00368305
0.00322347
0.00278113
0.00235421
0.00194074
0.00153867
0.00114583
0.000759975
0.00037881
0
0
0.000340747
0.000683612
0.0010307
0.00138407
0.00174574
0.00211766
0.00250168
0.00289958
0.00331297
0.00374337
0.00419212
0.0046604
0.0051492
0.0056593
0.00619129
0.0067455
0.00732203
0.00792074
0.00854121
0.00918276
0.00984444
0.010525
0.0112229
0.0119365
0.0126635
0.0134017
0.0141486
0.0149013
0.0156567
0.0164117
0.0171628
0.0179065
0.0186391
0.0193567
0.0200557
0.0207321
0.021382
0.0220018
0.0225877
0.0231361
0.0236436
0.0241071
0.0245235
0.0248902
0.0252047
0.025465
0.0256692
0.0258161
0.0259046
0.0259342
0.0259046
0.0258161
0.0256692
0.025465
0.0252047
0.0248902
0.0245235
0.0241071
0.0236436
0.0231361
0.0225877
0.0220018
0.021382
0.0207321
0.0200557
0.0193567
0.0186391
0.0179065
0.0171628
0.0164117
0.0156567
0.0149013
0.0141486
0.0134017
0.0126635
0.0119365
0.0112229
0.010525
0.00984444
0.00918276
0.00854121
0.00792074
0.00732203
0.0067455
0.00619129
0.0056593
0.0051492
0.0046604
0.00419212
0.00374337
0.00331297
0.00289958
0.00250168
0.00211766
0.00174574
0.00138407
0.0010307
0.000683612
0.000340747
0
0
0.000304271
0.000610434
0.000920365
0.00123591
0.00155886
0.00189097
0.00223389
0.00258919
0.00295833
0.00334266
0.00374337
0.00416152
0.004598
0.0050535
0.00552853
0.00602342
0.00653823
0.00707285
0.00762691
0.00819978
0.00879063
0.00939834
0.0100216
0.0106587
0.0113079
0.0119671
0.0126341
0.0133062
0.0139807
0.0146549
0.0153256
0.0159897
0.0166438
0.0172847
0.0179088
0.0185128
0.0190932
0.0196466
0.0201698
0.0206595
0.0211127
0.0215265
0.0218984
0.0222258
0.0225066
0.022739
0.0229214
0.0230526
0.0231317
0.0231581
0.0231317
0.0230526
0.0229214
0.022739
0.0225066
0.0222258
0.0218984
0.0215265
0.0211127
0.0206595
0.0201698
0.0196466
0.0190932
0.0185128
0.0179088
0.0172847
0.0166438
0.0159897
0.0153256
0.0146549
0.0139807
0.0133062
0.0126341
0.0119671
0.0113079
0.0106587
0.0100216
0.00939834
0.00879063
0.00819978
0.00762691
0.00707285
0.00653823
0.00602342
0.00552853
0.0050535
0.004598
0.00416152
0.00374337
0.00334266
0.00295833
0.00258919
0.00223389
0.00189097
0.00155886
0.00123591
0.000920365
0.000610434
0.000304271
0
0
0.000269287
0.000540249
0.000814544
0.00109381
0.00137963
0.00167355
0.00197704
0.00229149
0.00261819
0.00295833
0.00331297
0.00368305
0.00406934
0.00447246
0.00489288
0.00533086
0.00578649
0.00625964
0.00674999
0.007257
0.00777991
0.00831775
0.00886932
0.0094332
0.0100078
0.0105912
0.0111814
0.0117763
0.0123733
0.0129699
0.0135635
0.0141512
0.0147302
0.0152973
0.0158497
0.0163842
0.0168979
0.0173877
0.0178507
0.0182841
0.0186852
0.0190515
0.0193806
0.0196703
0.0199189
0.0201246
0.020286
0.0204021
0.0204721
0.0204954
0.0204721
0.0204021
0.020286
0.0201246
0.0199189
0.0196703
0.0193806
0.0190515
0.0186852
0.0182841
0.0178507
0.0173877
0.0168979
0.0163842
0.0158497
0.0152973
0.0147302
0.0141512
0.0135635
0.0129699
0.0123733
0.0117763
0.0111814
0.0105912
0.0100078
0.0094332
0.00886932
0.00831775
0.00777991
0.007257
0.00674999
0.00625964
0.00578649
0.00533086
0.00489288
0.00447246
0.00406934
0.00368305
0.00331297
0.00295833
0.00261819
0.00229149
0.00197704
0.00167355
0.00137963
0.00109381
0.000814544
0.000540249
0.000269287
0
0
0.000235685
0.000472836
0.000712904
0.000957321
0.00120748
0.00146472
0.00173035
0.00200556
0.00229149
0.00258919
0.00289958
0.00322347
0.00356156
0.00391438
0.00428234
0.00466567
0.00506445
0.00547856
0.00590772
0.00635146
0.00680912
0.00727985
0.00776259
0.00825612
0.00875899
0.00926961
0.0097862
0.0103068
0.0108293
0.0113515
0.0118711
0.0123854
0.0128921
0.0133885
0.013872
0.0143398
0.0147894
0.015218
0.0156233
0.0160026
0.0163537
0.0166742
0.0169622
0.0172159
0.0174334
0.0176134
0.0177547
0.0178563
0.0179175
0.017938
0.0179175
0.0178563
0.0177547
0.0176134
0.0174334
0.0172159
0.0169622
0.0166742
0.0163537
0.0160026
0.0156233
0.015218
0.0147894
0.0143398
0.013872
0.0133885
0.0128921
0.0123854
0.0118711
0.0113515
0.0108293
0.0103068
0.0097862
0.00926961
0.00875899
0.00825612
0.00776259
0.00727985
0.00680912
0.00635146
0.00590772
0.00547856
0.00506445
0.00466567
0.00428234
0.00391438
0.00356156
0.00322347
0.00289958
0.00258919
0.00229149
0.00200556
0.00173035
0.00146472
0.00120748
0.000957321
0.000712904
0.000472836
0.000235685
0
0
0.000203344
0.000407951
0.000615077
0.000825953
0.00104178
0.00126373
0.0014929
0.00173035
0.00197704
0.00223389
0.00250168
0.00278113
0.00307283
0.00337723
0.0036947
0.00402543
0.00436948
0.00472676
0.00509704
0.00547989
0.00587475
0.00628088
0.00669738
0.00712317
0.00755704
0.0079976
0.00844329
0.00889246
0.00934328
0.00979382
0.0102421
0.0106859
0.011123
0.0115513
0.0119684
0.012372
0.0127599
0.0131298
0.0134794
0.0138067
0.0141095
0.0143861
0.0146346
0.0148534
0.0150411
0.0151964
0.0153183
0.015406
0.0154588
0.0154765
0.0154588
0.015406
0.0153183
0.0151964
0.0150411
0.0148534
0.0146346
0.0143861
0.0141095
0.0138067
0.0134794
0.0131298
0.0127599
0.012372
0.0119684
0.0115513
0.011123
0.0106859
0.0102421
0.00979382
0.00934328
0.00889246
0.00844329
0.0079976
0.00755704
0.00712317
0.00669738
0.00628088
0.00587475
0.00547989
0.00509704
0.00472676
0.00436948
0.00402543
0.0036947
0.00337723
0.00307283
0.00278113
0.00250168
0.00223389
0.00197704
0.00173035
0.0014929
0.00126373
0.00104178
0.000825953
0.000615077
0.000407951
0.000203344
0
0
0.000172129
0.000345328
0.000520658
0.000699163
0.000881862
0.00106974
0.00126373
0.00146472
0.00167355
0.00189097
0.00211766
0.00235421
0.00260112
0.0028588
0.00312754
0.0034075
0.00369873
0.00400117
0.0043146
0.00463868
0.00497293
0.00531672
0.00566928
0.00602971
0.00639698
0.00676991
0.00714719
0.0075274
0.00790902
0.0082904
0.00866982
0.0090455
0.00941555
0.00977808
0.0101312
0.0104728
0.0108012
0.0111142
0.0114102
0.0116872
0.0119436
0.0121777
0.0123881
0.0125733
0.0127322
0.0128637
0.0129668
0.013041
0.0130858
0.0131007
0.0130858
0.013041
0.0129668
0.0128637
0.0127322
0.0125733
0.0123881
0.0121777
0.0119436
0.0116872
0.0114102
0.0111142
0.0108012
0.0104728
0.0101312
0.00977808
0.00941555
0.0090455
0.00866982
0.0082904
0.00790902
0.0075274
0.00714719
0.00676991
0.00639698
0.00602971
0.00566928
0.00531672
0.00497293
0.00463868
0.0043146
0.00400117
0.00369873
0.0034075
0.00312754
0.0028588
0.00260112
0.00235421
0.00211766
0.00189097
0.00167355
0.00146472
0.00126373
0.00106974
0.000881862
0.000699163
0.000520658
0.000345328
0.000172129
0
0
0.000141898
0.000284679
0.000429216
0.000576371
0.000726983
0.000881862
0.00104178
0.00120748
0.00137963
0.00155886
0.00174574
0.00194074
0.0021443
0.00235672
0.00257826
0.00280905
0.00304913
0.00329846
0.00355684
0.003824
0.00409955
0.00438295
0.0046736
0.00497073
0.0052735
0.00558092
0.00589194
0.00620538
0.00651997
0.00683438
0.00714716
0.00745686
0.00776192
0.00806078
0.00835185
0.00863352
0.00890418
0.00916228
0.00940626
0.00963463
0.00984599
0.010039
0.0102124
0.0103651
0.0104961
0.0106044
0.0106895
0.0107507
0.0107875
0.0107999
0.0107875
0.0107507
0.0106895
0.0106044
0.0104961
0.0103651
0.0102124
0.010039
0.00984599
0.00963463
0.00940626
0.00916228
0.00890418
0.00863352
0.00835185
0.00806078
0.00776192
0.00745686
0.00714716
0.00683438
0.00651997
0.00620538
0.00589194
0.00558092
0.0052735
0.00497073
0.0046736
0.00438295
0.00409955
0.003824
0.00355684
0.00329846
0.00304913
0.00280905
0.00257826
0.00235672
0.0021443
0.00194074
0.00174574
0.00155886
0.00137963
0.00120748
0.00104178
0.000881862
0.000726983
0.000576371
0.000429216
0.000284679
0.000141898
0
0
0.000112501
0.000225701
0.000340294
0.000456962
0.000576371
0.000699163
0.000825953
0.000957321
0.00109381
0.00123591
0.00138407
0.00153867
0.00170005
0.00186847
0.00204411
0.00222708
0.00241743
0.0026151
0.00281996
0.00303177
0.00325023
0.00347492
0.00370535
0.00394093
0.00418097
0.0044247
0.00467129
0.00491979
0.00516921
0.00541847
0.00566646
0.00591199
0.00615385
0.0063908
0.00662157
0.00684488
0.00705947
0.00726409
0.00745753
0.00763859
0.00780616
0.00795918
0.00809666
0.00821772
0.00832155
0.00840748
0.00847492
0.00852342
0.00855265
0.00856241
0.00855265
0.00852342
0.00847492
0.00840748
0.00832155
0.00821772
0.00809666
0.00795918
0.00780616
0.00763859
0.00745753
0.00726409
0.00705947
0.00684488
0.00662157
0.0063908
0.00615385
0.00591199
0.00566646
0.00541847
0.00516921
0.00491979
0.00467129
0.0044247
0.00418097
0.00394093
0.00370535
0.00347492
0.00325023
0.00303177
0.00281996
0.0026151
0.00241743
0.00222708
0.00204411
0.00186847
0.00170005
0.00153867
0.00138407
0.00123591
0.00109381
0.000957321
0.000825953
0.000699163
0.000576371
0.000456962
0.000340294
0.000225701
0.000112501
0
0
8.37778e-05
0.000168076
0.000253412
0.000340294
0.000429216
0.000520658
0.000615077
0.000712904
0.000814544
0.000920365
0.0010307
0.00114583
0.00126601
0.00139142
0.00152222
0.00165848
0.00180023
0.00194743
0.00209998
0.00225772
0.0024204
0.00258773
0.00275933
0.00293476
0.00311351
0.00329502
0.00347865
0.0036637
0.00384944
0.00403507
0.00421974
0.00440258
0.0045827
0.00475915
0.00493099
0.00509729
0.0052571
0.00540948
0.00555352
0.00568836
0.00581315
0.0059271
0.00602948
0.00611963
0.00619695
0.00626094
0.00631116
0.00634728
0.00636905
0.00637632
0.00636905
0.00634728
0.00631116
0.00626094
0.00619695
0.00611963
0.00602948
0.0059271
0.00581315
0.00568836
0.00555352
0.00540948
0.0052571
0.00509729
0.00493099
0.00475915
0.0045827
0.00440258
0.00421974
0.00403507
0.00384944
0.0036637
0.00347865
0.00329502
0.00311351
0.00293476
0.00275933
0.00258773
0.0024204
0.00225772
0.00209998
0.00194743
0.00180023
0.00165848
0.00152222
0.00139142
0.00126601
0.00114583
0.0010307
0.000920365
0.000814544
0.000712904
0.000615077
0.000520658
0.000429216
0.000340294
0.000253412
0.000168076
8.37778e-05
0
0
5.55659e-05
0.000111477
0.000168076
0.000225701
0.000284679
0.000345328
0.000407951
0.000472836
0.000540249
0.000610434
0.000683612
0.000759975
0.000839683
0.000922866
0.00100962
0.00109999
0.00119401
0.00129164
0.00139282
0.00149744
0.00160534
0.00171632
0.00183013
0.00194649
0.00206504
0.00218543
0.00230722
0.00242996
0.00255315
0.00267627
0.00279875
0.00292003
0.00303949
0.00315652
0.0032705
0.00338079
0.00348678
0.00358785
0.00368339
0.00377282
0.00385558
0.00393116
0.00399907
0.00405886
0.00411015
0.00415259
0.00418589
0.00420985
0.00422429
0.00422911
0.00422429
0.00420985
0.00418589
0.00415259
0.00411015
0.00405886
0.00399907
0.00393116
0.00385558
0.00377282
0.00368339
0.00358785
0.00348678
0.00338079
0.0032705
0.00315652
0.00303949
0.00292003
0.00279875
0.00267627
0.00255315
0.00242996
0.00230722
0.00218543
0.00206504
0.00194649
0.00183013
0.00171632
0.00160534
0.00149744
0.00139282
0.00129164
0.00119401
0.00109999
0.00100962
0.000922866
0.000839683
0.000759975
0.000683612
0.000610434
0.000540249
0.000472836
0.000407951
0.000345328
0.000284679
0.000225701
0.000168076
0.000111477
5.55659e-05
0
0
2.76968e-05
5.55659e-05
8.37778e-05
0.000112501
0.000141898
0.000172129
0.000203344
0.000235685
0.000269287
0.000304271
0.000340747
0.00037881
0.000418541
0.000460003
0.000503244
0.000548292
0.000595154
0.000643819
0.000694253
0.0007464
0.000800182
0.0008555
0.00091223
0.000970227
0.00102932
0.00108933
0.00115004
0.00121122
0.00127262
0.00133399
0.00139504
0.00145549
0.00151503
0.00157337
0.00163018
0.00168516
0.00173799
0.00178837
0.00183599
0.00188056
0.00192182
0.00195949
0.00199334
0.00202314
0.00204871
0.00206986
0.00208646
0.0020984
0.0021056
0.002108
0.0021056
0.0020984
0.00208646
0.00206986
0.00204871
0.00202314
0.00199334
0.00195949
0.00192182
0.00188056
0.00183599
0.00178837
0.00173799
0.00168516
0.00163018
0.00157337
0.00151503
0.00145549
0.00139504
0.00133399
0.00127262
0.00121122
0.00115004
0.00108933
0.00102932
0.000970227
0.00091223
0.0008555
0.000800182
0.0007464
0.000694253
0.000643819
0.000595154
0.000548292
0.000503244
0.000460003
0.000418541
0.00037881
0.000340747
0.000304271
0.000269287
0.000235685
0.000203344
0.000172129
0.000141898
0.000112501
8.37778e-05
5.55659e-05
2.76968e-05
0
0
0
0
0
0
0
0
0
0
0
0
0
0
0
0
0
0
0
0
0
0
0
0
0
0
0
0
0
0
0
0
0
0
0
0
0
0
0
0
0
0
0
0
0
0
0
0
0
0
0
0
0
0
0
0
0
0
0
0
0
0
0
0
0
0
0
0
0
0
0
0
0
0
0
0
0
0
0
0
0
0
0
0
0
0
0
0
0
0
0
0
0
0
0
0
0
0
0
0
0
0
